<svg id="Layer_1" data-name="Layer 1" xmlns="http://www.w3.org/2000/svg" viewBox="0 0 207.7 401.04"><defs><style>.cls-1{fill:#84d1d6;}.cls-2{fill:#43469c;}.cls-3{fill:#bcaa61;}.cls-4{fill:#4c3239;}.cls-5{fill:#c8882b;}.cls-6{fill:#f2db7b;}.cls-7{fill:#eca12a;}</style></defs><rect class="cls-1" x="7.48" y="7.5" width="194.5" height="391.89" rx="4.94"/><path class="cls-2" d="M390.31,616.45q-72.78,0-145.54,1c-12.13.13-24.25.38-36.38.58l-2.28,0a8.47,8.47,0,0,1-1.37-.05,6.64,6.64,0,0,1-5.5-4.72,6.45,6.45,0,0,1-.26-1.52c0-.28,0-.46,0-.64v-.57l0-2.28-.08-4.54-.32-18.2L197,512.81,195.53,440l-1.23-72.77q-.51-36.37-.77-72.77l-.2-36.38,0-18.19,0-9.1V229.7c0-.07,0-.67,0-1.12a13.44,13.44,0,0,1,.18-1.42,12.45,12.45,0,0,1,12.2-10.1q72.78,0,145.54,1l36.38.59,2.28,0,.74,0a10.24,10.24,0,0,1,1.23.12,10.45,10.45,0,0,1,2.39.65,10.74,10.74,0,0,1,6.34,7.12A10.5,10.5,0,0,1,401,229v1.39l0,2.28-.08,4.54-.32,18.2L399,328.19,397.51,401l-1.23,72.77q-.51,36.38-.77,72.77l-.19,36.38,0,18.19v9.1a14.38,14.38,0,0,1-.1,2.27,5,5,0,0,1-4.86,4Zm0,0a5,5,0,0,0,3.92-2,4.91,4.91,0,0,0,.91-2.06,13.11,13.11,0,0,0,.09-2.26l0-9.1,0-18.19L395,546.5q-.25-36.39-.77-72.77L393,401l-1.5-72.77L390,255.43l-.32-18.2-.13-7.52a.81.81,0,0,0,.45.61,1.67,1.67,0,0,0,.2.08l.1,0h-.39l-2.28,0-36.38.59q-72.76,1-145.54,1a2.54,2.54,0,0,0,2.5-2.08c0-.1,0-.2,0-.29s0-.3,0,0v1.13l0,9.1,0,18.19L208,294.5q-.27,36.39-.77,72.77L206,440l-1.5,72.77L203,585.57l-.31,18.2-.08,4.54,0,2.28v.57a3.93,3.93,0,0,0,0,.49,3,3,0,0,0,.09.72,3.22,3.22,0,0,0,1.86,2.16,3,3,0,0,0,.72.21,5,5,0,0,0,.89.06l2.28,0c12.13.2,24.25.45,36.38.58Q317.53,616.44,390.31,616.45Z" transform="translate(-193.27 -217.06)"/><rect class="cls-3" x="61.82" y="303.74" width="85.82" height="76.17" rx="19.06"/><path class="cls-4" d="M321.85,597.37c-6.07,0-12.14.2-18.2.61s-12.14,1-18.21,1.54c-3,.22-6.06.49-9.1.65-.76.05-1.5.08-2.29.11s-1.78,0-2.67-.08a20,20,0,0,1-2.65-.42l-1.31-.31-1.28-.44a21.4,21.4,0,0,1-13.65-15.52c-.09-.44-.21-.87-.27-1.31l-.14-1.33a23.35,23.35,0,0,1-.08-2.64c.07-1.61.15-3.06.26-4.6l.62-9.1c.42-6.07.8-12.13.92-18.2,0-1.52.07-3,.07-4.55,0-.77,0-1.5,0-2.3a21.71,21.71,0,0,1,.18-2.41,21.26,21.26,0,0,1,3.4-9,17.72,17.72,0,0,1,1.48-1.94,16.71,16.71,0,0,1,1.7-1.77c.57-.59,1.25-1.06,1.87-1.59s1.35-.95,2.07-1.35a22.08,22.08,0,0,1,9.54-2.82c6.07-.34,12.14-.78,18.2-1s12.14-.42,18.21-.57l9.1-.22,2.29,0c.91,0,1.84,0,2.75.14a21.31,21.31,0,0,1,2.73.46l1.34.33,1.32.46A22.71,22.71,0,0,1,344.42,534a23.21,23.21,0,0,1,.69,5.5c0,1.63-.05,3.07-.08,4.61-.06,3-.13,6.07-.25,9.1-.21,6.07-.68,12.13-1.21,18.2l-.42,4.55c-.08.78-.12,1.48-.23,2.31a18.57,18.57,0,0,1-.4,2.48l-.29,1.21c-.11.4-.26.79-.39,1.18a18.25,18.25,0,0,1-.95,2.28c-.33.74-.79,1.43-1.17,2.14s-.9,1.34-1.43,1.95a21.64,21.64,0,0,1-7.42,5.81A21.24,21.24,0,0,1,321.85,597.37Zm0-.8a17.88,17.88,0,0,0,8.48-2.26,16.87,16.87,0,0,0,6.18-6,16.41,16.41,0,0,0,2.39-8,15.59,15.59,0,0,0,0-2c0-.68-.13-1.5-.19-2.24l-.42-4.55c-.53-6.07-1-12.13-1.22-18.2-.11-3-.18-6.07-.25-9.1l-.1-4.49a15.1,15.1,0,0,0-.53-3.49,16.69,16.69,0,0,0-1.28-3.27,16.06,16.06,0,0,0-2-2.87,15.13,15.13,0,0,0-5.71-4.06l-.82-.33-.86-.24a11.46,11.46,0,0,0-1.74-.37c-.59-.12-1.19-.1-1.79-.17l-2.25-.05-9.1-.22c-6.07-.15-12.14-.29-18.21-.57s-12.13-.69-18.2-1a16.86,16.86,0,0,0-8,1.46,16.5,16.5,0,0,0-6.47,5.2c-.45.54-.78,1.17-1.19,1.75s-.67,1.25-.92,1.91a14.4,14.4,0,0,0-.68,2c-.09.34-.19.68-.26,1l-.17,1a16.84,16.84,0,0,0-.18,2.13c0,.71,0,1.5,0,2.25,0,1.52,0,3,.07,4.55.13,6.07.51,12.13.92,18.2l.62,9.1.29,4.51a16.49,16.49,0,0,0,.74,3.71,17.5,17.5,0,0,0,1.48,3.41,18.32,18.32,0,0,0,2.21,3,16.36,16.36,0,0,0,6,4.17l.85.35.89.26a14.09,14.09,0,0,0,1.82.41c.61.14,1.24.15,1.86.24l2.26.12c3,.16,6.07.42,9.1.64,6.07.51,12.14,1.12,18.21,1.54S315.78,596.59,321.85,596.57Z" transform="translate(-193.27 -217.06)"/><rect class="cls-5" x="75.86" y="265.22" width="57.74" height="64.88" rx="16.23"/><path class="cls-4" d="M310.64,547.5c-4.53,0-9.06.17-13.59.54-2.26.17-4.53.41-6.79.64l-3.4.35c-.57.06-1.1.13-1.72.17s-1.28.09-1.92,0a17.79,17.79,0,0,1-7.56-2,18,18,0,0,1-6.05-5.17,17.66,17.66,0,0,1-3.23-7.36c-.09-.67-.21-1.34-.27-2s0-1.38,0-2c0-1.13.09-2.26.14-3.39.46-9.06,1.58-18.11,1.79-27.17l0-1.7.12-1.8c.1-.6.18-1.2.3-1.79s.28-1.17.47-1.74a18.81,18.81,0,0,1,3.51-6.3,19,19,0,0,1,5.73-4.52,18.35,18.35,0,0,1,7.19-2c4.53-.3,9.06-.68,13.59-.89,2.26-.15,4.53-.2,6.79-.29l3.4-.11c.58,0,1.09-.05,1.73,0s1.36,0,2,.08a19.5,19.5,0,0,1,7.79,2.44,20,20,0,0,1,6.15,5.46,18.88,18.88,0,0,1,3.38,7.56c.12.69.24,1.38.31,2.07s.08,1.43.09,2l0,3.4c-.06,4.53-.16,9.05-.35,13.58s-.6,9.06-1.06,13.58L329,531c-.09.63-.17,1.27-.28,1.89s-.3,1.24-.48,1.84-.41,1.2-.66,1.77a18.72,18.72,0,0,1-4.21,6A18.41,18.41,0,0,1,310.64,547.5Zm0-.7A14.32,14.32,0,0,0,322,541.15a14.06,14.06,0,0,0,2.56-5.69c.11-.5.15-1,.23-1.52s0-1,.05-1.51l-.1-1.49-.18-1.7c-.46-4.52-.87-9-1.06-13.58s-.29-9-.35-13.58l0-3.4-.06-1.34-.18-1.3a13,13,0,0,0-10.73-10.36c-.44-.08-.89-.08-1.35-.14s-1.11,0-1.65-.06l-3.4-.11c-2.26-.09-4.53-.14-6.79-.29-4.53-.21-9.06-.59-13.59-.89a14.18,14.18,0,0,0-14.42,9.61c-.17.5-.28,1-.42,1.53s-.15,1.05-.24,1.57,0,1.06-.06,1.59l0,1.69c.21,9.06,1.34,18.11,1.79,27.17.06,1.13.11,2.26.14,3.39l.11,1.41c.06.46.16.9.22,1.36a14.6,14.6,0,0,0,2.14,5,15.2,15.2,0,0,0,9.07,6.31c.48.11,1,.17,1.46.26s1.12.12,1.67.19l3.4.35c2.26.23,4.53.47,6.79.65C301.58,546.63,306.11,546.82,310.64,546.8Z" transform="translate(-193.27 -217.06)"/><rect class="cls-6" x="61.82" y="64.46" width="85.82" height="76.17" rx="19.06"/><path class="cls-4" d="M321.85,358.09c-6.07,0-12.14.2-18.2.61s-12.14,1-18.21,1.54c-3,.22-6.06.49-9.1.65l-2.29.11c-.88,0-1.78,0-2.67-.08a20,20,0,0,1-2.65-.43l-1.31-.3-1.28-.44a21.4,21.4,0,0,1-13.65-15.52c-.09-.44-.21-.87-.27-1.31l-.14-1.33a23.46,23.46,0,0,1-.08-2.65c.07-1.6.15-3.05.26-4.59l.62-9.1c.42-6.07.8-12.13.92-18.2,0-1.52.07-3,.07-4.55,0-.77,0-1.5,0-2.3a21.71,21.71,0,0,1,.18-2.41,21.35,21.35,0,0,1,3.4-9,19.87,19.87,0,0,1,1.48-1.94,17.63,17.63,0,0,1,1.7-1.76c.57-.59,1.25-1.06,1.87-1.59s1.35-.95,2.07-1.35a22.08,22.08,0,0,1,9.54-2.82c6.07-.34,12.14-.78,18.2-1s12.14-.42,18.21-.57l9.1-.23,2.29,0c.91,0,1.84,0,2.75.15a19.7,19.7,0,0,1,2.73.46l1.34.33,1.32.45a22.75,22.75,0,0,1,14.33,15.88,23.3,23.3,0,0,1,.69,5.51c0,1.63-.05,3.06-.08,4.61-.06,3-.13,6.06-.25,9.1-.21,6.06-.68,12.13-1.21,18.2l-.42,4.55c-.08.77-.12,1.48-.23,2.31a18.57,18.57,0,0,1-.4,2.48l-.29,1.21c-.11.4-.26.79-.39,1.18a18.12,18.12,0,0,1-.95,2.27c-.33.75-.79,1.44-1.17,2.15s-.9,1.34-1.43,1.95a21.64,21.64,0,0,1-7.42,5.81A21.24,21.24,0,0,1,321.85,358.09Zm0-.8a17.88,17.88,0,0,0,8.48-2.26,16.87,16.87,0,0,0,6.18-6,16.44,16.44,0,0,0,2.39-8,15.56,15.56,0,0,0,0-2.05c0-.69-.13-1.5-.19-2.24l-.42-4.55c-.53-6.07-1-12.14-1.22-18.2-.11-3-.18-6.07-.25-9.1l-.1-4.49a15,15,0,0,0-.53-3.49,16.69,16.69,0,0,0-1.28-3.27,16.06,16.06,0,0,0-2-2.87,15.13,15.13,0,0,0-5.71-4.06l-.82-.33-.86-.24a11.46,11.46,0,0,0-1.74-.37c-.59-.12-1.19-.1-1.79-.17l-2.25-.05-9.1-.22c-6.07-.15-12.14-.3-18.21-.57s-12.13-.69-18.2-1a16.86,16.86,0,0,0-8,1.46,16.56,16.56,0,0,0-6.47,5.19c-.45.55-.78,1.17-1.19,1.76s-.67,1.24-.92,1.91a14,14,0,0,0-.68,2c-.09.34-.19.68-.26,1l-.17,1.05a16.84,16.84,0,0,0-.18,2.12c0,.72,0,1.51,0,2.26,0,1.51,0,3,.07,4.55.13,6.07.51,12.13.92,18.2l.62,9.1.29,4.51a16.3,16.3,0,0,0,.74,3.7,17.33,17.33,0,0,0,1.48,3.42,17.82,17.82,0,0,0,2.21,3,16.38,16.38,0,0,0,6,4.18c.28.11.57.22.85.35l.89.26a14.09,14.09,0,0,0,1.82.41c.61.14,1.24.15,1.86.24l2.26.11c3,.16,6.07.43,9.1.65,6.07.5,12.14,1.12,18.21,1.54S315.78,357.31,321.85,357.29Z" transform="translate(-193.27 -217.06)"/><rect class="cls-7" x="75.86" y="23.81" width="57.74" height="64.88" rx="16.23"/><path class="cls-4" d="M310.64,306.09c-4.53,0-9.06.17-13.59.54-2.26.17-4.53.41-6.79.64l-3.4.35c-.57.06-1.1.13-1.72.17s-1.28.09-1.92,0a17.79,17.79,0,0,1-7.56-2,18,18,0,0,1-6.05-5.17,17.66,17.66,0,0,1-3.23-7.36c-.09-.67-.21-1.34-.27-2s0-1.38,0-2c0-1.13.09-2.26.14-3.39.46-9.06,1.58-18.11,1.79-27.17l0-1.7.12-1.8c.1-.6.18-1.2.3-1.79s.28-1.17.47-1.74a18.81,18.81,0,0,1,3.51-6.3,19,19,0,0,1,5.73-4.52,18.35,18.35,0,0,1,7.19-2c4.53-.3,9.06-.68,13.59-.89,2.26-.15,4.53-.2,6.79-.29l3.4-.11c.58,0,1.09,0,1.73,0s1.36,0,2,.08a19.5,19.5,0,0,1,7.79,2.44,20,20,0,0,1,6.15,5.46,18.88,18.88,0,0,1,3.38,7.56c.12.69.24,1.38.31,2.07s.08,1.43.09,2l0,3.4c-.06,4.53-.16,9.05-.35,13.58s-.6,9.06-1.06,13.58l-.19,1.71c-.09.63-.17,1.27-.28,1.89s-.3,1.24-.48,1.84-.41,1.2-.66,1.77a18.72,18.72,0,0,1-4.21,6A18.41,18.41,0,0,1,310.64,306.09Zm0-.7A14.32,14.32,0,0,0,322,299.74a14.06,14.06,0,0,0,2.56-5.69c.11-.5.15-1,.23-1.52s0-1,.05-1.51l-.1-1.49-.18-1.7c-.46-4.52-.87-9.05-1.06-13.58s-.29-9.05-.35-13.58l0-3.4-.06-1.34-.18-1.3a13,13,0,0,0-10.73-10.36c-.44-.08-.89-.08-1.35-.14s-1.11,0-1.65-.06l-3.4-.11c-2.26-.09-4.53-.14-6.79-.29-4.53-.21-9.06-.59-13.59-.89a14.18,14.18,0,0,0-14.42,9.61c-.17.5-.28,1-.42,1.53s-.15,1.05-.24,1.57,0,1.06-.06,1.59l0,1.69c.21,9.06,1.34,18.11,1.79,27.17.06,1.13.11,2.26.14,3.39l.11,1.41c.06.46.16.9.22,1.36a14.6,14.6,0,0,0,2.14,5,15.2,15.2,0,0,0,9.07,6.31c.48.11,1,.17,1.46.26s1.12.12,1.67.19l3.4.35c2.26.23,4.53.47,6.79.65C301.58,305.22,306.11,305.41,310.64,305.39Z" transform="translate(-193.27 -217.06)"/><path class="cls-2" d="M220.28,370a75,75,0,0,1,14.86-.81,34.58,34.58,0,0,1,14.91,4,23.34,23.34,0,0,1,6.32,5.17,25.45,25.45,0,0,1,4.22,7.05,40.83,40.83,0,0,1,2.58,15.67,82.34,82.34,0,0,1-1.81,15.29A143.79,143.79,0,0,1,257.49,431c-1.56,4.77-3.31,9.46-5.16,14.07-.92,2.31-1.87,4.6-2.82,6.87l-1.41,3.35-.64,1.59-.26.71c-.07.19-.14.42-.09.32l0-.09.05-.19,0-.19,0-.29c0-.15,0-.31,0-.47a5.45,5.45,0,0,0-.08-1.05,6,6,0,0,0-4.34-4.69,5.74,5.74,0,0,0-3.25.06,6.3,6.3,0,0,0-1.72.85,5.58,5.58,0,0,0-.73.64,4.49,4.49,0,0,0-.36.4,3.72,3.72,0,0,0-.34.47l-.16.26,0,0,.07-.22.52-1.56c.38-1.16.79-2.38,1.22-3.59.85-2.43,1.77-4.87,2.79-7.27a114.34,114.34,0,0,1,7-13.93A95.25,95.25,0,0,1,268,403.52a121.71,121.71,0,0,1,25.6-16.66A119.22,119.22,0,0,1,322,377.09a.77.77,0,0,1,.9.6.76.76,0,0,1-.3.78c-8,5.89-15.95,11.46-23.41,17.38a219.36,219.36,0,0,0-21,18.67A202.2,202.2,0,0,0,260.3,435.3a98.42,98.42,0,0,0-7.45,11.48c-1.1,2-2.14,4.05-3.08,6.15-.47,1.06-.92,2.12-1.39,3.24l-.79,1.86-.29.63-.22.44c-.09.17-.24.44-.38.66a7.24,7.24,0,0,1-.47.66,5.76,5.76,0,0,1-.43.49,8,8,0,0,1-.82.71,5.81,5.81,0,0,1-1.81.9,5.93,5.93,0,0,1-3.36.08,6.09,6.09,0,0,1-3.57-2.57,6,6,0,0,1-.89-2.3,6.05,6.05,0,0,1-.1-1.16c0-.19,0-.39,0-.59s0-.3.05-.4l.06-.3a2.72,2.72,0,0,1,.1-.41l.09-.31a11.59,11.59,0,0,1,.53-1.4l.44-1,.85-1.75,1.66-3.3c1.09-2.17,2.17-4.32,3.21-6.47,2.08-4.32,4.05-8.66,5.83-13.06,3.59-8.76,6.62-17.82,7.57-26.92a34.5,34.5,0,0,0-.85-13.22,19.89,19.89,0,0,0-2.73-5.75,19,19,0,0,0-4.55-4.54,30.73,30.73,0,0,0-12.77-4.79,72.25,72.25,0,0,0-14.37-.85.75.75,0,0,1-.13-1.5Z" transform="translate(-193.27 -217.06)"/><path class="cls-2" d="M368.4,388.12q-7.14,1.35-14.24,2.83c-4.73,1-9.45,2-14.13,3.13s-9.32,2.32-13.83,3.74c-2.25.71-4.47,1.48-6.56,2.36-1.06.43-2.05.92-3,1.41a12.29,12.29,0,0,0-2.28,1.54,1.85,1.85,0,0,0-.29.31l-.09.12a0,0,0,0,1,0,0h0l.06-.06a.91.91,0,0,0,.06-.16,1.17,1.17,0,0,0,.07-.63c0-.5-.21-.67-.11-.6a5.77,5.77,0,0,0,.67.42,17.05,17.05,0,0,0,2.62,1.11c1,.35,2.08.67,3.17,1,4.42,1.18,9.15,2.08,13.9,3s9.58,2,14.5,3.42a63.19,63.19,0,0,1,7.53,2.62,30.07,30.07,0,0,1,3.94,2,17.58,17.58,0,0,1,4.14,3.37,11.58,11.58,0,0,1,3,6.64,11.71,11.71,0,0,1-.29,3.87l-.24.89c-.08.28-.19.52-.29.78-.21.49-.43,1.05-.67,1.48a25.27,25.27,0,0,1-6.53,7.47,57.27,57.27,0,0,1-6.86,4.69c-2.3,1.37-4.63,2.58-7,3.7a109.24,109.24,0,0,1-29.11,8.86c-19.84,3.23-40.52,2.47-59.38-3.86a.77.77,0,0,1,.16-1.49h0c9.81-1.07,19.32-2.08,28.66-3.59s18.46-3.42,27.48-5.74q6.77-1.74,13.39-3.69c4.41-1.31,8.82-2.61,13-4.17,2.12-.75,4.2-1.56,6.17-2.46a41.78,41.78,0,0,0,5.5-2.92,14.67,14.67,0,0,0,3.46-2.91c.2-.3.15-.24.23.09a.33.33,0,0,0,.09.21.31.31,0,0,0,.07.12s0-.05-.06-.2a5.78,5.78,0,0,0-1.39-1.29,19.26,19.26,0,0,0-2.43-1.46,51.62,51.62,0,0,0-6-2.57c-4.3-1.56-8.88-2.87-13.51-4.19s-9.35-2.67-14.17-4.4c-1.21-.44-2.43-.91-3.67-1.47a23.79,23.79,0,0,1-3.87-2.11,11.1,11.1,0,0,1-2.14-1.86,6.93,6.93,0,0,1-1.76-3.77,6.49,6.49,0,0,1,.21-2.42,7.08,7.08,0,0,1,.4-1l.24-.47.25-.37c.17-.25.34-.49.53-.72s.35-.37.52-.55a8.33,8.33,0,0,1,1.06-.91,26,26,0,0,1,7.66-3.52c2.46-.77,4.89-1.35,7.32-1.88,4.86-1,9.69-1.81,14.53-2.44s9.68-1.18,14.52-1.65,9.68-.83,14.52-1.18a.75.75,0,0,1,.19,1.49Z" transform="translate(-193.27 -217.06)"/></svg>