<svg id="Layer_1" data-name="Layer 1" xmlns="http://www.w3.org/2000/svg" viewBox="0 0 207.7 401.04"><defs><style>.cls-1{fill:#84d1d6;}.cls-2{fill:#43469c;}.cls-3{fill:#f2db7b;}.cls-4{fill:#4c3239;}.cls-5{fill:#eca12a;}.cls-6{fill:#bcaa61;}.cls-7{fill:#c8882b;}</style></defs><rect class="cls-1" x="7.48" y="7.5" width="194.5" height="391.89" rx="4.94"/><path class="cls-2" d="M390.31,616.45q-72.78,0-145.54,1c-12.13.13-24.25.38-36.38.58l-2.28,0a8.47,8.47,0,0,1-1.37-.05,6.64,6.64,0,0,1-5.5-4.72,6.45,6.45,0,0,1-.26-1.52c0-.28,0-.46,0-.64v-.57l0-2.28-.08-4.54-.32-18.2L197,512.81,195.53,440l-1.23-72.77q-.51-36.37-.77-72.77l-.2-36.38,0-18.19,0-9.1V229.7c0-.07,0-.67,0-1.12a13.44,13.44,0,0,1,.18-1.42,12.45,12.45,0,0,1,12.2-10.1q72.78,0,145.54,1l36.38.59,2.28,0,.74,0a10.24,10.24,0,0,1,1.23.12,10.45,10.45,0,0,1,2.39.65,10.74,10.74,0,0,1,6.34,7.12A10.5,10.5,0,0,1,401,229v1.39l0,2.28-.08,4.54-.32,18.2L399,328.19,397.51,401l-1.23,72.77q-.51,36.38-.77,72.77l-.19,36.38,0,18.19v9.1a14.38,14.38,0,0,1-.1,2.27,5,5,0,0,1-4.86,4Zm0,0a5,5,0,0,0,3.92-2,4.91,4.91,0,0,0,.91-2.06,13.11,13.11,0,0,0,.09-2.26l0-9.1,0-18.19L395,546.5q-.25-36.39-.77-72.77L393,401l-1.5-72.77L390,255.43l-.32-18.2-.13-7.52a.81.81,0,0,0,.45.61,1.67,1.67,0,0,0,.2.08l.1,0h-.39l-2.28,0-36.38.59q-72.76,1-145.54,1a2.54,2.54,0,0,0,2.5-2.08c0-.1,0-.2,0-.29s0-.3,0,0v1.13l0,9.1,0,18.19L208,294.5q-.27,36.39-.77,72.77L206,440l-1.5,72.77L203,585.57l-.31,18.2-.08,4.54,0,2.28v.57a3.93,3.93,0,0,0,0,.49,3,3,0,0,0,.09.72,3.22,3.22,0,0,0,1.86,2.16,3,3,0,0,0,.72.21,5,5,0,0,0,.89.06l2.28,0c12.13.2,24.25.45,36.38.58Q317.53,616.44,390.31,616.45Z" transform="translate(-193.27 -217.06)"/><rect class="cls-3" x="62.2" y="64.21" width="85.82" height="76.17" rx="19.06"/><path class="cls-4" d="M322.23,357.85c-6.07,0-12.14.19-18.2.61s-12.14,1-18.21,1.53c-3,.23-6.06.49-9.1.65-.76.05-1.5.08-2.29.11s-1.78,0-2.67-.07a21.83,21.83,0,0,1-2.65-.43l-1.31-.31-1.28-.43A21.41,21.41,0,0,1,252.87,344c-.09-.44-.21-.87-.27-1.31l-.14-1.33a23.46,23.46,0,0,1-.08-2.65c.07-1.6.15-3.06.26-4.59l.62-9.1c.42-6.07.8-12.14.92-18.21,0-1.51.07-3,.07-4.55,0-.76,0-1.49,0-2.29a21.15,21.15,0,0,1,3.58-11.41,18.73,18.73,0,0,1,1.48-1.94,16.61,16.61,0,0,1,1.7-1.76c.57-.59,1.24-1.06,1.87-1.6s1.35-.95,2.07-1.34a22,22,0,0,1,9.54-2.83c6.07-.33,12.14-.77,18.2-1s12.14-.42,18.21-.57l9.1-.22,2.29,0c.91,0,1.84,0,2.75.14a21.35,21.35,0,0,1,2.73.47l1.34.33,1.32.45A22.75,22.75,0,0,1,344.8,294.5a23.28,23.28,0,0,1,.69,5.5c0,1.64-.05,3.07-.08,4.61-.06,3-.13,6.07-.25,9.1-.21,6.07-.68,12.14-1.21,18.21l-.42,4.55c-.08.77-.12,1.48-.23,2.31a18.84,18.84,0,0,1-.4,2.48l-.29,1.21c-.11.4-.26.79-.39,1.18a18.12,18.12,0,0,1-1,2.27c-.33.75-.79,1.43-1.17,2.14s-.9,1.35-1.43,2a21.2,21.2,0,0,1-16.44,7.83Zm0-.8a17.77,17.77,0,0,0,8.48-2.27,16.79,16.79,0,0,0,6.18-6,16.37,16.37,0,0,0,2.39-8,15.71,15.71,0,0,0,0-2.06c0-.68-.13-1.49-.19-2.23l-.42-4.55c-.53-6.07-1-12.14-1.22-18.21-.11-3-.18-6.06-.25-9.1l-.1-4.49a15.19,15.19,0,0,0-.53-3.49,16.12,16.12,0,0,0-1.29-3.27,15.86,15.86,0,0,0-2-2.87,15.11,15.11,0,0,0-5.71-4.05l-.82-.33-.86-.24a12.84,12.84,0,0,0-1.74-.38c-.59-.11-1.19-.1-1.79-.17l-2.25,0-9.1-.23c-6.07-.15-12.14-.29-18.21-.57s-12.13-.68-18.2-1a17,17,0,0,0-8,1.46,16.59,16.59,0,0,0-6.47,5.2c-.45.55-.78,1.17-1.19,1.75s-.67,1.25-.92,1.91a14.53,14.53,0,0,0-.68,2c-.09.34-.19.68-.27,1l-.16,1.05a15,15,0,0,0-.18,2.12c0,.71,0,1.51,0,2.25,0,1.52,0,3,.07,4.55.13,6.07.51,12.14.92,18.21l.62,9.1.28,4.5a17.89,17.89,0,0,0,2.23,7.12,17.9,17.9,0,0,0,2.21,3,16.43,16.43,0,0,0,6,4.18l.86.34.89.26a12.63,12.63,0,0,0,1.82.42c.61.13,1.24.14,1.86.23l2.26.12c3,.16,6.07.42,9.1.65,6.07.5,12.14,1.12,18.21,1.53S316.16,357.07,322.23,357.05Z" transform="translate(-193.27 -217.06)"/><rect class="cls-5" x="76.24" y="23.56" width="57.74" height="64.88" rx="16.23"/><path class="cls-4" d="M311,305.85c-4.52,0-9.05.17-13.58.53-2.26.18-4.53.42-6.79.65l-3.4.35c-.57.06-1.1.13-1.72.17s-1.28.08-1.92,0a17.79,17.79,0,0,1-16.84-14.51c-.1-.67-.21-1.34-.27-2s0-1.37,0-2c0-1.13.08-2.26.14-3.4.46-9.05,1.58-18.11,1.79-27.16l0-1.7.12-1.81c.1-.59.18-1.19.3-1.78s.28-1.18.47-1.75a18.86,18.86,0,0,1,3.51-6.29,19.07,19.07,0,0,1,5.73-4.53,18.29,18.29,0,0,1,7.19-2c4.53-.3,9.06-.68,13.59-.9,2.26-.14,4.53-.19,6.79-.29l3.39-.11c.59,0,1.1,0,1.74,0s1.36,0,2,.08a19.66,19.66,0,0,1,7.79,2.44,20.09,20.09,0,0,1,6.15,5.46,18.92,18.92,0,0,1,3.38,7.57c.12.68.24,1.37.31,2.06s.08,1.43.09,2l0,3.39c-.07,4.53-.16,9.06-.35,13.59s-.6,9.05-1.07,13.58l-.18,1.7c-.09.64-.17,1.27-.28,1.9s-.3,1.24-.48,1.84-.41,1.19-.67,1.76A18.53,18.53,0,0,1,311,305.85Zm0-.7a14.33,14.33,0,0,0,11.35-5.66,14,14,0,0,0,2.56-5.69c.11-.5.15-1,.23-1.51s0-1,.05-1.51l-.1-1.49-.18-1.7c-.46-4.53-.87-9-1.06-13.58s-.29-9.06-.35-13.59l0-3.39-.06-1.35-.18-1.29A13,13,0,0,0,312.52,244c-.44-.08-.9-.09-1.35-.14s-1.11,0-1.66-.06l-3.39-.11c-2.26-.09-4.53-.15-6.79-.29-4.53-.22-9.06-.6-13.59-.89a14.12,14.12,0,0,0-14.42,9.61c-.17.5-.28,1-.42,1.53s-.15,1-.24,1.57-.05,1.05-.06,1.58l0,1.7c.21,9.05,1.34,18.11,1.79,27.16.06,1.14.11,2.27.14,3.4l.11,1.41c.06.45.16.9.22,1.35a14.33,14.33,0,0,0,2.14,5,15.12,15.12,0,0,0,9.07,6.31c.48.12,1,.17,1.46.27s1.12.12,1.67.18l3.4.36c2.26.23,4.53.46,6.79.64C302,305,306.49,305.17,311,305.15Z" transform="translate(-193.27 -217.06)"/><path class="cls-2" d="M220.66,369.79a74.21,74.21,0,0,1,14.86-.81,34.44,34.44,0,0,1,14.91,4,23.3,23.3,0,0,1,6.32,5.16,25.36,25.36,0,0,1,4.22,7.06,40.83,40.83,0,0,1,2.58,15.67,82.24,82.24,0,0,1-1.81,15.28,146.44,146.44,0,0,1-3.87,14.64c-1.56,4.77-3.31,9.46-5.16,14.08-.92,2.31-1.87,4.6-2.82,6.86l-1.41,3.35-.64,1.6-.26.71c-.07.19-.14.41-.1.32l0-.09.05-.2,0-.18,0-.29c0-.16,0-.32,0-.47a5.45,5.45,0,0,0-.08-1.05,6,6,0,0,0-4.34-4.7,5.73,5.73,0,0,0-3.25.07,6,6,0,0,0-1.72.85,4.92,4.92,0,0,0-.73.64,3.27,3.27,0,0,0-.36.4,3.12,3.12,0,0,0-.34.47,2.33,2.33,0,0,0-.16.26l0,0,.07-.21.51-1.56c.39-1.16.79-2.38,1.23-3.6.85-2.43,1.77-4.87,2.79-7.26a113.62,113.62,0,0,1,7-13.93,95.48,95.48,0,0,1,20.1-23.58A122.5,122.5,0,0,1,294,386.61a119.63,119.63,0,0,1,28.42-9.76.77.77,0,0,1,.6,1.37c-8,5.9-15.95,11.46-23.41,17.39a219.27,219.27,0,0,0-21,18.66,201.25,201.25,0,0,0-17.92,20.79,98.42,98.42,0,0,0-7.45,11.48c-1.1,2-2.14,4-3.08,6.15-.47,1.05-.92,2.11-1.39,3.24l-.79,1.86-.29.63-.22.43c-.09.18-.24.45-.38.67a7.11,7.11,0,0,1-.47.65,4.43,4.43,0,0,1-.43.49,6.14,6.14,0,0,1-.82.71,6.15,6.15,0,0,1-5.17,1,6.14,6.14,0,0,1-3.57-2.58,5.71,5.71,0,0,1-.89-2.29,6.17,6.17,0,0,1-.1-1.16c0-.2,0-.39,0-.59a3.17,3.17,0,0,1,.05-.4l.06-.3a3.3,3.3,0,0,1,.1-.42l.09-.31a11.31,11.31,0,0,1,.53-1.39l.44-1,.85-1.74,1.66-3.3c1.09-2.17,2.17-4.32,3.21-6.48,2.08-4.31,4.05-8.66,5.83-13.06,3.59-8.75,6.62-17.81,7.57-26.91a34.49,34.49,0,0,0-.85-13.22,19.89,19.89,0,0,0-2.73-5.75,18.87,18.87,0,0,0-4.55-4.54,30.88,30.88,0,0,0-12.77-4.8,73,73,0,0,0-14.37-.85.75.75,0,0,1-.13-1.49Z" transform="translate(-193.27 -217.06)"/><path class="cls-2" d="M368.78,387.88c-4.76.9-9.51,1.83-14.24,2.83s-9.45,2-14.13,3.12-9.32,2.33-13.83,3.75c-2.25.71-4.47,1.48-6.56,2.36-1.06.43-2,.91-3,1.4a12.28,12.28,0,0,0-2.28,1.55,1.31,1.31,0,0,0-.29.31l-.09.11v0h0l.05,0a.54.54,0,0,0,.07-.17,1.14,1.14,0,0,0,.07-.62c0-.5-.21-.67-.11-.61a4.36,4.36,0,0,0,.67.43,17.05,17.05,0,0,0,2.62,1.11c1,.35,2.08.67,3.17,1,4.42,1.18,9.15,2.07,13.9,3s9.58,2,14.5,3.42a61.47,61.47,0,0,1,7.53,2.62,30,30,0,0,1,3.94,2,18.1,18.1,0,0,1,4.14,3.37,11.68,11.68,0,0,1,3,6.64,11.4,11.4,0,0,1-.3,3.87l-.23.89a7.91,7.91,0,0,1-.29.78c-.21.5-.43,1.05-.67,1.49a25.27,25.27,0,0,1-6.53,7.47,58.47,58.47,0,0,1-6.86,4.69c-2.3,1.37-4.63,2.58-7,3.7A109.61,109.61,0,0,1,317,457.24c-19.84,3.23-40.52,2.46-59.38-3.86a.76.76,0,0,1-.48-1,.74.74,0,0,1,.64-.52h0c9.81-1.08,19.32-2.09,28.66-3.59s18.46-3.43,27.48-5.75q6.76-1.73,13.39-3.68c4.41-1.32,8.82-2.62,13-4.18,2.12-.74,4.2-1.55,6.17-2.45a44.3,44.3,0,0,0,5.5-2.92,14.67,14.67,0,0,0,3.46-2.91c.2-.3.15-.25.23.08a.36.36,0,0,0,.09.22.26.26,0,0,0,.07.11s0,0-.06-.2a6.21,6.21,0,0,0-1.39-1.29,20.51,20.51,0,0,0-2.43-1.46,50.66,50.66,0,0,0-6-2.56c-4.3-1.56-8.88-2.88-13.52-4.2s-9.34-2.66-14.16-4.39c-1.21-.44-2.43-.92-3.67-1.47a24.58,24.58,0,0,1-3.87-2.11,11.15,11.15,0,0,1-2.14-1.86,7,7,0,0,1-1.76-3.77,6.56,6.56,0,0,1,.21-2.43,7.44,7.44,0,0,1,.4-1l.24-.48.25-.37c.17-.24.34-.48.53-.72s.35-.36.52-.55a10,10,0,0,1,1-.9,26,26,0,0,1,7.67-3.52c2.46-.77,4.89-1.36,7.32-1.88,4.86-1,9.69-1.81,14.53-2.45s9.68-1.17,14.52-1.65,9.68-.83,14.52-1.17a.75.75,0,0,1,.19,1.49Z" transform="translate(-193.27 -217.06)"/><rect class="cls-6" x="98.37" y="296.88" width="85.82" height="76.17" rx="19.06"/><path class="cls-4" d="M358.4,590.51c-6.07,0-12.14.2-18.2.61s-12.14,1-18.21,1.54c-3,.22-6.06.49-9.1.65-.76.05-1.5.08-2.29.11s-1.78,0-2.67-.08a20,20,0,0,1-2.65-.42l-1.31-.31-1.28-.44A21.4,21.4,0,0,1,289,576.65c-.09-.44-.21-.87-.27-1.31l-.14-1.33a23.35,23.35,0,0,1-.08-2.64c.07-1.61.15-3.06.26-4.6l.62-9.1c.42-6.07.8-12.13.92-18.2,0-1.52.07-3,.07-4.55,0-.77,0-1.5,0-2.3a21.71,21.71,0,0,1,.18-2.41,21.26,21.26,0,0,1,3.4-9,17.72,17.72,0,0,1,1.48-1.94,16.71,16.71,0,0,1,1.7-1.77,23.76,23.76,0,0,1,1.87-1.59c.68-.46,1.35-.95,2.07-1.35a22.08,22.08,0,0,1,9.54-2.82c6.07-.34,12.14-.78,18.2-1s12.14-.42,18.21-.57l9.1-.22,2.29,0c.91,0,1.84,0,2.75.14a21.31,21.31,0,0,1,2.73.46l1.34.33,1.32.46A22.71,22.71,0,0,1,381,527.17a23.21,23.21,0,0,1,.69,5.5c0,1.63-.05,3.07-.08,4.61-.06,3-.13,6.07-.25,9.1-.21,6.07-.68,12.13-1.21,18.2l-.42,4.55c-.08.78-.12,1.48-.23,2.31a18.57,18.57,0,0,1-.4,2.48l-.29,1.21c-.11.4-.26.79-.39,1.18a18.25,18.25,0,0,1-.95,2.28c-.33.74-.79,1.43-1.17,2.14s-.9,1.34-1.43,1.95a21.64,21.64,0,0,1-7.42,5.81A21.28,21.28,0,0,1,358.4,590.51Zm0-.8a17.88,17.88,0,0,0,8.48-2.26,16.87,16.87,0,0,0,6.18-6,16.41,16.41,0,0,0,2.39-8,15.59,15.59,0,0,0,0-2c0-.68-.13-1.5-.19-2.24l-.42-4.55c-.53-6.07-1-12.13-1.22-18.2-.11-3-.18-6.07-.25-9.1l-.1-4.49a15.1,15.1,0,0,0-.53-3.49,16.12,16.12,0,0,0-1.29-3.27,15.52,15.52,0,0,0-2-2.87,15.13,15.13,0,0,0-5.71-4.06l-.82-.33-.86-.24a12.82,12.82,0,0,0-1.74-.37c-.59-.12-1.19-.1-1.79-.17l-2.25,0-9.1-.22c-6.07-.15-12.14-.29-18.21-.57s-12.13-.69-18.2-1a16.84,16.84,0,0,0-8,1.46,16.5,16.5,0,0,0-6.47,5.2c-.45.54-.78,1.17-1.19,1.75s-.67,1.25-.92,1.91a14.4,14.4,0,0,0-.68,2c-.09.34-.19.68-.27,1l-.16,1a15.18,15.18,0,0,0-.18,2.13c0,.71,0,1.5,0,2.25,0,1.52,0,3,.07,4.55.13,6.07.51,12.13.92,18.2l.62,9.1.28,4.51a17.08,17.08,0,0,0,.75,3.71A17.5,17.5,0,0,0,297,578.4a18.32,18.32,0,0,0,2.21,3,16.41,16.41,0,0,0,6,4.17l.86.35.89.26a14.09,14.09,0,0,0,1.82.41c.61.14,1.24.15,1.86.24l2.26.12c3,.16,6.07.42,9.1.64,6.07.51,12.14,1.12,18.21,1.54S352.33,589.73,358.4,589.71Z" transform="translate(-193.27 -217.06)"/><rect class="cls-7" x="112.41" y="258.36" width="57.74" height="64.88" rx="16.23"/><path class="cls-4" d="M347.18,540.64c-4.52,0-9.05.17-13.58.54-2.26.17-4.53.41-6.79.64l-3.4.36c-.57.05-1.1.12-1.72.16s-1.28.09-1.92,0a17.82,17.82,0,0,1-16.84-14.51c-.1-.67-.21-1.34-.27-2s0-1.38,0-2c0-1.13.08-2.26.14-3.39.46-9.06,1.58-18.11,1.79-27.17l0-1.7.12-1.8c.1-.6.18-1.2.3-1.79s.28-1.17.47-1.74A18.81,18.81,0,0,1,309,480a19,19,0,0,1,5.73-4.52,18.31,18.31,0,0,1,7.19-2c4.53-.3,9.06-.68,13.59-.89,2.26-.15,4.53-.2,6.79-.29l3.39-.11c.59,0,1.1,0,1.74,0s1.36,0,2,.08a19.5,19.5,0,0,1,7.79,2.44,20,20,0,0,1,6.15,5.46,18.88,18.88,0,0,1,3.38,7.56c.12.69.24,1.38.31,2.07s.08,1.43.09,2l0,3.4c-.07,4.53-.16,9-.35,13.58s-.6,9.06-1.07,13.58l-.18,1.71c-.09.63-.17,1.27-.28,1.89s-.3,1.24-.48,1.84-.41,1.2-.67,1.77a18.54,18.54,0,0,1-16.95,11Zm0-.7a14.32,14.32,0,0,0,11.35-5.65,14.06,14.06,0,0,0,2.56-5.69c.11-.5.15-1,.23-1.52s0-1,.05-1.51l-.1-1.49-.18-1.7c-.46-4.52-.87-9-1.06-13.58s-.29-9.05-.35-13.58l0-3.4-.06-1.34-.18-1.3a13,13,0,0,0-10.73-10.36c-.44-.08-.9-.08-1.35-.14s-1.11,0-1.66-.06l-3.39-.11c-2.26-.09-4.53-.14-6.79-.29-4.53-.21-9.06-.59-13.59-.89a14.18,14.18,0,0,0-14.42,9.61c-.17.5-.28,1-.42,1.53s-.15,1-.24,1.57-.05,1.06-.06,1.59l0,1.69c.21,9.06,1.34,18.11,1.79,27.17.06,1.13.11,2.26.14,3.39l.11,1.41c.06.46.16.9.22,1.36a14.6,14.6,0,0,0,2.14,5,15.16,15.16,0,0,0,9.07,6.31c.48.11,1,.17,1.46.26s1.12.12,1.67.19l3.4.35c2.26.23,4.53.47,6.79.65C338.13,539.77,342.66,540,347.18,539.94Z" transform="translate(-193.27 -217.06)"/><rect class="cls-6" x="25.24" y="296.88" width="85.82" height="76.17" rx="19.06"/><path class="cls-4" d="M285.27,590.51c-6.07,0-12.14.2-18.21.61s-12.13,1-18.2,1.54c-3,.22-6.06.49-9.1.65-.76.05-1.5.08-2.29.11s-1.78,0-2.67-.08a19.75,19.75,0,0,1-2.65-.42l-1.31-.31-1.28-.44a21.43,21.43,0,0,1-13.66-15.52c-.08-.44-.2-.87-.26-1.31L215.5,574a21.23,21.23,0,0,1-.08-2.64c.07-1.61.15-3.06.26-4.6l.62-9.1c.42-6.07.8-12.13.92-18.2,0-1.52.07-3,.07-4.55,0-.77,0-1.5,0-2.3a21.71,21.71,0,0,1,.18-2.41,21.26,21.26,0,0,1,3.4-9,17.72,17.72,0,0,1,1.48-1.94,16.71,16.71,0,0,1,1.7-1.77,23.76,23.76,0,0,1,1.87-1.59c.68-.46,1.35-.95,2.07-1.35a22.08,22.08,0,0,1,9.54-2.82c6.07-.34,12.14-.78,18.2-1s12.14-.42,18.2-.57l9.11-.22,2.29,0c.91,0,1.84,0,2.75.14a21.31,21.31,0,0,1,2.73.46l1.34.33,1.31.46a22.71,22.71,0,0,1,14.34,15.88,23.21,23.21,0,0,1,.69,5.5c0,1.63,0,3.07-.08,4.61-.06,3-.13,6.07-.25,9.1-.21,6.07-.68,12.13-1.21,18.2l-.42,4.55c-.08.78-.12,1.48-.23,2.31a18.57,18.57,0,0,1-.4,2.48l-.29,1.21c-.12.4-.26.79-.4,1.18a16.86,16.86,0,0,1-.95,2.28c-.32.74-.78,1.43-1.16,2.14s-.9,1.34-1.43,1.95a21.73,21.73,0,0,1-7.42,5.81A21.28,21.28,0,0,1,285.27,590.51Zm0-.8a17.88,17.88,0,0,0,8.48-2.26,16.87,16.87,0,0,0,6.18-6,16.4,16.4,0,0,0,2.38-8,14,14,0,0,0,0-2c0-.68-.13-1.5-.2-2.24l-.41-4.55c-.53-6.07-1-12.13-1.22-18.2-.12-3-.18-6.07-.25-9.1l-.1-4.49a15.1,15.1,0,0,0-.53-3.49,14.69,14.69,0,0,0-3.32-6.14,15.13,15.13,0,0,0-5.71-4.06l-.83-.33-.85-.24a12.82,12.82,0,0,0-1.74-.37c-.59-.12-1.19-.1-1.79-.17l-2.25,0-9.11-.22c-6.06-.15-12.13-.29-18.2-.57s-12.13-.69-18.2-1a16.84,16.84,0,0,0-8,1.46,16.5,16.5,0,0,0-6.47,5.2c-.45.54-.79,1.17-1.19,1.75s-.67,1.25-.92,1.91a14.4,14.4,0,0,0-.68,2c-.09.34-.19.68-.27,1l-.16,1a15.18,15.18,0,0,0-.18,2.13c0,.71,0,1.5,0,2.25,0,1.52,0,3,.07,4.55.13,6.07.51,12.13.92,18.2l.62,9.1.28,4.51a17.89,17.89,0,0,0,2.23,7.12,17.75,17.75,0,0,0,2.21,3,16.41,16.41,0,0,0,6,4.17l.86.35.89.26a14.09,14.09,0,0,0,1.82.41c.61.14,1.24.15,1.86.24l2.26.12c3,.16,6.07.42,9.1.64,6.07.51,12.14,1.12,18.2,1.54S279.2,589.73,285.27,589.71Z" transform="translate(-193.27 -217.06)"/><rect class="cls-7" x="39.28" y="258.36" width="57.74" height="64.88" rx="16.23"/><path class="cls-4" d="M274.05,540.64c-4.52,0-9.05.17-13.58.54-2.26.17-4.53.41-6.79.64l-3.4.36c-.57.05-1.1.12-1.72.16s-1.28.09-1.92,0a17.79,17.79,0,0,1-16.84-14.51c-.1-.67-.21-1.34-.27-2s0-1.38,0-2c0-1.13.08-2.26.14-3.39.45-9.06,1.58-18.11,1.79-27.17l0-1.7.12-1.8c.1-.6.18-1.2.3-1.79s.28-1.17.47-1.74a18.81,18.81,0,0,1,3.51-6.3,19,19,0,0,1,5.73-4.52,18.31,18.31,0,0,1,7.19-2c4.53-.3,9.06-.68,13.59-.89,2.26-.15,4.52-.2,6.79-.29l3.39-.11c.59,0,1.1,0,1.74,0s1.36,0,2,.08a19.5,19.5,0,0,1,7.79,2.44,20.07,20.07,0,0,1,6.15,5.46,18.88,18.88,0,0,1,3.38,7.56c.11.69.24,1.38.31,2.07s.08,1.43.09,2l0,3.4c-.07,4.53-.16,9-.35,13.58s-.6,9.06-1.07,13.58l-.18,1.71c-.09.63-.17,1.27-.28,1.89s-.3,1.24-.48,1.84-.41,1.2-.67,1.77a18.54,18.54,0,0,1-16.95,11Zm0-.7A14.16,14.16,0,0,0,288,528.6c.11-.5.15-1,.23-1.52s0-1,.05-1.51l-.1-1.49-.18-1.7c-.46-4.52-.87-9-1.06-13.58s-.29-9.05-.35-13.58l0-3.4-.06-1.34-.18-1.3a13,13,0,0,0-10.73-10.36c-.44-.08-.9-.08-1.35-.14s-1.11,0-1.66-.06l-3.39-.11c-2.27-.09-4.53-.14-6.79-.29-4.53-.21-9.06-.59-13.59-.89a14.15,14.15,0,0,0-14.42,9.61c-.17.5-.28,1-.42,1.53s-.15,1-.24,1.57,0,1.06-.06,1.59l0,1.69c.21,9.06,1.33,18.11,1.79,27.17.06,1.13.11,2.26.14,3.39l.11,1.41c.06.46.16.9.22,1.36a14.41,14.41,0,0,0,2.14,5,15.13,15.13,0,0,0,9.07,6.31c.48.11,1,.17,1.46.26s1.12.12,1.67.19l3.4.35c2.26.23,4.53.47,6.79.65C265,539.77,269.53,540,274.05,539.94Z" transform="translate(-193.27 -217.06)"/><rect class="cls-6" x="62.2" y="311.02" width="85.82" height="76.17" rx="19.06"/><path class="cls-4" d="M322.23,604.66c-6.07,0-12.14.19-18.2.61s-12.14,1-18.21,1.53c-3,.23-6.06.49-9.1.65-.76,0-1.5.08-2.29.11a26.54,26.54,0,0,1-2.67-.08,20,20,0,0,1-2.65-.42l-1.31-.31-1.28-.43a21.43,21.43,0,0,1-13.65-15.53c-.09-.43-.21-.86-.27-1.3l-.14-1.33a23.46,23.46,0,0,1-.08-2.65c.07-1.6.15-3.06.26-4.59l.62-9.11c.42-6.06.8-12.13.92-18.2,0-1.51.07-3,.07-4.55,0-.77,0-1.49,0-2.29a21.15,21.15,0,0,1,3.58-11.41,18.73,18.73,0,0,1,1.48-1.94,16.61,16.61,0,0,1,1.7-1.76c.57-.59,1.24-1.06,1.87-1.6s1.35-.95,2.07-1.34a22,22,0,0,1,9.54-2.83c6.07-.33,12.14-.77,18.2-1s12.14-.42,18.21-.57l9.1-.22,2.29,0c.91,0,1.84,0,2.75.14a21.35,21.35,0,0,1,2.73.47l1.34.33,1.32.45a22.75,22.75,0,0,1,14.33,15.88,23.28,23.28,0,0,1,.69,5.5c0,1.64-.05,3.07-.08,4.61-.06,3-.13,6.07-.25,9.1-.21,6.07-.68,12.14-1.21,18.2l-.42,4.55c-.08.78-.12,1.48-.23,2.32a18.43,18.43,0,0,1-.4,2.47l-.29,1.22c-.11.4-.26.79-.39,1.18a18.12,18.12,0,0,1-1,2.27c-.33.75-.79,1.43-1.17,2.14s-.9,1.35-1.43,2a21.25,21.25,0,0,1-16.44,7.84Zm0-.8a17.77,17.77,0,0,0,8.48-2.27,16.87,16.87,0,0,0,6.18-6,16.37,16.37,0,0,0,2.39-8,15.71,15.71,0,0,0,0-2.06c0-.68-.13-1.49-.19-2.24l-.42-4.55c-.53-6.06-1-12.13-1.22-18.2-.11-3-.18-6.06-.25-9.1l-.1-4.49a15.19,15.19,0,0,0-.53-3.49,16.12,16.12,0,0,0-1.29-3.27,15.86,15.86,0,0,0-2-2.87,15.13,15.13,0,0,0-5.71-4.06l-.82-.33-.86-.24a14.54,14.54,0,0,0-1.74-.37c-.59-.11-1.19-.1-1.79-.17l-2.25,0-9.1-.22c-6.07-.15-12.14-.29-18.21-.57s-12.13-.68-18.2-1a17,17,0,0,0-8,1.46,16.59,16.59,0,0,0-6.47,5.2c-.45.55-.78,1.17-1.19,1.75s-.67,1.25-.92,1.91a14.86,14.86,0,0,0-.68,2c-.09.35-.19.69-.27,1l-.16,1.05a15,15,0,0,0-.18,2.12c0,.71,0,1.5,0,2.25,0,1.52,0,3,.07,4.55.13,6.07.51,12.14.92,18.2l.62,9.11.28,4.5a17.08,17.08,0,0,0,.75,3.71,17.5,17.5,0,0,0,1.48,3.41,17.9,17.9,0,0,0,2.21,3,16.43,16.43,0,0,0,6,4.18c.29.1.58.22.86.34l.89.26a14.12,14.12,0,0,0,1.82.42c.61.13,1.24.14,1.86.23l2.26.12c3,.16,6.07.42,9.1.65,6.07.5,12.14,1.12,18.21,1.53S316.16,603.88,322.23,603.86Z" transform="translate(-193.27 -217.06)"/><rect class="cls-7" x="76.24" y="272.5" width="57.74" height="64.88" rx="16.23"/><path class="cls-4" d="M311,554.79c-4.52,0-9.05.17-13.58.53-2.26.18-4.53.41-6.79.65l-3.4.35c-.57,0-1.1.13-1.72.17s-1.28.08-1.92,0A17.82,17.82,0,0,1,266.76,542c-.1-.67-.21-1.34-.27-2s0-1.38,0-2c0-1.13.08-2.27.14-3.4.46-9,1.58-18.11,1.79-27.16l0-1.7.12-1.81c.1-.59.18-1.19.3-1.78s.28-1.18.47-1.75a18.58,18.58,0,0,1,9.24-10.82,18.48,18.48,0,0,1,7.19-2c4.53-.29,9.06-.67,13.59-.89,2.26-.14,4.53-.2,6.79-.29l3.39-.11c.59,0,1.1,0,1.74,0s1.36,0,2,.08a19.5,19.5,0,0,1,7.79,2.44,20,20,0,0,1,6.15,5.46,18.94,18.94,0,0,1,3.38,7.56c.12.69.24,1.38.31,2.07s.08,1.43.09,2.05l0,3.39c-.07,4.53-.16,9.06-.35,13.59s-.6,9-1.07,13.58l-.18,1.7c-.09.64-.17,1.27-.28,1.9s-.3,1.24-.48,1.84-.41,1.19-.67,1.76A18.57,18.57,0,0,1,311,554.79Zm0-.7a14.36,14.36,0,0,0,11.35-5.66,14,14,0,0,0,2.56-5.69c.11-.5.15-1,.23-1.51s0-1,.05-1.51l-.1-1.5-.18-1.69c-.46-4.53-.87-9.06-1.06-13.58s-.29-9.06-.35-13.59l0-3.39-.06-1.35-.18-1.29A13,13,0,0,0,312.52,493c-.44-.07-.9-.08-1.35-.13s-1.11,0-1.66-.06l-3.39-.11c-2.26-.1-4.53-.15-6.79-.29-4.53-.22-9.06-.6-13.59-.89a14.12,14.12,0,0,0-14.42,9.61c-.17.5-.28,1-.42,1.53s-.15,1-.24,1.56-.05,1.06-.06,1.59l0,1.7c.21,9,1.34,18.11,1.79,27.16.06,1.13.11,2.27.14,3.4l.11,1.41c.06.45.16.9.22,1.35a14.41,14.41,0,0,0,2.14,5,15.12,15.12,0,0,0,9.07,6.31c.48.11,1,.17,1.46.27s1.12.12,1.67.18l3.4.35c2.26.24,4.53.47,6.79.65C302,553.91,306.49,554.11,311,554.09Z" transform="translate(-193.27 -217.06)"/></svg>