<svg id="Layer_1" data-name="Layer 1" xmlns="http://www.w3.org/2000/svg" viewBox="0 0 197.3 83.01"><defs><style>.cls-1{fill:#fbf5aa;}.cls-2{fill:#f6891f;}.cls-3{fill:#fcdd00;}.cls-4{fill:#f6851f;}.cls-5{fill:#ffedb5;}.cls-6{fill:#ffcb05;}.cls-7{fill:#e09026;}.cls-8{fill:#fbab19;}.cls-9{fill:#fbad18;}.cls-10{fill:#383528;}</style></defs><rect class="cls-1" x="1.98" y="2" width="195.07" height="60.14" rx="4.94"/><path class="cls-2" d="M391.46,441.14l-31.37.07-31.37.2-62.74.72-31.37.37-15.69.19-7.84.09-3.92.05h-1a7.2,7.2,0,0,1-1.3-.15,6.49,6.49,0,0,1-2.41-1.05,6.71,6.71,0,0,1-2.75-4.36,5,5,0,0,1-.08-.66c0-.21,0-.45,0-.59v-2.95l-.06-7.84-.09-15.68,0-15.69,0-7.84a7,7,0,0,1,2-4.94,6.91,6.91,0,0,1,4.94-2.08l31.37.07,31.37.2,62.75.72,31.37.37,15.68.19,7.85.09,3.92.05a8.69,8.69,0,0,1,2,.14,5.18,5.18,0,0,1,4,4.27,13.43,13.43,0,0,1,.06,2v2l-.06,7.84-.09,15.68,0,15.69,0,7.84a5,5,0,0,1-5,5Zm0,0a4.93,4.93,0,0,0,4.92-5l0-7.84,0-15.69-.1-15.68-.05-7.84,0-2a12,12,0,0,0-.08-1.91,4.67,4.67,0,0,0-1.93-3.05,4.75,4.75,0,0,0-1.68-.73,8.37,8.37,0,0,0-1.89-.1l-3.92.05-7.85.09-15.68.19-31.37.37-62.75.72-31.37.2-31.37.07a3,3,0,0,0-3,3l0,7.84,0,15.69-.09,15.68-.06,7.84V436c0,.18,0,.27,0,.38s0,.21,0,.31a3.19,3.19,0,0,0,1.3,2.12,3.07,3.07,0,0,0,1.15.52,3.4,3.4,0,0,0,.64.09h.95l3.92,0,7.84.1,15.69.18,31.37.37,62.74.72,31.37.2Z" transform="translate(-199.35 -379)"/><polygon class="cls-3" points="180.09 61.39 165.03 77.59 142.62 80.71 123.37 69.29 116.28 48.68 124.66 28.52 144.6 18.24 166.76 22.66 180.78 39.7 180.09 61.39"/><path class="cls-4" d="M379.68,440.48c-1.06,1.44-2.16,2.89-3.28,4.33s-2.27,2.9-3.44,4.35c-2.34,2.9-4.77,5.79-7.24,8.68l-.38.44-.71.13-5.58,1q-2.78.5-5.58.91c-3.72.57-7.45,1.18-11.19,1.63l-.81.09-.63-.38c-1.59-1-3.16-2-4.73-3l-4.67-3.1c-3.1-2.09-6.17-4.23-9.28-6.29l-.39-.26-.09-.33c-.49-1.76-1-3.49-1.56-5.23s-1.09-3.47-1.67-5.19-1.19-3.43-1.79-5.15-1.24-3.41-1.88-5.11l-.11-.3.13-.34c1.31-3.4,2.53-6.83,3.75-10.26s2.42-6.88,3.67-10.3l.21-.58.69-.4c3.24-1.87,6.52-3.67,9.81-5.46l9.86-5.35.73-.4.93.16c3.7.67,7.41,1.34,11.11,2.07s7.38,1.5,11.06,2.31l.94.21.55.68c2.29,2.88,4.52,5.8,6.77,8.72,1.13,1.45,2.24,2.92,3.34,4.39l3.32,4.42.46.61-.05.6q-.45,5.58-1,11C380.55,433.41,380.16,437,379.68,440.48Zm-.46-.19c-.26-3.75-.42-7.39-.58-11s-.25-7.15-.32-10.66l.41,1.21-3.7-4.1c-1.23-1.37-2.46-2.74-3.67-4.13-2.42-2.77-4.86-5.53-7.24-8.33l1.49.89q-5.57-1-11.1-2.1c-3.7-.74-7.38-1.55-11.06-2.35l1.66-.23L335,404.42c-3.36,1.63-6.72,3.27-10.13,4.82l.9-1c-1.54,3.3-3.14,6.57-4.71,9.86s-3.15,6.57-4.64,9.9l0-.64c.55,1.74,1.08,3.47,1.67,5.19s1.14,3.45,1.75,5.16,1.23,3.42,1.89,5.12,1.29,3.4,2,5.08l-.49-.59c3.31,1.74,6.66,3.41,10,5.12l4.95,2.61c1.64.91,3.28,1.79,4.9,2.72l-1.44-.29c3.72-.59,7.47-1,11.21-1.49,1.87-.25,3.74-.46,5.62-.65l5.62-.6-1.09.57c2.56-2.51,5.15-5,7.84-7.51l4.08-3.76C376.35,442.81,377.76,441.55,379.22,440.29Z" transform="translate(-199.35 -379)"/><path class="cls-5" d="M324.15,445.31a14,14,0,0,1-1.42-2.24,19.29,19.29,0,0,1-1.06-2.32c-.3-.78-.57-1.58-.79-2.38a12,12,0,0,1-.48-2.46c-.14-1.68.1-3.45-.16-5.1a16.22,16.22,0,0,0-1.58-4.77l-.1-.21.18-.52c.5-1.38.94-2.78,1.47-4.13s1.09-2.7,1.67-4,1.15-2.67,1.74-4,1.22-2.64,1.88-3.93l.31-.6.52-.3c1.41-.79,2.83-1.56,4.28-2.29s2.88-1.45,4.35-2.14,3-1.35,4.46-2,3-1.23,4.59-1.75l.2.35c-1.21,1.12-2.47,2.16-3.75,3.16s-2.58,2-3.89,2.94-2.65,1.86-4,2.76-2.7,1.78-4.08,2.63l.84-.9c-.63,1.31-1.27,2.61-2,3.88s-1.39,2.55-2.1,3.82-1.42,2.53-2.19,3.77-1.59,2.45-2.38,3.68l.08-.73a16.21,16.21,0,0,0,.73,5c.51,1.59,1.52,3.06,2.15,4.63a11.85,11.85,0,0,1,.69,2.41c.16.82.28,1.64.36,2.48a19.63,19.63,0,0,1,.1,2.55,15,15,0,0,1-.26,2.63Z" transform="translate(-199.35 -379)"/><path class="cls-6" d="M342.21,446.35a22.29,22.29,0,0,1-3.3.86c-1.1.23-2.19.38-3.29.5s-2.2.19-3.3.22a20.23,20.23,0,0,1-3.3-.11l-1.73-.21.07-1.37c.13-2.56.67-5.14.63-7.68a32.51,32.51,0,0,0-.26-3.81c-.15-1.27-.44-2.54-.63-3.8s-.36-2.54-.48-3.82-.2-2.54-.27-3.82c-.14-2.54-.29-5.09-.24-7.65l.05-2.2,2.09.07c1.08,0,2.16.08,3.24.19s2.15.21,3.23.36,2.16.33,3.23.56a29.57,29.57,0,0,1,3.24.82v.4a29.63,29.63,0,0,1-3.24.83c-1.07.23-2.15.4-3.23.55s-2.16.27-3.23.37-2.16.16-3.24.19l2.14-2.14c.06,2.54-.1,5.07-.24,7.61-.07,1.26-.14,2.53-.26,3.8s-.32,2.54-.49,3.82a34.7,34.7,0,0,0-.14,7.62c.22,2.53,1,5,1.43,7.55L329,444.48a20.23,20.23,0,0,1,3.3-.11c1.1,0,2.2.11,3.3.22s2.19.27,3.29.5a22.29,22.29,0,0,1,3.3.86Z" transform="translate(-199.35 -379)"/><path class="cls-7" d="M350,438.25a22.29,22.29,0,0,1-3.3.86c-1.1.23-2.19.38-3.29.5s-2.2.19-3.3.22a20.23,20.23,0,0,1-3.3-.11l-1.73-.21.07-1.37c.13-2.56.67-5.14.63-7.68a32.51,32.51,0,0,0-.26-3.81c-.15-1.27-.44-2.53-.63-3.8s-.36-2.54-.49-3.81-.19-2.55-.26-3.83c-.14-2.54-.29-5.09-.24-7.65l.05-2.2,2.09.07c1.08,0,2.16.08,3.23.19s2.16.21,3.24.36,2.15.33,3.23.56a29.57,29.57,0,0,1,3.24.82v.4a29.63,29.63,0,0,1-3.24.83c-1.08.23-2.15.41-3.23.55s-2.16.27-3.24.37-2.15.16-3.23.19l2.14-2.14c.06,2.54-.1,5.07-.24,7.61-.07,1.26-.14,2.53-.26,3.8s-.32,2.55-.49,3.82a34.7,34.7,0,0,0-.14,7.62c.22,2.53,1,5,1.43,7.55l-1.67-1.58a20.23,20.23,0,0,1,3.3-.11c1.1,0,2.2.11,3.3.22s2.19.27,3.29.5a22.29,22.29,0,0,1,3.3.86Z" transform="translate(-199.35 -379)"/><path class="cls-5" d="M376.39,419.36a12.88,12.88,0,0,1,.78,2.45,17.06,17.06,0,0,1,.42,2.44c.09.81.14,1.62.15,2.42a11.56,11.56,0,0,1-.18,2.42c-.31,1.61-1,3.2-1.18,4.81a15.62,15.62,0,0,0,.29,4.86l.06.3-.4.46c-1.05,1.21-2.07,2.46-3.15,3.64s-2.18,2.33-3.29,3.48-2.23,2.28-3.36,3.41-2.28,2.23-3.45,3.3l-.54.49-.65.07c-1.62.18-3.24.34-4.87.44s-3.27.22-4.9.28-3.28.1-4.93.08-3.29,0-4.95-.19l-.06-.39c1.58-.56,3.16-1,4.75-1.46s3.18-.82,4.78-1.18,3.2-.69,4.8-1,3.22-.58,4.83-.83l-1.19.56c1.16-1.1,2.32-2.19,3.53-3.23s2.41-2.09,3.63-3.12,2.43-2.07,3.69-3.05,2.57-1.93,3.84-2.89l-.34.76a15.71,15.71,0,0,0,.59-4.84c-.08-1.61-.67-3.25-.88-4.87a11.61,11.61,0,0,1,0-2.43c.06-.8.16-1.61.3-2.41a19.12,19.12,0,0,1,.57-2.41,12.21,12.21,0,0,1,.94-2.39Z" transform="translate(-199.35 -379)"/><path class="cls-4" d="M356.17,451.27a22.29,22.29,0,0,1-3.3.86,31.09,31.09,0,0,1-3.29.49c-1.1.12-2.2.19-3.3.23a21.42,21.42,0,0,1-3.3-.11l-1.73-.21.07-1.38c.13-2.56.67-5.13.63-7.68a32.51,32.51,0,0,0-.26-3.81c-.15-1.26-.44-2.53-.63-3.8s-.36-2.54-.49-3.81-.19-2.54-.26-3.82c-.14-2.55-.29-5.1-.24-7.65l.05-2.21,2.09.07c1.08,0,2.16.09,3.23.2s2.16.2,3.24.36,2.15.33,3.23.55a29.63,29.63,0,0,1,3.24.83v.4a29.63,29.63,0,0,1-3.24.83c-1.08.23-2.15.4-3.23.55s-2.16.27-3.24.36-2.15.16-3.23.2l2.14-2.14c.06,2.53-.1,5.07-.24,7.6-.07,1.27-.14,2.54-.26,3.81s-.32,2.54-.49,3.81a34.79,34.79,0,0,0-.14,7.63c.22,2.53,1,5,1.43,7.55L343,449.4a20.23,20.23,0,0,1,3.3-.11c1.1,0,2.2.1,3.3.22s2.19.26,3.29.49a21.16,21.16,0,0,1,3.3.87Z" transform="translate(-199.35 -379)"/><path class="cls-8" d="M365.43,437.8a22.54,22.54,0,0,1-3.29.87c-1.1.22-2.2.37-3.3.49s-2.2.19-3.3.22a20.23,20.23,0,0,1-3.3-.11l-1.73-.21.07-1.37c.13-2.56.67-5.14.63-7.68a32.51,32.51,0,0,0-.26-3.81c-.15-1.27-.43-2.53-.63-3.8s-.36-2.54-.48-3.81-.2-2.55-.27-3.82c-.14-2.55-.29-5.1-.24-7.65l.05-2.21,2.09.07c1.08,0,2.16.09,3.24.19s2.15.21,3.23.37,2.16.32,3.23.55a29.63,29.63,0,0,1,3.24.83v.4a29.57,29.57,0,0,1-3.24.82c-1.07.23-2.15.41-3.23.56s-2.16.26-3.23.36-2.16.16-3.24.19l2.14-2.13c.06,2.53-.1,5.06-.24,7.6-.07,1.27-.14,2.53-.26,3.8s-.32,2.55-.49,3.82a34.7,34.7,0,0,0-.14,7.62c.22,2.53,1,5,1.43,7.55l-1.67-1.58a20.23,20.23,0,0,1,3.3-.11c1.1,0,2.2.11,3.3.22s2.2.27,3.3.5a22.49,22.49,0,0,1,3.29.86Z" transform="translate(-199.35 -379)"/><path class="cls-9" d="M354.72,414a22.14,22.14,0,0,1,3.3-.83c1.1-.22,2.2-.35,3.3-.46s2.2-.17,3.3-.19a20.25,20.25,0,0,1,3.3.14l1.74.23-.09,1.37c-.16,2.56-.73,5.13-.71,7.67a32.48,32.48,0,0,0,.21,3.82c.14,1.27.42,2.53.6,3.8s.33,2.55.44,3.82.17,2.55.22,3.82c.12,2.55.25,5.1.16,7.66l-.07,2.2-2.09-.09c-1.07,0-2.15-.11-3.23-.23s-2.15-.22-3.23-.39-2.15-.35-3.23-.58a29.5,29.5,0,0,1-3.22-.86v-.4a29.44,29.44,0,0,1,3.24-.8c1.08-.22,2.16-.38,3.24-.52s2.16-.25,3.24-.33,2.16-.14,3.23-.17l-2.15,2.12c0-2.53.15-5.06.31-7.6.09-1.27.18-2.53.31-3.8s.34-2.54.52-3.81a34.73,34.73,0,0,0,.23-7.62c-.2-2.54-1-5.05-1.35-7.57l1.65,1.6a20.22,20.22,0,0,1-3.3.08c-1.1,0-2.2-.13-3.3-.26a31.64,31.64,0,0,1-3.29-.52,21.5,21.5,0,0,1-3.29-.9Z" transform="translate(-199.35 -379)"/><path class="cls-10" d="M347.22,400a14.52,14.52,0,0,1,2.63-.42,20.12,20.12,0,0,1,2.57-.05c.85,0,1.69.1,2.53.21a11.86,11.86,0,0,1,2.47.54c1.61.53,3.16,1.45,4.79,1.86a16.41,16.41,0,0,0,5.05.44l.29,0,.4.43c1.08,1.17,2.21,2.3,3.26,3.49s2.07,2.4,3.08,3.62,2,2.45,3,3.68,2,2.49,2.89,3.76l.46.62,0,.7c-.06,1.56-.13,3.13-.26,4.69s-.25,3.12-.43,4.69-.37,3.12-.62,4.68-.52,3.12-.89,4.68H378c-.33-1.57-.56-3.14-.76-4.71s-.36-3.13-.49-4.7-.22-3.13-.3-4.7-.11-3.13-.13-4.69l.43,1.31c-1-1.25-1.91-2.52-2.81-3.83s-1.8-2.6-2.69-3.91-1.78-2.62-2.62-4-1.62-2.74-2.44-4.1l.68.41a16.6,16.6,0,0,0-4.9-1.29c-1.68-.16-3.44.19-5.14.15a11.67,11.67,0,0,1-2.51-.33,23.93,23.93,0,0,1-2.45-.65,18.43,18.43,0,0,1-2.4-.91,13.42,13.42,0,0,1-2.34-1.28Z" transform="translate(-199.35 -379)"/><path class="cls-10" d="M361.2,454.82a14.07,14.07,0,0,1-2.32,1.3,18.63,18.63,0,0,1-2.4.94,23.25,23.25,0,0,1-2.44.68,11.68,11.68,0,0,1-2.5.35c-1.7.06-3.47-.26-5.15-.09a16.67,16.67,0,0,0-4.88,1.35l-.25.1-.52-.25c-1.45-.71-2.93-1.38-4.36-2.12s-2.84-1.52-4.24-2.31-2.8-1.58-4.19-2.39-2.76-1.64-4.12-2.51l-.63-.4-.23-.64c-.53-1.48-1.05-3-1.52-4.47s-.94-3-1.36-4.53-.83-3.05-1.19-4.6-.69-3.11-.93-4.7l.37-.15c.9,1.34,1.71,2.72,2.48,4.11s1.51,2.78,2.22,4.2,1.38,2.83,2,4.27,1.28,2.87,1.88,4.33l-.86-1c1.37.83,2.74,1.68,4.06,2.6s2.66,1.8,4,2.72,2.65,1.83,3.93,2.8,2.54,2,3.82,3l-.77-.14a16.65,16.65,0,0,0,5-.49c1.63-.43,3.17-1.37,4.78-1.92a12.2,12.2,0,0,1,2.46-.57,23.36,23.36,0,0,1,2.52-.23,20.06,20.06,0,0,1,2.57,0,14.52,14.52,0,0,1,2.64.39Z" transform="translate(-199.35 -379)"/></svg>