<svg id="Layer_1" data-name="Layer 1" xmlns="http://www.w3.org/2000/svg" viewBox="0 0 276.41 263.2"><defs><style>.cls-1{fill:#c54d9c;}.cls-2{fill:#4c3239;}.cls-3{fill:#91d6de;}</style></defs><rect class="cls-1" x="3.24" y="4.27" width="268.94" height="255.33" rx="19.06"/><path class="cls-2" d="M412.92,548.91l-31.75.15c-10.58.15-21.16.22-31.74.48-21.16.38-42.33,1-63.49,1.52-10.58.22-21.16.5-31.74.62l-15.87.24-15.88.11c-10.58.1-21.16.07-31.74,0h-7.93c-.61,0-1.46,0-2.23-.08a18.57,18.57,0,0,1-2.33-.3,22.74,22.74,0,0,1-4.5-1.31,22.43,22.43,0,0,1-12.58-13.1l-.39-1.1c-.11-.37-.2-.75-.29-1.13l-.28-1.13-.17-1.15c0-.39-.11-.77-.14-1.16l-.05-1.16c0-.37,0-.79,0-1.13l0-1,.13-7.94.26-15.87.61-31.75.58-31.74.35-31.74q.16-31.74-.06-63.49l-.14-15.87-.23-15.87c0-.67,0-1.31,0-2s0-1.45.11-2.17.17-1.43.32-2.14.31-1.42.56-2.1A21.08,21.08,0,0,1,182.1,291c21.16-.34,42.32-.78,63.48-1s42.33-.43,63.49-.56l63.49-.4c10.58-.09,21.16-.1,31.74-.1h7.94c.6,0,1.48,0,2.27.08a19.55,19.55,0,0,1,2.41.28,23.68,23.68,0,0,1,4.67,1.32,23.14,23.14,0,0,1,13.17,13.51l.4,1.14c.12.39.21.79.31,1.18l.29,1.18.18,1.2c.06.4.13.8.16,1.2l.07,1.21c0,.39,0,.83,0,1.18v1l0,7.93-.08,15.88c-.05,10.58-.1,21.16-.25,31.74l-.19,15.87-.29,15.87c-.17,10.58-.48,21.17-.74,31.75l-.8,31.74L433.4,480l-.33,15.87c-.26,10.59-.34,21.17-.5,31.75,0,.66,0,1.32,0,2s-.06,1.36-.14,2-.18,1.35-.35,2-.31,1.33-.55,2a19.61,19.61,0,0,1-18.57,13.28Zm0-.8a18.64,18.64,0,0,0,17.57-12.81c.23-.6.33-1.24.51-1.86s.2-1.27.3-1.9.07-1.28.1-1.92,0-1.32,0-2c-.16-10.58-.24-21.16-.49-31.75L430.55,480l-.4-15.87-.81-31.74c-.25-10.58-.56-21.17-.73-31.75l-.3-15.87-.18-15.87c-.16-10.58-.2-21.16-.25-31.74l-.09-15.88,0-7.93v-1c0-.32,0-.54-.05-.81l0-.77c0-.26-.08-.51-.11-.76l-.12-.76-.2-.75-.2-.74-.27-.72a14.89,14.89,0,0,0-8.35-8.55,14.55,14.55,0,0,0-3-.83,11.22,11.22,0,0,0-1.53-.19c-.53,0-1-.07-1.69-.05H404.3c-10.58,0-21.16,0-31.74-.1l-63.49-.4q-31.74-.19-63.49-.55c-21.16-.25-42.32-.69-63.48-1a17,17,0,0,0-12.64,5.37,17.17,17.17,0,0,0-3.69,6.06c-.23.55-.33,1.14-.51,1.72s-.21,1.17-.33,1.76-.08,1.2-.13,1.8,0,1.31,0,2l-.23,15.87-.14,15.87q-.25,31.74-.06,63.49l.35,31.74.58,31.74.61,31.75.27,15.87.12,7.94,0,1c0,.32,0,.56.05.84l.06.83c0,.27.09.54.13.81l.13.81.22.79.21.79.29.76a15.65,15.65,0,0,0,8.94,9,15.3,15.3,0,0,0,3.12.84,12.23,12.23,0,0,0,1.6.17c.55,0,1,.07,1.75.05h7.93c10.58,0,21.16-.06,31.74,0l15.88.1,15.87.24c10.58.13,21.16.41,31.74.63,21.16.5,42.33,1.13,63.49,1.52,10.58.26,21.16.32,31.74.48Z" transform="translate(-159.79 -288.9)"/><path class="cls-3" d="M231.69,506.06,195.81,400.38a12.28,12.28,0,0,1,8.53-15.14l51.54-32.68A12.27,12.27,0,0,1,271,361.08l39.66,142.06a12.29,12.29,0,0,1-8.53,15.13l-55.32-3.68A12.27,12.27,0,0,1,231.69,506.06Z" transform="translate(-159.79 -288.9)"/><path class="cls-2" d="M231.07,506.26q-5.22-15.51-11.91-30.57c-4.43-10-9.13-20-13.33-30.12s-7.91-20.38-11.22-30.77c-.81-2.6-1.62-5.21-2.38-7.82l-1.14-3.93-.27-1c-.1-.35-.28-1.1-.34-1.5a16.63,16.63,0,0,1-.26-2.9A17.11,17.11,0,0,1,193.88,387a16.71,16.71,0,0,1,9.29-5.94l-1.17.52c4.54-2.35,9.14-4.59,13.64-7s9-4.83,13.36-7.43,8.67-5.33,12.9-8.14,8.43-5.71,12.53-8.74l.22-.16.5-.16a15.48,15.48,0,0,1,18.4,8,16,16,0,0,1,.72,1.72l.5,1.49.92,2.76L283,386c2.37,7.39,4.77,14.77,7,22.19l6.73,22.27,6.67,22.28c2.19,7.44,4.46,14.85,6.57,22.32s4.21,14.92,6.25,22.4l.75,2.81.19.7.23.92a20.81,20.81,0,0,1,.4,2.23,19.15,19.15,0,0,1-1.1,8.91,18.94,18.94,0,0,1-12.85,11.6l-1.21.33-1-.1q-6.9-.66-13.77-1.75c-4.59-.7-9.15-1.62-13.73-2.52s-9.13-1.89-13.7-2.8-9.15-1.63-13.74-2.2l.33,0a13.41,13.41,0,0,1-10-1.43,13.59,13.59,0,0,1-3.81-3.35A13,13,0,0,1,231.07,506.26Zm1.24-.39a11.53,11.53,0,0,0,2.09,4,11.24,11.24,0,0,0,3.46,2.9,11.61,11.61,0,0,0,4.29,1.3,10.92,10.92,0,0,0,4.4-.47l.12,0h.22c4.62,0,9.26-.09,13.91-.36s9.3-.62,14-1,9.3-.6,13.93-.68,9.27-.08,13.89.09l-2.21.22a5.6,5.6,0,0,0,3.6-3.59,5.47,5.47,0,0,0,.24-2.53c0-.21-.08-.42-.14-.63l-.34-1.19-.81-2.79c-2.13-7.45-4.24-14.91-6.26-22.4s-4-15-6-22.49l-5.83-22.52-5.77-22.53c-1.91-7.52-3.69-15.07-5.48-22.62l-5.17-22.71-.64-2.84-.3-1.31a10.34,10.34,0,0,0-.3-1,8.91,8.91,0,0,0-2.36-3.48,9.15,9.15,0,0,0-3.81-2.07,9.38,9.38,0,0,0-4.44-.06l.72-.32c-4.49,2.42-8.89,5-13.25,7.61s-8.65,5.34-12.86,8.2-8.36,5.81-12.41,8.92-8.09,6.25-12.14,9.35l-.22.17-.94.35a7.69,7.69,0,0,0-3.92,3.2,7.39,7.39,0,0,0-1.08,4.67,5.79,5.79,0,0,0,.22,1.16,3.36,3.36,0,0,0,.16.48l.38.95,1.49,3.82c1,2.55,1.94,5.11,2.88,7.67,3.7,10.27,7,20.65,9.82,31.21s5.13,21.24,7.71,31.85S228.77,495.55,232.31,505.87Z" transform="translate(-159.79 -288.9)"/><path class="cls-3" d="M241.72,482.88l-6.14-111.44a12.28,12.28,0,0,1,12.28-12.28l58.44-17.63a12.28,12.28,0,0,1,12.28,12.29V501.3a12.28,12.28,0,0,1-12.28,12.28L254,495.17A12.28,12.28,0,0,1,241.72,482.88Z" transform="translate(-159.79 -288.9)"/><path class="cls-2" d="M241.07,482.9q-.85-16.33-3.25-32.64c-1.56-10.86-3.42-21.72-4.74-32.59s-2.14-21.76-2.53-32.66c-.08-2.72-.16-5.45-.19-8.18l0-4.09v-1c0-.36,0-1.13.08-1.54a16.54,16.54,0,0,1,.53-2.86,17.09,17.09,0,0,1,6.39-9.29,16.74,16.74,0,0,1,10.54-3.23l-1.25.19c5-1,10-2,15-3.07s9.95-2.23,14.86-3.56,9.78-2.8,14.62-4.37,9.65-3.23,14.42-5.05l.25-.09.53,0a15.43,15.43,0,0,1,12.56,5.94,15.74,15.74,0,0,1,3,6.69c.1.61.19,1.23.23,1.85l.08,1.56.14,2.91L323.47,381c.3,7.75.62,15.51.8,23.26l.5,23.26.44,23.26c.1,7.75.3,15.5.31,23.26s.05,15.5,0,23.25l0,2.91V501l0,.94a18.95,18.95,0,0,1-19.16,18.27H305l-.93-.37q-6.48-2.49-12.8-5.38c-4.23-1.91-8.38-4-12.54-6.12s-8.29-4.28-12.45-6.38-8.38-4-12.64-5.82l.32.06a13.34,13.34,0,0,1-12-8.31A13,13,0,0,1,241.07,482.9Zm1.3,0a11.59,11.59,0,0,0,.93,4.45,11.08,11.08,0,0,0,2.55,3.72,11.57,11.57,0,0,0,3.78,2.4,10.73,10.73,0,0,0,4.37.73h.12l.21.06c4.45,1.28,9,2.4,13.5,3.39s9.13,1.91,13.7,2.83,9.12,1.93,13.61,3.09,8.95,2.41,13.35,3.82L306.3,507a5.58,5.58,0,0,0,4.44-2.49,5.46,5.46,0,0,0,.9-2.37c0-.21,0-.43,0-.64v-1.24l0-2.91c-.05-7.75-.07-15.5,0-23.25s.22-15.51.32-23.26l.43-23.26.5-23.26c.18-7.75.51-15.51.81-23.26l1.13-23.26.14-2.91.06-1.34a9,9,0,0,0,0-1,8.9,8.9,0,0,0-1.34-4,9,9,0,0,0-3.11-3,9.34,9.34,0,0,0-4.26-1.25l.78-.12c-5,1.13-9.9,2.41-14.8,3.77s-9.78,2.82-14.6,4.44-9.62,3.35-14.35,5.25-9.47,3.85-14.21,5.74l-.25.11-1,.08a7.77,7.77,0,0,0-4.63,2,7.42,7.42,0,0,0-2.3,4.21,6.64,6.64,0,0,0-.1,1.18,4.9,4.9,0,0,0,0,.5l.11,1,.41,4.08c.27,2.72.49,5.44.71,8.16.8,10.89,1.23,21.79,1.07,32.7s-.77,21.84-1.14,32.76S241.74,472,242.37,482.87Z" transform="translate(-159.79 -288.9)"/><path class="cls-3" d="M265.29,470.15l22-126.41c1.8-7.58,10.08-12.11,18.49-10.11l77.17-2.49c8.41,2,13.77,9.77,12,17.36L355.74,513.39c-1.8,7.58-10.09,12.11-18.5,10.11l-60-36C268.85,485.5,263.49,477.73,265.29,470.15Z" transform="translate(-159.79 -288.9)"/><path class="cls-2" d="M264.66,470c2.2-12.45,3.85-25,5-37.67s2.13-25.36,3.61-38,3.45-25.09,5.83-37.5c.63-3.09,1.22-6.2,1.9-9.28l1-4.63a17.69,17.69,0,0,1,2.69-6.09,19.08,19.08,0,0,1,10.14-7.35,21.33,21.33,0,0,1,11.9-.15l-1.15-.11c6.45.24,12.9.61,19.34.77s12.88.32,19.32.27,12.86-.27,19.29-.59,12.85-.72,19.27-1.29l.26,0,.45.09a19.56,19.56,0,0,1,12.74,8.88,17,17,0,0,1,2.43,8,19.24,19.24,0,0,1-.05,2.15c-.05.36-.08.72-.14,1.07l-.18,1-.64,3.32-5.15,26.56c-1.79,8.84-3.56,17.68-5.46,26.49l-5.77,26.42-5.82,26.4c-2,8.8-3.87,17.61-5.94,26.38s-4.12,17.55-6.25,26.3l-.81,3.28-.3,1.13c-.12.41-.27.82-.4,1.23a20.14,20.14,0,0,1-1.06,2.37,20.43,20.43,0,0,1-6.74,7.47,23.11,23.11,0,0,1-18.3,3l-1.11-.28-.77-.48q-7.38-4.68-14.56-9.72c-4.79-3.34-9.47-6.87-14.17-10.38l-14-10.61q-7.05-5.24-14.33-10.1l.28.11a17.72,17.72,0,0,1-10-6.79,15.39,15.39,0,0,1-2.49-5.57A13.56,13.56,0,0,1,264.66,470Zm1.27.26a12.11,12.11,0,0,0,0,5.52,13.08,13.08,0,0,0,2.34,5,15,15,0,0,0,4.1,3.71,15.48,15.48,0,0,0,5.12,2l.11,0,.17.09c5.13,2.77,10.36,5.39,15.65,7.9l16,7.38c5.31,2.5,10.62,5,15.82,7.63s10.36,5.4,15.43,8.28l-1.87-.76a9.67,9.67,0,0,0,7.59-1.43,6.68,6.68,0,0,0,2.18-2.5,5.74,5.74,0,0,0,.3-.72c0-.13.08-.25.11-.37l.13-.52.75-3.29c2-8.78,4.09-17.56,6.24-26.31s4.38-17.48,6.56-26.23l6.68-26.2L376,403.32c2.26-8.72,4.65-17.42,7-26.11l7.35-26,.92-3.25.18-.66c.05-.2.08-.4.13-.6a9.89,9.89,0,0,0,.13-1.22,10.15,10.15,0,0,0-1.06-4.94,12.51,12.51,0,0,0-3.4-4.19,14.36,14.36,0,0,0-5-2.53l.71.08c-6.44-.15-12.87-.15-19.31-.05s-12.86.29-19.29.66-12.84.84-19.26,1.5-12.83,1.36-19.25,2l-.32,0-.82-.15a12.24,12.24,0,0,0-6.79.69,9.39,9.39,0,0,0-4.67,3.93,7.16,7.16,0,0,0-.92,2.62l-.62,4.71c-.4,3.14-.89,6.27-1.34,9.4-2,12.5-4.26,24.93-7.17,37.23S277,421,273.87,433.21,268.06,457.82,265.93,470.28Z" transform="translate(-159.79 -288.9)"/></svg>