<svg id="Layer_1" data-name="Layer 1" xmlns="http://www.w3.org/2000/svg" viewBox="0 0 197.3 85.66"><defs><style>.cls-1{fill:#84d1d6;}.cls-2,.cls-6{fill:#43469c;}.cls-3,.cls-4{fill:#7dcecd;}.cls-3{stroke:#43469c;stroke-linecap:round;stroke-linejoin:round;stroke-width:3px;}.cls-5{fill:#c7e2e0;}.cls-6{stroke:#c7e2e0;stroke-miterlimit:10;}</style></defs><rect class="cls-1" x="1.98" y="2" width="195.07" height="60.14" rx="4.94"/><path class="cls-2" d="M391.46,439.81l-31.37.08-31.37.2-62.74.72-31.37.37-15.69.18-7.84.1-3.92,0h-1a6.39,6.39,0,0,1-1.3-.14,6.84,6.84,0,0,1-2.41-1.05,6.73,6.73,0,0,1-2.75-4.36,5,5,0,0,1-.08-.66c0-.22,0-.46,0-.6v-2.94l-.06-7.84-.09-15.69,0-15.68,0-7.85a6.93,6.93,0,0,1,6.92-7l31.37.07,31.37.2,62.75.73,31.37.37,15.68.18,7.85.1,3.92,0a9.28,9.28,0,0,1,2,.14,5.23,5.23,0,0,1,4,4.27,13.57,13.57,0,0,1,.06,2v2l-.06,7.84-.09,15.69,0,15.68,0,7.85a5,5,0,0,1-5,5Zm0,0a4.92,4.92,0,0,0,4.92-5l0-7.85,0-15.68-.1-15.69-.05-7.84,0-2a12.08,12.08,0,0,0-.08-1.92,4.67,4.67,0,0,0-1.93-3,4.42,4.42,0,0,0-1.68-.73,8.37,8.37,0,0,0-1.89-.1l-3.92,0-7.85.1-15.68.18-31.37.37L269,381.4l-31.37.2-31.37.07a3,3,0,0,0-3,3l0,7.85,0,15.68-.09,15.69-.06,7.84v2.94c0,.19,0,.28,0,.38s0,.21,0,.32a3.19,3.19,0,0,0,1.3,2.11,3.26,3.26,0,0,0,1.15.53,3.4,3.4,0,0,0,.64.08h.95l3.92.05,7.84.09,15.69.19,31.37.37,62.74.71,31.37.21Z" transform="translate(-199.35 -377.67)"/><polyline class="cls-3" points="126.5 29.42 117.15 38.94 134.18 43.78 139.79 44.68 153.65 44.68 158.47 43.78 177.06 39.83 167.26 29.42"/><polygon class="cls-4" points="145.18 85.46 116.16 39.25 136.11 44.6 157.87 44.73 176.46 40.38 145.18 85.46"/><path class="cls-2" d="M344.53,463.33c-2.45-3.35-5-6.93-7.56-10.55s-5.19-7.42-7.79-11.27l-3.88-5.83c-1.25-2-2.54-3.94-3.74-6-2.45-4-4.7-8.18-6.93-12.23l-.05-.09a1,1,0,0,1,1.2-1.46l4.92,1.59c1.65.49,3.29,1,4.95,1.47s3.31.95,5,1.36,3.33.87,5,1.27l-.18,0c1.81,0,3.63-.08,5.44-.16l5.44-.21c3.63-.16,7.26-.34,10.89-.45l-.39,0c6.15-1.66,12.34-3.17,18.5-4.75a2,2,0,0,1,2.48,1.47,2,2,0,0,1-.27,1.63l-.05.08c-1.3,2-2.63,3.93-4,5.86s-2.7,3.9-4.11,5.8l-4.18,5.72L361,442.2C355.35,449.6,349.75,456.66,344.53,463.33Zm0-.4L359.35,439l3.59-5.67,3.64-5.55c1.2-1.86,2.46-3.65,3.71-5.47s2.52-3.62,3.83-5.41l2.16,3.18c-6.23,1.31-12.44,2.7-18.69,3.93l-.11,0-.27,0c-3.63-.15-7.25-.38-10.88-.58l-5.44-.27c-1.81-.1-3.62-.18-5.44-.23h0l-.14,0c-1.65-.5-3.31-.95-5-1.41s-3.33-.88-5-1.31-3.35-.8-5-1.2l-5.05-1.1,1.14-1.55c2.61,3.65,5.2,7.21,7.59,10.88,1.22,1.81,2.35,3.71,3.51,5.57l3.38,5.72c2.24,3.86,4.47,7.8,6.73,11.84Z" transform="translate(-199.35 -377.67)"/><path class="cls-4" d="M344.72,461.29l12.5-37.05" transform="translate(-199.35 -377.67)"/><path class="cls-2" d="M344.53,461.22c.74-3.19,1.58-6.34,2.37-9.51s1.67-6.32,2.55-9.46c.44-1.57.81-3.16,1.21-4.75a32.77,32.77,0,0,1,1.54-4.64,48.66,48.66,0,0,1,2.12-4.44,29.27,29.27,0,0,1,2.71-4.25l.38.13a29.49,29.49,0,0,1-.42,5,47.87,47.87,0,0,1-1,4.82,32.68,32.68,0,0,1-1.58,4.62c-.65,1.5-1.32,3-1.92,4.51q-1.8,4.56-3.7,9.07c-1.29,3-2.53,6-3.88,9Z" transform="translate(-199.35 -377.67)"/><path class="cls-4" d="M335.19,422.81q4.49,18.92,8.95,37.82" transform="translate(-199.35 -377.67)"/><path class="cls-2" d="M335.39,422.76c1.06,3.08,2,6.18,3,9.27s1.92,6.21,2.83,9.32c.45,1.56,1,3.1,1.48,4.64a31.94,31.94,0,0,1,1.14,4.73,46,46,0,0,1,.54,4.86,29,29,0,0,1-.05,5l-.39.09a29.31,29.31,0,0,1-2.29-4.45,46.11,46.11,0,0,1-1.7-4.59,32,32,0,0,1-1.1-4.74c-.24-1.6-.46-3.22-.75-4.81q-.87-4.79-1.65-9.6c-.49-3.21-1-6.41-1.46-9.64Z" transform="translate(-199.35 -377.67)"/><polygon class="cls-4" points="156.17 32.44 165.87 28.78 156.17 25.12 136.76 25.12 127.06 28.78 136.76 32.44 156.17 32.44"/><path class="cls-2" d="M355.48,409.91c1.54-1,3.07-1.87,4.6-2.67.76-.42,1.52-.8,2.29-1.17s1.52-.75,2.29-1.1v3c-1.65-.51-3.3-1-4.92-1.63a44.43,44.43,0,0,1-4.79-2l.57.11c-3.24-.3-6.47-.89-9.7-1-1.62-.05-3.24,0-4.85.05s-3.24.24-4.85.41l.38-.07c-1.55.77-3.09,1.59-4.66,2.32s-3.16,1.41-4.75,2.1v-3.57c3.28,1.08,6.58,2.14,9.77,3.46l-.74-.14c1.58,0,3.17.11,4.76.21s3.19.22,4.8.37C348.9,408.89,352.14,409.26,355.48,409.91Zm.07.4a90.7,90.7,0,0,1-9.59,1.34c-1.63.15-3.27.28-4.91.37s-3.29.18-4.93.21a1.91,1.91,0,0,1-.64-.1l-.11,0c-3.27-1.12-6.45-2.49-9.63-3.85l-.15-.07a1.87,1.87,0,0,1,.15-3.5c1.65-.54,3.29-1.08,4.95-1.56s3.36-.89,5-1.34l.21-.06h.18c1.61.17,3.23.34,4.85.41s3.23.1,4.85.05c3.23-.08,6.46-.68,9.7-1a.74.74,0,0,1,.26,0l.31.08A45,45,0,0,1,361,403c1.61.63,3.2,1.31,4.78,2l.17.08a1.54,1.54,0,0,1,.78,2,1.57,1.57,0,0,1-1,.84c-.85.27-1.71.51-2.56.74s-1.71.46-2.56.66A48.89,48.89,0,0,1,355.55,410.31Z" transform="translate(-199.35 -377.67)"/><path class="cls-2" d="M345,456.72l3.69-32.48" transform="translate(-199.35 -377.67)"/><path class="cls-5" d="M344.84,456.69c0-2.74.09-5.47.13-8.21s.19-5.46.33-8.18c.07-1.37.06-2.74.08-4.11a23.13,23.13,0,0,1,.44-4.06,35.53,35.53,0,0,1,1.05-4,21.81,21.81,0,0,1,1.66-3.93l.4.05a20.94,20.94,0,0,1,.74,4.2,35.59,35.59,0,0,1,.13,4.12,23.08,23.08,0,0,1-.48,4.06c-.29,1.34-.6,2.67-.84,4-.48,2.69-1,5.37-1.52,8s-1.09,5.36-1.72,8Z" transform="translate(-199.35 -377.67)"/><path class="cls-2" d="M354,445.27q6-11.29,12-22.59" transform="translate(-199.35 -377.67)"/><path class="cls-5" d="M353.85,445.18c.71-2,1.53-4,2.29-6s1.61-4,2.46-5.93c.43-1,.79-2,1.17-3a14.11,14.11,0,0,1,1.48-2.83,22.16,22.16,0,0,1,2-2.55,14.15,14.15,0,0,1,2.57-2.26l.35.19a14.17,14.17,0,0,1-.43,3.39,20,20,0,0,1-1,3.1,13.66,13.66,0,0,1-1.51,2.82c-.62.88-1.26,1.74-1.84,2.64q-1.71,2.71-3.53,5.37c-1.23,1.76-2.42,3.54-3.7,5.28Z" transform="translate(-199.35 -377.67)"/><path class="cls-2" d="M336.78,444.13q-6-11.28-12.1-22.54" transform="translate(-199.35 -377.67)"/><path class="cls-5" d="M336.61,444.22c-1.29-1.72-2.49-3.5-3.73-5.25s-2.4-3.56-3.56-5.36c-.58-.89-1.22-1.76-1.85-2.63a15,15,0,0,1-1.53-2.81,22.41,22.41,0,0,1-1-3.1,14.16,14.16,0,0,1-.45-3.39l.36-.19a14.11,14.11,0,0,1,2.57,2.25,20.44,20.44,0,0,1,2,2.54A14.07,14.07,0,0,1,331,429.1c.39,1,.75,2,1.18,3,.86,2,1.7,3.93,2.5,5.92s1.59,4,2.32,6Z" transform="translate(-199.35 -377.67)"/><path class="cls-6" d="M315.9,415.39" transform="translate(-199.35 -377.67)"/><path class="cls-4" d="M336.78,409.8q-1,5.59-2,11.18" transform="translate(-199.35 -377.67)"/><path class="cls-2" d="M337,409.83c.15,1,.22,2,.3,2.94s.09,1.94.09,2.9.36,2-.1,2.87a5,5,0,0,1-.83,1.29A5.22,5.22,0,0,1,335,421l-.39-.07a5.27,5.27,0,0,1-.94-1.61,5,5,0,0,1-.34-1.5c-.13-1,.56-1.82.89-2.73s.69-1.8,1.09-2.69.8-1.78,1.28-2.66Z" transform="translate(-199.35 -377.67)"/><path class="cls-4" d="M355.27,410.07q1.16,5.56,2.3,11.12" transform="translate(-199.35 -377.67)"/><path class="cls-2" d="M355.47,410c.5.86.93,1.74,1.36,2.62s.8,1.76,1.16,2.66,1.07,1.71,1,2.7a4.91,4.91,0,0,1-.29,1.51,5.31,5.31,0,0,1-.89,1.63l-.4.08a5.28,5.28,0,0,1-1.47-1.14,5,5,0,0,1-.86-1.27c-.49-.87-.16-1.91-.19-2.87s0-1.93,0-2.9.09-1.95.21-2.94Z" transform="translate(-199.35 -377.67)"/><path class="cls-2" d="M347.55,412.63l1.18,7.46" transform="translate(-199.35 -377.67)"/><path class="cls-5" d="M347.75,412.6a20,20,0,0,1,1.08,1.74,18.31,18.31,0,0,1,.89,1.77c.27.6.89,1.13.69,1.8a2.91,2.91,0,0,1-.44,1,4.17,4.17,0,0,1-1,1.12l-.4.06a4.34,4.34,0,0,1-1.34-.74,3.1,3.1,0,0,1-.73-.84c-.39-.58,0-1.28.1-1.93s.17-1.3.3-2,.28-1.32.49-2Z" transform="translate(-199.35 -377.67)"/><path class="cls-2" d="M344,405.66l14,1.59" transform="translate(-199.35 -377.67)"/><path class="cls-5" d="M344,405.46c1.21-.18,2.41-.29,3.6-.4s2.39-.16,3.58-.2,2.42-.43,3.55,0a7.17,7.17,0,0,1,1.69.79,6.22,6.22,0,0,1,1.62,1.4l-.05.39a6.24,6.24,0,0,1-1.89,1,7.51,7.51,0,0,1-1.82.39c-1.2.16-2.31-.5-3.46-.8s-2.3-.63-3.44-1-2.29-.74-3.42-1.19Z" transform="translate(-199.35 -377.67)"/><path class="cls-2" d="M322.67,415.39l5.36-5.52" transform="translate(-199.35 -377.67)"/><path class="cls-5" d="M322.53,415.25c.22-.68.49-1.31.76-1.94s.59-1.22.91-1.8.4-1.4,1.06-1.66a2.91,2.91,0,0,1,1.09-.27,4.2,4.2,0,0,1,1.54.15l.29.28a4.08,4.08,0,0,1,.19,1.53,2.79,2.79,0,0,1-.24,1.1c-.23.67-1.06.76-1.63,1.1s-1.16.67-1.77,1-1.24.58-1.92.82Z" transform="translate(-199.35 -377.67)"/><path class="cls-2" d="M364.36,410.71l3.31,5.61" transform="translate(-199.35 -377.67)"/><path class="cls-5" d="M364.53,410.61a16.63,16.63,0,0,1,1.52,1,14.45,14.45,0,0,1,1.34,1.09c.42.39,1.16.58,1.17,1.2a2.44,2.44,0,0,1-.09,1,4.12,4.12,0,0,1-.63,1.31l-.34.2a4.32,4.32,0,0,1-1.46-.08,2.53,2.53,0,0,1-.92-.4c-.54-.32-.35-1.06-.48-1.61a13.26,13.26,0,0,1-.31-1.71,15.09,15.09,0,0,1-.14-1.81Z" transform="translate(-199.35 -377.67)"/></svg>