<svg id="Layer_1" data-name="Layer 1" xmlns="http://www.w3.org/2000/svg" viewBox="0 0 102.75 94.21"><defs><style>.cls-1{fill:#f2db7b;}.cls-2{fill:#4c3239;}.cls-3{fill:#eca12a;}</style></defs><rect class="cls-1" x="50.29" y="31.93" width="48.26" height="42.83" rx="19.06"/><path class="cls-2" d="M326.11,448.56a68.24,68.24,0,0,0-9.34.61c-.75.12-1.6.19-2.44.26s-1.69,0-2.55.06a21.46,21.46,0,0,1-5.16-.93,18.82,18.82,0,0,1-4.87-2.34,18.62,18.62,0,0,1-7.92-14,17.78,17.78,0,0,1,0-2.73c0-.48.07-.83.12-1.23l.14-1.17.31-2.33c.1-.78.28-1.72.43-2.55a25.27,25.27,0,0,1,11.55-15.87,24.36,24.36,0,0,1,9.61-3.25c3.11-.37,6.22-.76,9.34-1a23.16,23.16,0,0,1,2.6-.1,25.49,25.49,0,0,1,2.75.23,22.76,22.76,0,0,1,5.34,1.58,21.92,21.92,0,0,1,13.18,17.27,22.44,22.44,0,0,1,.18,2.84c0,.51,0,.85,0,1.25l-.05,1.17-.11,2.33c0,.36-.05.86-.1,1.32l-.16,1.4a19.34,19.34,0,0,1-4.78,9.8,22.9,22.9,0,0,1-8.56,5.67A27.22,27.22,0,0,1,326.11,448.56Zm0-.8a14.82,14.82,0,0,0,8.47-2.79,16.35,16.35,0,0,0,5.16-6.74,21.23,21.23,0,0,0,1.48-7.6l-.07-1.95-.1-2.33-.05-1.17c0-.38,0-.82-.06-1.09a12.11,12.11,0,0,0-.21-1.8,16.83,16.83,0,0,0-5-9.48,16.21,16.21,0,0,0-3-2.18,16.9,16.9,0,0,0-3.48-1.44c-.62-.11-1.24-.31-1.87-.39s-1.23-.2-2.06-.25c-3.12-.27-6.23-.67-9.34-1a15.48,15.48,0,0,0-8.34,1.24,15.2,15.2,0,0,0-6.42,5.73,14.75,14.75,0,0,0-2,8.2c.08.73.12,1.33.23,2.12l.31,2.33.15,1.17a10.32,10.32,0,0,0,.15,1.11c.12.65.2,1.29.38,1.91a21.34,21.34,0,0,0,3.05,6.93l.52.8.6.75c.35.55.84,1,1.24,1.49a22.52,22.52,0,0,0,3,2.66,17.44,17.44,0,0,0,3.65,2.1c.67.21,1.36.51,2.07.67a19.9,19.9,0,0,0,2.22.42A66.69,66.69,0,0,0,326.11,447.76Z" transform="translate(-246.63 -373.4)"/><rect class="cls-3" x="58.19" y="2.06" width="32.47" height="36.48" rx="16.23"/><path class="cls-2" d="M321.05,412.28a26.74,26.74,0,0,1-7-1,19.07,19.07,0,0,1-6.79-3.38,14.54,14.54,0,0,1-4.65-6.51c-.18-.65-.41-1.3-.54-2a20,20,0,0,1-.27-2c0-.66-.05-1.42,0-2s.09-1.14.14-1.72.13-1.14.2-1.71.2-1.31.32-1.94.36-1.28.54-1.91.49-1.22.74-1.81a23,23,0,0,1,4.36-6.12,22.23,22.23,0,0,1,13-6.66,16.91,16.91,0,0,1,7.82.8,17.6,17.6,0,0,1,6.81,4.42,18.94,18.94,0,0,1,4.38,7.05c.19.67.42,1.34.57,2s.26,1.39.32,2.09c0,.35.05.7.06,1.06s0,.73,0,1c0,.57,0,1.14,0,1.71l0,1.72c0,.26,0,.65-.07,1l-.1,1c-.08.7-.25,1.38-.38,2.07s-.41,1.33-.62,2a15.6,15.6,0,0,1-4.86,6.48,19.42,19.42,0,0,1-6.84,3.37A25.27,25.27,0,0,1,321.05,412.28Zm0-.7a11.31,11.31,0,0,0,6.28-1.95,13.19,13.19,0,0,0,4.13-4.73,19.7,19.7,0,0,0,1.86-5.4l.2-1.34c0-.46.09-.9.09-1.34l0-1.41,0-1.72c0-.57,0-1.14,0-1.71,0-.32,0-.51,0-.73s0-.44,0-.66c0-.45-.1-.88-.15-1.32l-.26-1.3a13.43,13.43,0,0,0-2.33-4.83,15.68,15.68,0,0,0-4.16-3.68,15.21,15.21,0,0,0-5.51-2.09,12.15,12.15,0,0,0-6.19.6,11.88,11.88,0,0,0-5.12,3.73,11.28,11.28,0,0,0-2.36,5.76c0,.52-.08,1-.09,1.52s0,1,.06,1.49.11.93.19,1.51.14,1.14.19,1.71.11,1.15.14,1.72l.14,1.45.2,1.37.29,1.35a22.27,22.27,0,0,0,2.06,5.38,13.41,13.41,0,0,0,4.18,4.72A11.05,11.05,0,0,0,321.05,411.58Z" transform="translate(-246.63 -373.4)"/><rect class="cls-1" x="4.2" y="38.96" width="48.26" height="42.83" rx="19.06"/><path class="cls-2" d="M269.89,454.79a66.71,66.71,0,0,0,9.34-.62,20,20,0,0,0,2.22-.41c.71-.16,1.4-.46,2.07-.68a17.41,17.41,0,0,0,3.65-2.09,22.52,22.52,0,0,0,3-2.66c.4-.53.89-.95,1.24-1.5l.6-.75.52-.8a21.29,21.29,0,0,0,3.05-6.92c.18-.63.26-1.27.38-1.92a10.32,10.32,0,0,0,.15-1.11l.15-1.16.31-2.34c.11-.78.15-1.39.23-2.11a14.71,14.71,0,0,0-2-8.2,15.22,15.22,0,0,0-6.42-5.74,15.57,15.57,0,0,0-8.34-1.24c-3.11.37-6.22.76-9.34,1-.83.05-1.41.18-2.06.25s-1.25.29-1.87.4a16.36,16.36,0,0,0-3.48,1.44,15.71,15.71,0,0,0-3,2.17,17,17,0,0,0-2.36,2.81,16.49,16.49,0,0,0-2.64,6.67,12.09,12.09,0,0,0-.21,1.81c0,.26,0,.71-.06,1.08l-.05,1.17-.1,2.34-.07,1.94a21.24,21.24,0,0,0,1.48,7.61,16.26,16.26,0,0,0,5.16,6.73A14.91,14.91,0,0,0,269.89,454.79Zm0,.8a27.47,27.47,0,0,1-9.48-1.7,22.66,22.66,0,0,1-8.56-5.67,19.3,19.3,0,0,1-4.78-9.8l-.16-1.39c0-.47-.1-1-.1-1.32l-.11-2.34,0-1.17c0-.4,0-.73,0-1.25a22.56,22.56,0,0,1,.18-2.84A21.88,21.88,0,0,1,260,410.85a22.78,22.78,0,0,1,5.34-1.59,23.16,23.16,0,0,1,2.75-.22,26,26,0,0,1,2.6.09c3.12.27,6.23.67,9.34,1a24.52,24.52,0,0,1,9.61,3.25,25.34,25.34,0,0,1,11.55,15.87c.15.83.33,1.78.43,2.55l.31,2.34.14,1.16c.05.4.1.75.12,1.23a17.9,17.9,0,0,1,0,2.74,18.56,18.56,0,0,1-7.92,13.94,19.19,19.19,0,0,1-4.87,2.35,21.45,21.45,0,0,1-5.16.92c-.86,0-1.71,0-2.55-.05s-1.69-.15-2.44-.26A65.21,65.21,0,0,0,269.89,455.59Z" transform="translate(-246.63 -373.4)"/><rect class="cls-3" x="12.1" y="9.08" width="32.47" height="36.48" rx="16.23"/><path class="cls-2" d="M275,418.61a11.21,11.21,0,0,0,6.31-1.9,13.44,13.44,0,0,0,4.18-4.73,22,22,0,0,0,2.06-5.37l.29-1.36.2-1.37.14-1.44c0-.57.08-1.15.14-1.72s.13-1.15.19-1.72.11-1,.19-1.5,0-1,.06-1.49-.06-1-.09-1.53a11.35,11.35,0,0,0-2.36-5.76,11.86,11.86,0,0,0-5.12-3.72,12.16,12.16,0,0,0-6.19-.61,15.39,15.39,0,0,0-5.51,2.09,15.72,15.72,0,0,0-4.16,3.69A13.27,13.27,0,0,0,263,395l-.27,1.3c0,.44-.13.87-.14,1.31,0,.22,0,.44,0,.66s0,.41,0,.73c0,.57,0,1.15,0,1.72l0,1.72,0,1.4c0,.45.07.89.09,1.34l.2,1.34a19.58,19.58,0,0,0,1.86,5.4,13.14,13.14,0,0,0,4.13,4.74A11.39,11.39,0,0,0,275,418.61Zm0,.7a25.65,25.65,0,0,1-7.05-.93,19.28,19.28,0,0,1-6.84-3.38,15.51,15.51,0,0,1-4.86-6.47c-.21-.66-.46-1.32-.62-2s-.3-1.37-.38-2.06l-.1-1.05c0-.34-.06-.72-.07-1l-.05-1.72c0-.57,0-1.15,0-1.72,0-.26,0-.64,0-1s0-.7.06-1.05c.06-.7.21-1.4.32-2.09s.38-1.36.57-2a19,19,0,0,1,4.38-7.05,17.83,17.83,0,0,1,6.81-4.42,17,17,0,0,1,7.82-.8,22.24,22.24,0,0,1,13,6.67,23,23,0,0,1,4.36,6.11c.25.6.52,1.2.74,1.82s.4,1.26.54,1.91.24,1.36.32,1.93.15,1.15.2,1.72.11,1.15.14,1.72,0,1.33,0,2a20.16,20.16,0,0,1-.27,2c-.13.67-.36,1.32-.54,2a14.56,14.56,0,0,1-4.65,6.5,19.07,19.07,0,0,1-6.79,3.38A26.35,26.35,0,0,1,275,419.31Z" transform="translate(-246.63 -373.4)"/><rect class="cls-1" x="28.33" y="50.04" width="48.26" height="42.83" rx="19.06"/><path class="cls-2" d="M304.15,466.67a66.61,66.61,0,0,0-9.34.62c-.76.11-1.6.18-2.44.26s-1.69,0-2.56.05a21.15,21.15,0,0,1-5.16-.93,18.38,18.38,0,0,1-12.79-16.29,19.13,19.13,0,0,1,0-2.73,10.69,10.69,0,0,1,.12-1.23l.14-1.16.31-2.34c.1-.77.28-1.72.43-2.55a25.34,25.34,0,0,1,11.55-15.87,24.31,24.31,0,0,1,9.61-3.25c3.11-.37,6.22-.76,9.33-1,.72-.08,1.7-.09,2.61-.09a20.08,20.08,0,0,1,8.09,1.8,21.92,21.92,0,0,1,13.18,17.27,20.82,20.82,0,0,1,.17,2.84c0,.51,0,.85,0,1.25l-.05,1.17-.11,2.33c0,.36-.06.86-.11,1.32l-.15,1.4a19.5,19.5,0,0,1-4.78,9.8,22.74,22.74,0,0,1-8.56,5.67A27.26,27.26,0,0,1,304.15,466.67Zm0-.8a14.79,14.79,0,0,0,8.46-2.79,16.12,16.12,0,0,0,5.16-6.74,21.25,21.25,0,0,0,1.49-7.6l-.07-1.95-.1-2.33-.06-1.17c0-.37,0-.82,0-1.08a12.09,12.09,0,0,0-.21-1.81,16.95,16.95,0,0,0-5-9.48,15.78,15.78,0,0,0-3-2.17,16.28,16.28,0,0,0-3.47-1.44c-.62-.11-1.24-.32-1.87-.4s-1.23-.2-2.07-.25c-3.11-.27-6.22-.66-9.33-1a15.48,15.48,0,0,0-8.34,1.24,15.31,15.31,0,0,0-6.43,5.74,14.7,14.7,0,0,0-2,8.2c.08.72.12,1.33.23,2.11l.31,2.34.14,1.16c.05.38.09.81.16,1.11a17,17,0,0,0,.38,1.91,21.13,21.13,0,0,0,3,6.93l.52.8.59.75c.35.55.85,1,1.25,1.49a21.32,21.32,0,0,0,3,2.67,17.41,17.41,0,0,0,3.65,2.09c.67.22,1.35.51,2.07.68a22.55,22.55,0,0,0,2.22.41A65.12,65.12,0,0,0,304.15,465.87Z" transform="translate(-246.63 -373.4)"/><rect class="cls-3" x="36.22" y="20.17" width="32.47" height="36.48" rx="16.23"/><path class="cls-2" d="M299.08,430.4a26.28,26.28,0,0,1-7-1,19,19,0,0,1-6.79-3.38,14.56,14.56,0,0,1-4.65-6.5c-.19-.66-.41-1.31-.54-2a17.64,17.64,0,0,1-.27-2c0-.66-.05-1.42,0-2s.08-1.15.14-1.72.13-1.15.19-1.72.21-1.3.33-1.93.36-1.29.54-1.91.49-1.22.74-1.82a23.17,23.17,0,0,1,4.35-6.11,22.3,22.3,0,0,1,13-6.67,17.1,17.1,0,0,1,7.83.8,17.6,17.6,0,0,1,6.81,4.42,19.15,19.15,0,0,1,4.38,7.05c.19.68.42,1.35.57,2s.26,1.38.32,2.08c0,.36.05.71.06,1.06s0,.73,0,1c0,.57,0,1.14,0,1.72l-.06,1.72c0,.25,0,.64-.06,1l-.1,1.05c-.08.69-.25,1.38-.38,2.06s-.41,1.33-.63,2a15.37,15.37,0,0,1-4.85,6.48,19.33,19.33,0,0,1-6.84,3.37A25.31,25.31,0,0,1,299.08,430.4Zm0-.7a11.35,11.35,0,0,0,6.28-2,13.1,13.1,0,0,0,4.13-4.73,19.29,19.29,0,0,0,1.87-5.4l.2-1.34c0-.45.09-.89.09-1.34l0-1.4-.05-1.72c0-.58,0-1.15,0-1.72,0-.32,0-.5,0-.73s0-.44,0-.66c0-.44-.11-.87-.15-1.32l-.26-1.29a13.43,13.43,0,0,0-2.33-4.83,15.54,15.54,0,0,0-4.16-3.69,15.37,15.37,0,0,0-5.52-2.09,12.23,12.23,0,0,0-6.18.6,12,12,0,0,0-5.12,3.73,11.35,11.35,0,0,0-2.36,5.76c0,.52-.09,1-.1,1.52s0,1,.07,1.5.1.93.19,1.5.14,1.14.19,1.72.11,1.14.14,1.72L286,415l.21,1.37.29,1.36a22,22,0,0,0,2.06,5.37,13.44,13.44,0,0,0,4.18,4.73A11.2,11.2,0,0,0,299.08,429.7Z" transform="translate(-246.63 -373.4)"/></svg>