<svg id="Layer_1" data-name="Layer 1" xmlns="http://www.w3.org/2000/svg" viewBox="0 0 116.27 95.03"><defs><style>.cls-1{fill:#f7ec18;}.cls-2{fill:#4c3239;}.cls-3{fill:#fff8a5;}.cls-4{fill:#e23c2b;}.cls-5{fill:#f99f2a;}</style></defs><rect class="cls-1" x="246.63" y="353.84" width="58.38" height="90.61" transform="translate(-355.96 301.74) rotate(-88.84)"/><path class="cls-2" d="M230.22,427.13c8.21-.52,16.05-.89,23.75-1.22l11.41-.41q5.64-.17,11.2-.26c7.41-.09,14.74-.15,22,.08s14.56.89,22,1.55l-2.42,2.33c.44-4.85.84-9.71,1.16-14.57s.51-9.72.61-14.59.07-9.73,0-14.6-.23-9.73-.42-14.6l2.15,2.23c-7.56.28-15.12.61-22.67.73s-15.11.1-22.67.14-15.1,0-22.65-.14-15.1-.45-22.64-.8l4-3.88c-.27,4.63-.51,9.26-.86,13.94s-.7,9.37-1.16,14.17l-1.36,14.63Zm-.58.56c-.32-4.5-.59-9.17-.88-13.92s-.56-9.61-.77-14.55-.4-10-.57-15-.19-10.15-.26-15.25l0-3.85,4.09,0c7.55,0,15.1-.05,22.65.12s15.1.49,22.65.79,15.09.64,22.63,1.06,15.09,1.06,22.63,1.64l2.31.18-.17,2.06c-.38,4.86-.73,9.71-1,14.57s-.49,9.73-.57,14.59-.1,9.73,0,14.6.33,9.74.57,14.61l.11,2.21-2.53.12c-7.7.36-15.52.68-23.34.63s-15.57-.44-23.26-.84q-5.78-.33-11.45-.72l-11.24-.87C243.79,429.19,236.53,428.51,229.64,427.69Z" transform="translate(-227.11 -365.05)"/><path class="cls-3" d="M235.84,424.92a28.48,28.48,0,0,1-1.65-5.71,44,44,0,0,1-.7-5.66,45.82,45.82,0,0,1,0-5.62,24.29,24.29,0,0,1,1.18-5.57,51.62,51.62,0,0,0,1.55-5.55,25.76,25.76,0,0,0,.38-5.61c-.11-3.75-1.23-7.56-1.52-11.32l-.24-2.92,3.57-.31c2.68-.23,5.36-.38,8-.55l8-.48q8-.42,16.08-.17c5.37.16,10.73.46,16.1,1a156.71,156.71,0,0,1,16.12,2.2v.8a151.34,151.34,0,0,1-16,2.72c-5.35.67-10.7,1.14-16.06,1.47s-10.71.46-16.08.35l-8-.22c-2.68-.09-5.37-.15-8-.29l3.34-3.23c-.67,3.72-2.16,7.4-2.64,11.12A25.17,25.17,0,0,0,239,397a51.4,51.4,0,0,0,1,5.67,25,25,0,0,1,.63,5.66,44.09,44.09,0,0,1-.57,5.6,42.36,42.36,0,0,1-1.25,5.56,28.35,28.35,0,0,1-2.2,5.52Z" transform="translate(-227.11 -365.05)"/><path class="cls-2" d="M318.3,375a46.08,46.08,0,0,1-4,6.3c-1.46,2-3,3.82-4.62,5.61s-3.29,3.51-5.05,5.14a39.69,39.69,0,0,1-5.81,4.33c-2.06,1.3-4.2,2.52-6.16,3.94a40.24,40.24,0,0,0-5.45,4.71c-3.41,3.39-6.1,7.54-9.2,11.25l-1.59,1.9-2.75-1.84c-1.55-1-3-2.17-4.52-3.3l-4.43-3.38a86.09,86.09,0,0,1-8.39-7.34c-2.64-2.62-5.17-5.36-7.58-8.25a74.36,74.36,0,0,1-6.72-9.24l.53-.6a74.91,74.91,0,0,1,10,5.45c3.17,2,6.22,4.17,9.17,6.44a86,86,0,0,1,8.37,7.35l3.94,4c1.31,1.32,2.62,2.64,3.86,4.05l-4.34.06c3.93-2.82,8.27-5.2,11.9-8.35a40.87,40.87,0,0,0,5.1-5.09c1.56-1.85,2.93-3.9,4.39-5.86a39.43,39.43,0,0,1,4.74-5.47q2.64-2.45,5.5-4.66c1.9-1.48,3.87-2.88,5.93-4.19a45.65,45.65,0,0,1,6.57-3.5Z" transform="translate(-227.11 -365.05)"/><circle class="cls-4" cx="90.92" cy="66.69" r="24.95"/><path class="cls-2" d="M343.37,431.75a38.51,38.51,0,0,1-1.36,9.93,28.22,28.22,0,0,1-4.54,9.51,22.15,22.15,0,0,1-8.54,6.88,22.65,22.65,0,0,1-10.9,2,24.86,24.86,0,0,1-10.4-3.2,33.46,33.46,0,0,1-8.16-6.53,34,34,0,0,1-5.74-8.49,31.46,31.46,0,0,1-2.84-10.06,25.43,25.43,0,0,1,6.82-20.32,27.26,27.26,0,0,1,20.32-8.9,26.56,26.56,0,0,1,11,2.59,23.41,23.41,0,0,1,8.49,7.11,28.87,28.87,0,0,1,4.52,9.56A37,37,0,0,1,343.37,431.75Zm-.8,0a18.51,18.51,0,0,0-2.49-9.14,21.11,21.11,0,0,0-6.29-6.62,29.47,29.47,0,0,0-7.7-3.71,24.42,24.42,0,0,0-8.06-1.21,25,25,0,0,0-7.95,1.49,22.25,22.25,0,0,0-7,4.22,24.61,24.61,0,0,0-5.12,6.65,24,24,0,0,0-2.67,8.32,19.91,19.91,0,0,0,1,9,19.32,19.32,0,0,0,5.08,7.7,18.85,18.85,0,0,0,8,4.28,25.81,25.81,0,0,0,8.71.6,32.81,32.81,0,0,0,8.18-1.84,33.23,33.23,0,0,0,7.65-3.93,21.51,21.51,0,0,0,6.28-6.68A18.12,18.12,0,0,0,342.57,431.75Z" transform="translate(-227.11 -365.05)"/><path class="cls-5" d="M311.5,444.27a17.53,17.53,0,0,1-9-1.86,17.27,17.27,0,0,1-4-2.71,10.85,10.85,0,0,1-3-4.17,11.45,11.45,0,0,1-.72-5.26,25.1,25.1,0,0,1,1-4.78c.79-2.94,1.68-5.71,2.31-8.64a11.45,11.45,0,0,1,2.42-4.77,13.36,13.36,0,0,1,4.31-3.2,19.67,19.67,0,0,1,9.77-2.08,23.69,23.69,0,0,1,9.08,2.53,20.66,20.66,0,0,1,7.18,5.79l-.37.71c-3.1,0-5.86-.28-8.52-.38s-5.18-.16-7.58-.09a34.69,34.69,0,0,0-6.81.51,18.82,18.82,0,0,0-3,1,7.82,7.82,0,0,0-2.73,1.86,11.78,11.78,0,0,0-3.51,7.15,6.47,6.47,0,0,0,.9,3.62,14.68,14.68,0,0,0,2.1,2.66c.74.78,1.43,1.58,2.18,2.46s1.63,1.74,2.53,2.66a65.27,65.27,0,0,1,5.79,6.22Z" transform="translate(-227.11 -365.05)"/></svg>