<svg id="Layer_1" data-name="Layer 1" xmlns="http://www.w3.org/2000/svg" viewBox="0 0 212.06 514.7"><defs><style>.cls-1{fill:#84d1d6;}.cls-2{fill:#43469c;}</style></defs><rect class="cls-1" x="7.48" y="7.5" width="198.34" height="506.04" rx="4.94"/><path class="cls-2" d="M392.86,676.69q-87.53,0-175,1l-10.94.12c-.94,0-1.76,0-2.79,0a6.12,6.12,0,0,1-5.36-3.62,5.84,5.84,0,0,1-.48-1.64,6.11,6.11,0,0,1-.08-.85v-.69l-.31-21.88-.64-43.76-1.49-87.51-1.49-87.52L193,342.86q-.51-43.75-.77-87.52l-.2-43.75,0-21.88V176a14.11,14.11,0,0,1,.22-2.74,12.38,12.38,0,0,1,5.66-8.27,12.57,12.57,0,0,1,6.55-1.87q87.51,0,175,1l10.94.12,1.37,0h1l.66,0a11.14,11.14,0,0,1,5.83,2,11.37,11.37,0,0,1,3.87,4.75,11.07,11.07,0,0,1,.81,3,11.44,11.44,0,0,1,.1,1.53v.68l-.32,21.88-.64,43.76-1.49,87.52L400.06,417l-1.23,87.52q-.51,43.75-.77,87.52l-.19,43.76,0,21.88,0,10.94v2.73a5.32,5.32,0,0,1-.53,2.66A5,5,0,0,1,392.86,676.69Zm0,0a5,5,0,0,0,4.4-2.74,5.25,5.25,0,0,0,.52-2.65v-2.73l0-10.94,0-21.88L397.53,592q-.25-43.75-.77-87.52L395.53,417,394,329.44l-1.5-87.52-.64-43.76-.32-21.88v-.68s0,.1,0,.16a1.55,1.55,0,0,0,.08.36,1.3,1.3,0,0,0,.44.59,1.39,1.39,0,0,0,.71.28l-2.42,0-10.94.12q-87.51,1-175,1a2.52,2.52,0,0,0,2.27-1.41,2.38,2.38,0,0,0,.23-.68,2,2,0,0,0,0-.34v3.06l0,10.94,0,21.88-.2,43.75q-.27,43.77-.77,87.52l-1.23,87.52-1.5,87.52-1.48,87.51-.64,43.76-.32,21.88v.69c0,.17,0,.34,0,.51a3.74,3.74,0,0,0,1.52,2.57,3.79,3.79,0,0,0,1.92.69c.8,0,1.8,0,2.68,0l10.94.12Q305.35,676.68,392.86,676.69Z" transform="translate(-191.97 -163.15)"/></svg>