<svg id="Layer_1" data-name="Layer 1" xmlns="http://www.w3.org/2000/svg" viewBox="0 0 238.93 199.01"><defs><style>.cls-1{fill:#6ebe45;}.cls-2{fill:#4c3239;}.cls-3{fill:#130e10;}</style></defs><rect class="cls-1" x="2.95" y="4.28" width="231.85" height="191.14" rx="19.06"/><path class="cls-2" d="M394.27,516.82c-16.94,0-33.89.21-50.83.62s-33.88,1-50.82,1.52c-8.48.22-16.95.5-25.42.63l-12.7.24-12.71.13c-8.47.07-16.94,0-25.41,0-4.24,0-8.48,0-12.71-.08l-3.19,0-1.86-.11c-.63,0-1.24-.18-1.86-.27a23.06,23.06,0,0,1-7-2.51,22.41,22.41,0,0,1-9.61-11,22.75,22.75,0,0,1-1.56-7.17c0-.59-.05-1.26,0-1.78l0-1.59.08-3.18.63-25.41.56-25.41q.21-12.71.35-25.42.17-25.41-.07-50.82L180,352.52l-.11-6.35,0-1.59c0-.53,0-1.14,0-1.7a23.05,23.05,0,0,1,.47-3.43,20.84,20.84,0,0,1,7.19-11.62,21.26,21.26,0,0,1,13-4.75c17-.33,33.89-.77,50.83-1s33.88-.42,50.83-.55L353,321.1c8.47-.09,17-.09,25.42-.09l12.7,0h3.19l1.94.1c.65,0,1.28.16,1.93.25a23,23,0,0,1,7.31,2.56,23.67,23.67,0,0,1,10.16,11.35,24.14,24.14,0,0,1,1.73,7.51l0,1c0,.32,0,.66,0,.9v1.59l0,3.17c-.05,8.48-.1,16.95-.25,25.42l-.18,12.7-.3,12.71c-.17,8.47-.48,16.94-.74,25.41l-.8,25.42-.4,12.7-.34,12.71q-.18,6.36-.28,12.71l-.11,6.35a24.92,24.92,0,0,1-.67,6.45,19.85,19.85,0,0,1-7,10.73A19.61,19.61,0,0,1,394.27,516.82Zm0-.81a18.67,18.67,0,0,0,11.48-4.07,18.17,18.17,0,0,0,6.45-10.25,23.81,23.81,0,0,0,.43-6.17l-.11-6.35q-.09-6.36-.28-12.71l-.34-12.71-.4-12.7-.8-25.42c-.26-8.47-.57-16.94-.74-25.41l-.3-12.71-.18-12.7c-.15-8.47-.2-16.94-.25-25.42l0-3.17v-1.59c0-.29,0-.48,0-.69l0-.62a15.54,15.54,0,0,0-1.16-4.8,15.22,15.22,0,0,0-6.58-7.15,15.48,15.48,0,0,0-4.63-1.58c-.41-.05-.8-.16-1.22-.17l-1.23-.07H378.44c-8.47,0-16.95,0-25.42-.1L302.2,329c-16.95-.13-33.89-.27-50.83-.55s-33.88-.68-50.83-1a17.1,17.1,0,0,0-16.83,12.8,17,17,0,0,0-.5,2.85c0,.49-.08.94-.09,1.47l0,1.59-.12,6.35-.13,12.71q-.26,25.41-.06,50.82c.08,8.47.21,16.95.34,25.42l.57,25.41.63,25.41.07,3.18,0,1.59c0,.54.06.92.09,1.39a16.25,16.25,0,0,0,1.33,5.14,16.44,16.44,0,0,0,7.12,7.55,16.07,16.07,0,0,0,4.93,1.63c.44,0,.86.15,1.3.15l1.3.05,3.17,0c4.23-.07,8.47-.07,12.71-.08,8.47,0,16.94-.05,25.41,0l12.71.13,12.7.24c8.47.13,16.94.41,25.42.63,16.94.49,33.88,1.13,50.82,1.52S377.33,516.05,394.27,516Z" transform="translate(-178.54 -320.99)"/><path class="cls-3" d="M261.66,385.18a41.69,41.69,0,0,1,10.74,8.08,28.27,28.27,0,0,1,6.72,12.3,33.26,33.26,0,0,1,.15,14.25A58,58,0,0,1,274.85,433a127.1,127.1,0,0,1-14.47,22.88c-2.75,3.52-5.58,6.93-8.43,10.27s-5.74,6.63-8.38,9.86a42.44,42.44,0,0,0-3.4,4.57,3.59,3.59,0,0,0-.35.73c0,.07,0,.06.06,0a3.07,3.07,0,0,0,.34-1.11,5.31,5.31,0,0,0,.05-.68,6.11,6.11,0,0,0-.05-1,7,7,0,0,0-.3-1.24,6.07,6.07,0,0,0-.65-1.33,6.66,6.66,0,0,0-.9-1.14,8,8,0,0,0-.7-.61,2.29,2.29,0,0,0-.24-.15,2.21,2.21,0,0,0-.43-.23l.31,0a6.86,6.86,0,0,0,.77,0,17.54,17.54,0,0,0,2.21-.28,43.67,43.67,0,0,0,5.31-1.39,115.45,115.45,0,0,0,11.31-4.45c3.79-1.7,7.57-3.55,11.33-5.48,15-7.77,29.73-16.7,44.13-26,7.18-4.66,14.28-9.45,21.24-14.35,3.47-2.46,6.9-5,10.23-7.5,1.66-1.27,3.29-2.56,4.86-3.85s3.1-2.6,4.37-3.82a17.94,17.94,0,0,0,1.42-1.49c.05-.05.06-.08,0,0a5.62,5.62,0,0,0-.48,1,7.33,7.33,0,0,0-.45,2c0,.31,0,.57,0,.91a8.27,8.27,0,0,0,3.15,6.31,7.16,7.16,0,0,0,1,.68,5.66,5.66,0,0,0,.85.43,7.33,7.33,0,0,0,2,.55,5,5,0,0,0,1.13,0h.06l-.22,0-.53.06c-.72.09-1.41.15-2.08.19-1.36.1-2.65.12-3.92.1A87.31,87.31,0,0,1,340.74,416a180.72,180.72,0,0,1-26.22-7.18c-4.22-1.5-8.41-3.08-12.53-4.79s-8.19-3.54-12.2-5.48a206.38,206.38,0,0,1-23.34-13.11,124.55,124.55,0,0,1-21-16.85q-2.38-2.42-4.55-5.05a49.72,49.72,0,0,1-4-5.54,31.62,31.62,0,0,1-4.95-12.68.86.86,0,0,1,.74-1,.87.87,0,0,1,.91.53v0a32.74,32.74,0,0,0,7,10.25,55.66,55.66,0,0,0,4.57,4.24q2.37,2,4.94,3.84a152.76,152.76,0,0,0,21.84,12.6,294,294,0,0,0,47.44,17.62,205.94,205.94,0,0,0,24.27,5.35c2,.31,4,.56,5.93.74s3.86.3,5.65.31c.9,0,1.78,0,2.58-.07.41,0,.81-.06,1.16-.11l.93-.1a12.7,12.7,0,0,1,2.75,0,10.67,10.67,0,0,1,2.84.74,10.08,10.08,0,0,1,1,.52,9.47,9.47,0,0,1,1.18.8,9.34,9.34,0,0,1,2.27,2.62,9.14,9.14,0,0,1,1.16,3.21,8.31,8.31,0,0,1,.13,1.36,10,10,0,0,1-.69,3.86,12.19,12.19,0,0,1-1.25,2.4c-.35.54-.66.95-.95,1.32a34.86,34.86,0,0,1-3,3.25c-1.87,1.77-3.65,3.25-5.45,4.71s-3.58,2.83-5.38,4.19c-3.59,2.69-7.19,5.27-10.83,7.8-7.25,5.05-14.63,9.83-22.1,14.49a513.29,513.29,0,0,1-46.16,25.82c-4,1.94-8.06,3.81-12.24,5.56a129.68,129.68,0,0,1-13,4.76,57.4,57.4,0,0,1-7.32,1.71,30.4,30.4,0,0,1-4.26.4,18.8,18.8,0,0,1-5.38-.57,13.63,13.63,0,0,1-3.44-1.44c-.3-.19-.61-.38-.91-.61a4,4,0,0,1-.37-.28c-.22-.19-.44-.38-.64-.59a8.23,8.23,0,0,1-1.17-1.45,8.79,8.79,0,0,1-.82-1.69,9.69,9.69,0,0,1-.4-1.63,8.92,8.92,0,0,1-.08-1.37c0-.36,0-.72.08-1.08a9.84,9.84,0,0,1,.78-2.67,13.45,13.45,0,0,1,.79-1.5,18,18,0,0,1,1.41-2,70.63,70.63,0,0,1,4.95-5.41c3.2-3.18,6.31-6.16,9.38-9.17s6.06-6,9-9.11A119.84,119.84,0,0,0,267.26,429a51.21,51.21,0,0,0,5.19-10.89,27.82,27.82,0,0,0,1.37-11.55,23.66,23.66,0,0,0-4.25-11,39.3,39.3,0,0,0-8.82-8.93h0a.86.86,0,0,1-.16-1.2A.84.84,0,0,1,261.66,385.18Z" transform="translate(-178.54 -320.99)"/></svg>