<svg id="Layer_1" data-name="Layer 1" xmlns="http://www.w3.org/2000/svg" viewBox="0 0 93.11 133.49"><defs><style>.cls-1{fill:#f2db7b;}.cls-2{fill:#4c3239;}.cls-3{fill:#eca12a;}</style></defs><rect class="cls-1" x="3.09" y="54.01" width="85.82" height="76.17" rx="19.06"/><path class="cls-2" d="M321.29,484.34c-6.07,0-12.13.2-18.2.61s-12.13,1-18.2,1.54c-3,.22-6.07.49-9.1.65l-2.29.11c-.89,0-1.79,0-2.67-.08a19.92,19.92,0,0,1-2.66-.43l-1.31-.3-1.28-.44a21.42,21.42,0,0,1-13.65-15.52c-.09-.44-.21-.87-.26-1.31l-.15-1.33a23.45,23.45,0,0,1-.07-2.65c.06-1.6.14-3.05.25-4.59l.63-9.1c.41-6.07.79-12.13.91-18.2,0-1.52.08-3,.08-4.55,0-.77,0-1.5,0-2.3a19.56,19.56,0,0,1,.19-2.41,21.22,21.22,0,0,1,3.4-9,17.15,17.15,0,0,1,1.48-1.94,17.52,17.52,0,0,1,1.69-1.76,23.91,23.91,0,0,1,1.88-1.59c.68-.46,1.34-.95,2.07-1.35a22,22,0,0,1,9.54-2.82c6.06-.34,12.13-.78,18.2-1s12.13-.42,18.2-.57l9.1-.23,2.29,0c.92,0,1.84,0,2.75.15a19.21,19.21,0,0,1,2.73.46l1.35.33,1.31.45A22.73,22.73,0,0,1,343.86,421a23.3,23.3,0,0,1,.69,5.51c0,1.63,0,3.06-.07,4.61-.07,3-.13,6.06-.25,9.1-.22,6.06-.69,12.13-1.22,18.2l-.42,4.55c-.07.77-.12,1.48-.22,2.31a20.36,20.36,0,0,1-.41,2.48l-.29,1.21c-.11.4-.26.79-.39,1.18a18.12,18.12,0,0,1-.95,2.27c-.33.75-.78,1.44-1.17,2.15s-.9,1.34-1.43,1.95a21.7,21.7,0,0,1-7.41,5.81A21.32,21.32,0,0,1,321.29,484.34Zm0-.8a18,18,0,0,0,8.49-2.26,16.84,16.84,0,0,0,6.17-6,16.33,16.33,0,0,0,2.39-8,15.56,15.56,0,0,0,0-2.05c0-.69-.13-1.5-.19-2.24l-.42-4.55c-.53-6.07-1-12.14-1.21-18.2-.12-3-.19-6.07-.25-9.1l-.1-4.49a14.52,14.52,0,0,0-.54-3.49,14.4,14.4,0,0,0-3.32-6.14,15.05,15.05,0,0,0-5.71-4.06l-.82-.33-.86-.24a11.21,11.21,0,0,0-1.74-.37c-.58-.12-1.19-.1-1.78-.17l-2.26-.05-9.1-.22c-6.07-.15-12.14-.3-18.2-.57s-12.14-.69-18.2-1a16.88,16.88,0,0,0-8,1.46,16.56,16.56,0,0,0-6.47,5.19c-.44.55-.78,1.17-1.18,1.76a18.64,18.64,0,0,0-.92,1.91,15.36,15.36,0,0,0-.69,2c-.08.34-.19.68-.26,1l-.17,1.05a15.14,15.14,0,0,0-.17,2.12c0,.72,0,1.51,0,2.26,0,1.51.05,3,.08,4.55.12,6.07.5,12.13.91,18.2l.63,9.1.28,4.51a17.46,17.46,0,0,0,.74,3.7,17.94,17.94,0,0,0,1.48,3.42,18.39,18.39,0,0,0,2.21,3,16.38,16.38,0,0,0,6,4.18c.29.11.57.22.86.35l.89.26a13.58,13.58,0,0,0,1.81.41c.61.14,1.24.15,1.87.24l2.26.11c3,.16,6.06.43,9.1.65,6.07.5,12.13,1.12,18.2,1.54S315.22,483.56,321.29,483.54Z" transform="translate(-251.45 -353.75)"/><rect class="cls-3" x="17.13" y="3.25" width="57.74" height="64.88" rx="16.23"/><path class="cls-2" d="M310.08,422.23c-4.53,0-9.06.17-13.58.53-2.27.18-4.53.42-6.8.65l-3.39.35c-.58.06-1.11.13-1.72.17s-1.29.08-1.93,0a17.7,17.7,0,0,1-7.55-2,17.89,17.89,0,0,1-9.29-12.54c-.09-.67-.2-1.33-.26-2s-.05-1.38,0-2c0-1.13.08-2.26.14-3.39.45-9.06,1.57-18.12,1.79-27.17l0-1.7.12-1.81c.1-.59.17-1.19.3-1.78s.27-1.17.46-1.75a18.58,18.58,0,0,1,9.24-10.82,18.39,18.39,0,0,1,7.2-2c4.53-.3,9.05-.68,13.58-.9,2.27-.14,4.53-.19,6.79-.29l3.4-.11c.58,0,1.09,0,1.74,0s1.36,0,2,.09a19.39,19.39,0,0,1,7.79,2.43,20.09,20.09,0,0,1,6.15,5.46,19.08,19.08,0,0,1,3.39,7.57c.11.68.24,1.37.3,2.06s.08,1.43.09,2.05l0,3.39c-.06,4.53-.16,9.06-.35,13.59s-.6,9.05-1.06,13.58l-.18,1.7c-.09.64-.18,1.27-.29,1.9s-.3,1.24-.48,1.84-.4,1.19-.66,1.76a18.57,18.57,0,0,1-16.95,11.06Zm0-.7a14.33,14.33,0,0,0,11.34-5.66,14,14,0,0,0,2.57-5.69c.1-.5.15-1,.22-1.51s0-1,.06-1.51l-.11-1.49L324,404c-.47-4.53-.88-9.05-1.07-13.58s-.28-9.06-.35-13.59v-3.39l-.07-1.35-.18-1.29a13,13,0,0,0-10.72-10.36c-.45-.08-.9-.09-1.35-.14s-1.11,0-1.66-.06l-3.4-.11c-2.26-.09-4.52-.15-6.79-.29-4.53-.21-9.05-.6-13.58-.89a14.12,14.12,0,0,0-14.42,9.61c-.18.5-.29,1-.42,1.53s-.16,1.05-.24,1.57-.05,1.06-.07,1.58l0,1.7c.21,9,1.34,18.11,1.79,27.17.06,1.13.11,2.26.14,3.39l.11,1.41c.06.45.16.9.23,1.35a14.33,14.33,0,0,0,2.14,5,15.07,15.07,0,0,0,9.06,6.31c.48.12,1,.17,1.47.27s1.11.12,1.67.18l3.39.36c2.27.23,4.53.46,6.8.64C301,421.36,305.55,421.55,310.08,421.53Z" transform="translate(-251.45 -353.75)"/></svg>