<svg id="Layer_1" data-name="Layer 1" xmlns="http://www.w3.org/2000/svg" viewBox="0 0 99.25 98.51"><defs><style>.cls-1{fill:#fcdd00;}.cls-2{fill:#f6851f;}.cls-3{fill:#ffedb5;}.cls-4{fill:#ffcb05;}.cls-5{fill:#e09026;}.cls-6{fill:#fbab19;}.cls-7{fill:#fbad18;}.cls-8{fill:#383528;}</style></defs><polygon class="cls-1" points="81.28 59.9 66.21 76.09 43.8 79.21 24.55 67.8 17.46 47.19 25.84 27.02 45.78 16.75 67.94 21.16 81.96 38.2 81.28 59.9"/><path class="cls-2" d="M329.88,431.24q-1.59,2.16-3.27,4.33c-1.14,1.44-2.28,2.89-3.45,4.34-2.34,2.9-4.77,5.79-7.23,8.68l-.38.45-.72.12-5.57,1c-1.86.33-3.72.64-5.58.91-3.73.57-7.45,1.18-11.2,1.63l-.81.1-.63-.39c-1.59-1-3.15-2-4.73-3l-4.67-3.1c-3.1-2.09-6.16-4.23-9.28-6.29l-.39-.26-.09-.33c-.49-1.75-1-3.49-1.56-5.23s-1.08-3.47-1.66-5.19-1.19-3.43-1.8-5.14-1.24-3.42-1.87-5.12l-.11-.3.13-.33c1.3-3.4,2.53-6.83,3.75-10.27s2.41-6.88,3.66-10.3l.21-.58.69-.4c3.25-1.87,6.53-3.66,9.81-5.46l9.86-5.35.73-.4.93.17c3.71.67,7.41,1.33,11.11,2.06s7.38,1.5,11.06,2.32l.95.2.54.69c2.29,2.88,4.53,5.8,6.78,8.71,1.13,1.45,2.23,2.93,3.34,4.4l3.31,4.41.46.62-.05.6c-.3,3.71-.64,7.4-1,11S330.36,427.76,329.88,431.24Zm-.46-.19c-.25-3.75-.42-7.4-.57-11s-.26-7.14-.33-10.66l.41,1.21-3.69-4.1c-1.23-1.37-2.47-2.74-3.67-4.13-2.43-2.76-4.86-5.52-7.25-8.32l1.49.89c-3.71-.66-7.41-1.37-11.1-2.1s-7.37-1.55-11-2.36l1.66-.23-10.08,4.92c-3.37,1.64-6.73,3.27-10.14,4.83l.91-1c-1.54,3.3-3.15,6.58-4.72,9.87s-3.15,6.57-4.64,9.89l0-.63c.55,1.73,1.08,3.47,1.67,5.19s1.14,3.45,1.76,5.16,1.22,3.42,1.88,5.11,1.29,3.4,2,5.08l-.48-.59c3.3,1.75,6.65,3.41,10,5.13l5,2.61c1.63.9,3.27,1.79,4.89,2.71l-1.44-.29c3.72-.59,7.47-1,11.21-1.49,1.87-.24,3.74-.45,5.62-.65l5.63-.59-1.1.56c2.56-2.5,5.15-5,7.84-7.51l4.09-3.76C326.55,433.56,328,432.31,329.42,431.05Z" transform="translate(-248.37 -371.24)"/><path class="cls-3" d="M274.35,436.06a14.16,14.16,0,0,1-1.42-2.23,21.86,21.86,0,0,1-1.06-2.32c-.3-.79-.57-1.58-.79-2.39a11.9,11.9,0,0,1-.48-2.46c-.13-1.68.1-3.45-.16-5.1a16.22,16.22,0,0,0-1.58-4.77l-.1-.21.19-.52c.49-1.37.93-2.77,1.46-4.13s1.1-2.69,1.67-4,1.15-2.67,1.75-4,1.22-2.63,1.87-3.93l.31-.6.53-.29c1.41-.79,2.82-1.56,4.27-2.29s2.89-1.46,4.36-2.14,2.94-1.36,4.45-2,3-1.23,4.59-1.74l.21.34c-1.22,1.12-2.48,2.16-3.76,3.17s-2.58,2-3.89,2.93-2.65,1.87-4,2.77-2.7,1.77-4.07,2.62l.83-.89c-.63,1.3-1.27,2.61-2,3.88s-1.39,2.54-2.11,3.81-1.41,2.54-2.18,3.78-1.6,2.44-2.39,3.67l.08-.73a16.53,16.53,0,0,0,.74,5c.51,1.59,1.51,3.07,2.15,4.63a12,12,0,0,1,.68,2.41q.24,1.23.36,2.49a19.41,19.41,0,0,1,.1,2.54,13.42,13.42,0,0,1-.26,2.64Z" transform="translate(-248.37 -371.24)"/><path class="cls-4" d="M292.41,437.1a21,21,0,0,1-3.29.87c-1.1.23-2.2.37-3.3.49s-2.2.19-3.3.22a20.11,20.11,0,0,1-3.29-.11l-1.74-.2.07-1.38c.13-2.56.67-5.13.63-7.68a30.48,30.48,0,0,0-.26-3.81c-.15-1.27-.43-2.53-.63-3.8s-.36-2.54-.48-3.81-.2-2.55-.27-3.82c-.14-2.55-.29-5.1-.23-7.65l0-2.21,2.09.07c1.08,0,2.16.09,3.24.19s2.15.21,3.23.37,2.16.32,3.24.55a30.06,30.06,0,0,1,3.23.83v.4a27.81,27.81,0,0,1-3.23.82c-1.08.23-2.16.41-3.24.56s-2.15.27-3.23.36-2.16.16-3.24.2l2.14-2.14c.06,2.53-.1,5.06-.24,7.6-.07,1.27-.14,2.54-.26,3.81s-.31,2.54-.48,3.81a34.11,34.11,0,0,0-.15,7.62c.23,2.54,1,5,1.43,7.56l-1.66-1.58a20.11,20.11,0,0,1,3.29-.11c1.1,0,2.2.1,3.3.22a31.28,31.28,0,0,1,3.3.49,22.16,22.16,0,0,1,3.29.86Z" transform="translate(-248.37 -371.24)"/><path class="cls-5" d="M300.18,429a21.34,21.34,0,0,1-3.29.87,31.28,31.28,0,0,1-3.3.49c-1.1.12-2.2.19-3.3.22a20.07,20.07,0,0,1-3.29-.11l-1.74-.2.07-1.38c.13-2.56.67-5.13.63-7.68a30.48,30.48,0,0,0-.26-3.81c-.15-1.27-.43-2.53-.63-3.8s-.36-2.54-.48-3.81-.2-2.55-.27-3.82c-.14-2.55-.29-5.1-.24-7.65l.05-2.21,2.09.07c1.08,0,2.16.09,3.24.2s2.15.2,3.23.36,2.16.32,3.24.55a30.06,30.06,0,0,1,3.23.83v.4a30.06,30.06,0,0,1-3.23.83c-1.08.22-2.16.4-3.24.55s-2.15.27-3.23.36-2.16.16-3.24.2l2.14-2.14c.06,2.53-.1,5.07-.24,7.6-.07,1.27-.14,2.54-.26,3.81s-.31,2.54-.49,3.81a34.71,34.71,0,0,0-.14,7.62c.23,2.54,1,5,1.43,7.56L287,427.14a20.07,20.07,0,0,1,3.29-.11c1.1,0,2.2.1,3.3.22a31.28,31.28,0,0,1,3.3.49,22.49,22.49,0,0,1,3.29.86Z" transform="translate(-248.37 -371.24)"/><path class="cls-3" d="M326.59,410.11a13.16,13.16,0,0,1,.79,2.45,19.12,19.12,0,0,1,.41,2.44q.13,1.22.15,2.43a11.61,11.61,0,0,1-.18,2.42c-.3,1.6-1,3.2-1.17,4.81a15.35,15.35,0,0,0,.28,4.86l.06.29-.4.47c-1,1.21-2.07,2.45-3.14,3.64s-2.19,2.33-3.3,3.47-2.23,2.29-3.36,3.41-2.28,2.23-3.45,3.31l-.53.49-.66.07c-1.62.17-3.24.33-4.87.44s-3.26.22-4.9.27-3.28.1-4.92.08-3.3,0-5-.18l-.05-.4c1.57-.56,3.15-1,4.74-1.45s3.18-.82,4.78-1.18,3.2-.69,4.81-1,3.21-.58,4.82-.82l-1.18.56c1.15-1.11,2.31-2.2,3.53-3.23s2.41-2.09,3.62-3.12,2.43-2.07,3.7-3.06,2.56-1.92,3.84-2.89l-.35.76a15,15,0,0,0,.59-4.83c-.08-1.62-.67-3.25-.87-4.88a10.32,10.32,0,0,1,0-2.42,22.18,22.18,0,0,1,.29-2.42,20.86,20.86,0,0,1,.57-2.4,13.24,13.24,0,0,1,.94-2.4Z" transform="translate(-248.37 -371.24)"/><path class="cls-2" d="M306.37,442a23.89,23.89,0,0,1-3.29.87c-1.1.22-2.2.37-3.3.49s-2.2.19-3.3.22a20.07,20.07,0,0,1-3.29-.11l-1.74-.21.07-1.37c.13-2.56.67-5.14.63-7.68a30.48,30.48,0,0,0-.26-3.81c-.15-1.27-.43-2.53-.63-3.8s-.36-2.54-.48-3.81-.2-2.55-.27-3.82c-.14-2.55-.29-5.1-.24-7.65l.05-2.21,2.09.07c1.08,0,2.16.09,3.24.19s2.15.21,3.23.37,2.16.32,3.24.55a27.87,27.87,0,0,1,3.23.83v.39a27.87,27.87,0,0,1-3.23.83c-1.08.23-2.16.41-3.24.55s-2.15.27-3.23.37-2.16.16-3.24.19l2.14-2.13c.06,2.53-.1,5.06-.24,7.6-.07,1.27-.14,2.53-.26,3.8s-.31,2.55-.49,3.82a34.7,34.7,0,0,0-.14,7.62c.23,2.53,1,5,1.43,7.55l-1.66-1.58a20.07,20.07,0,0,1,3.29-.11c1.1,0,2.2.11,3.3.22s2.2.27,3.3.5a22.49,22.49,0,0,1,3.29.86Z" transform="translate(-248.37 -371.24)"/><path class="cls-6" d="M315.63,428.56a21.85,21.85,0,0,1-3.29.86,31.28,31.28,0,0,1-3.3.49c-1.1.12-2.2.19-3.3.22a20.15,20.15,0,0,1-3.29-.11l-1.74-.2.07-1.38c.13-2.56.68-5.13.63-7.68a30.47,30.47,0,0,0-.25-3.81c-.15-1.26-.44-2.53-.64-3.8s-.36-2.54-.48-3.81-.19-2.55-.26-3.82c-.15-2.55-.3-5.1-.24-7.65l0-2.21,2.09.07c1.07,0,2.15.09,3.23.2s2.16.2,3.23.36,2.16.33,3.24.55a29.47,29.47,0,0,1,3.23.83v.4a29.47,29.47,0,0,1-3.23.83c-1.08.22-2.16.4-3.24.55s-2.15.27-3.23.36-2.16.16-3.23.2l2.13-2.14c.06,2.53-.09,5.07-.23,7.6-.07,1.27-.15,2.54-.27,3.81s-.31,2.54-.48,3.81a34.79,34.79,0,0,0-.15,7.63c.23,2.53,1,5,1.43,7.55l-1.66-1.58a20.15,20.15,0,0,1,3.29-.11c1.1,0,2.2.1,3.3.22a31.28,31.28,0,0,1,3.3.49,20.76,20.76,0,0,1,3.29.87Z" transform="translate(-248.37 -371.24)"/><path class="cls-7" d="M304.92,404.8a22.26,22.26,0,0,1,3.31-.83c1.1-.22,2.2-.36,3.3-.47s2.2-.16,3.3-.19a21.32,21.32,0,0,1,3.29.15l1.74.22-.09,1.38c-.16,2.56-.73,5.12-.71,7.67a30.42,30.42,0,0,0,.22,3.81c.13,1.27.41,2.54.59,3.81s.34,2.54.44,3.81.17,2.55.23,3.83c.11,2.55.24,5.1.16,7.65l-.08,2.2-2.08-.08c-1.08-.05-2.16-.11-3.24-.23s-2.15-.23-3.23-.4-2.15-.34-3.22-.58a29.07,29.07,0,0,1-3.23-.86v-.4a29.37,29.37,0,0,1,3.24-.79c1.09-.22,2.16-.39,3.24-.53s2.16-.24,3.24-.33,2.16-.14,3.24-.16l-2.16,2.11c0-2.53.15-5.06.32-7.59.08-1.27.17-2.54.3-3.81s.34-2.54.53-3.81a34.71,34.71,0,0,0,.22-7.62c-.2-2.53-1-5-1.35-7.56l1.65,1.59a20.22,20.22,0,0,1-3.3.08c-1.1,0-2.19-.13-3.29-.25s-2.2-.29-3.29-.53a22,22,0,0,1-3.29-.89Z" transform="translate(-248.37 -371.24)"/><path class="cls-8" d="M297.42,390.76a13.82,13.82,0,0,1,2.63-.42,20.18,20.18,0,0,1,2.57-.06c.85,0,1.7.1,2.53.21a12.39,12.39,0,0,1,2.47.54c1.61.54,3.16,1.45,4.8,1.87a16.67,16.67,0,0,0,5.05.43h.28l.4.43c1.08,1.16,2.21,2.3,3.26,3.49s2.07,2.4,3.08,3.62,2,2.44,3,3.67,2,2.49,2.9,3.77l.45.61,0,.7c-.05,1.57-.13,3.13-.26,4.69s-.25,3.13-.43,4.69-.37,3.13-.62,4.69-.52,3.12-.89,4.68h-.4c-.33-1.57-.56-3.13-.76-4.7s-.36-3.14-.49-4.7-.22-3.14-.29-4.7-.12-3.13-.13-4.7l.43,1.32c-1-1.26-1.92-2.52-2.81-3.83s-1.81-2.6-2.69-3.92-1.79-2.62-2.62-4-1.63-2.73-2.45-4.1l.69.42a16.45,16.45,0,0,0-4.9-1.29c-1.68-.16-3.45.18-5.15.14a11.74,11.74,0,0,1-2.51-.32c-.82-.18-1.64-.39-2.45-.65a20.06,20.06,0,0,1-2.4-.92,13.79,13.79,0,0,1-2.34-1.28Z" transform="translate(-248.37 -371.24)"/><path class="cls-8" d="M311.4,445.57a13.44,13.44,0,0,1-2.32,1.31,22.75,22.75,0,0,1-2.39.94c-.81.27-1.62.49-2.44.68a12.34,12.34,0,0,1-2.51.35c-1.7,0-3.47-.27-5.14-.09a16.63,16.63,0,0,0-4.89,1.34l-.25.11-.52-.25c-1.45-.72-2.93-1.38-4.36-2.13s-2.84-1.52-4.24-2.31-2.8-1.58-4.19-2.38-2.76-1.65-4.11-2.51l-.63-.41-.23-.63c-.54-1.48-1.06-3-1.53-4.48s-.94-3-1.36-4.53-.83-3.05-1.18-4.6-.7-3.11-.94-4.7l.38-.14c.89,1.34,1.7,2.71,2.47,4.1s1.51,2.79,2.22,4.2,1.38,2.84,2,4.27,1.28,2.88,1.88,4.33l-.86-1c1.37.84,2.74,1.69,4.06,2.6s2.66,1.81,4,2.73,2.65,1.82,3.93,2.8,2.55,2,3.82,3l-.77-.15a16.65,16.65,0,0,0,5-.49c1.63-.43,3.17-1.36,4.78-1.92a11.54,11.54,0,0,1,2.46-.56q1.25-.18,2.52-.24a18.39,18.39,0,0,1,2.57,0,13,13,0,0,1,2.64.39Z" transform="translate(-248.37 -371.24)"/><path class="cls-8" d="M287.47,449.27a9,9,0,0,1,.18,2.09,12.64,12.64,0,0,1-.17,2,16.89,16.89,0,0,1-.43,1.87,6.9,6.9,0,0,1-.73,1.76c-.67,1.11-1.69,2.09-2.24,3.25a9.7,9.7,0,0,0-.86,3.73l-.07,1.31-1.52-.75c-1.46-.71-2.93-1.38-4.36-2.12s-2.84-1.52-4.24-2.31-2.8-1.58-4.19-2.39-2.76-1.64-4.12-2.51l-2.18-1.39,1.72-1.84c1.92-2.06,3.92-4.05,6-5.94q1.56-1.44,3.21-2.79c1.1-.91,2.23-1.79,3.43-2.61l.3.27c-.68,1.28-1.42,2.5-2.19,3.7s-1.57,2.37-2.39,3.53c-1.64,2.31-3.38,4.53-5.2,6.68l-.46-3.23c1.37.83,2.73,1.68,4.06,2.6s2.66,1.8,4,2.72,2.64,1.83,3.93,2.8,2.54,2,3.82,3l-1.6.56a9.71,9.71,0,0,0,1.68-3.45c.3-1.24.12-2.65.3-3.93a6.77,6.77,0,0,1,.54-1.83,14.38,14.38,0,0,1,.84-1.72,13.31,13.31,0,0,1,1.1-1.63,8.92,8.92,0,0,1,1.45-1.51Z" transform="translate(-248.37 -371.24)"/><path class="cls-8" d="M310.59,449a8.22,8.22,0,0,1,1.6,1.35,11,11,0,0,1,1.26,1.5,16.49,16.49,0,0,1,1,1.63,7.16,7.16,0,0,1,.72,1.76c.32,1.26.29,2.68.72,3.88a9.6,9.6,0,0,0,2,3.25l.87,1-1.6.55c-1.53.53-3.05,1.1-4.58,1.58s-3.09.93-4.64,1.37-3.09.86-4.65,1.28-3.11.78-4.68,1.13l-2.53.56-.09-2.52c-.09-2.81-.08-5.63.06-8.46.07-1.42.16-2.83.31-4.25s.31-2.84.57-4.26l.4,0c.44,1.39.78,2.78,1.08,4.17s.57,2.79.8,4.18q.71,4.19,1.05,8.4l-2.61-2c1.56-.38,3.12-.74,4.71-1s3.15-.6,4.74-.89,3.16-.57,4.76-.8,3.21-.38,4.81-.58l-.73,1.52a9.74,9.74,0,0,0-1.25-3.62c-.67-1.09-1.79-2-2.57-3a7,7,0,0,1-.91-1.67,13.92,13.92,0,0,1-.62-1.82,12,12,0,0,1-.38-1.93,9,9,0,0,1,0-2.09Z" transform="translate(-248.37 -371.24)"/><path class="cls-8" d="M326.76,434.94a9,9,0,0,1,2.09.07,13.06,13.06,0,0,1,1.92.4,15.54,15.54,0,0,1,1.81.65,6.82,6.82,0,0,1,1.66.94c1,.79,1.88,1.92,3,2.6a9.59,9.59,0,0,0,3.61,1.3l1.29.22-.92,1.43c-.88,1.36-1.72,2.74-2.63,4.07s-1.84,2.64-2.79,3.94-1.9,2.6-2.87,3.88-2,2.55-3,3.79l-1.64,2-1.62-1.92c-1.82-2.16-3.55-4.38-5.19-6.69-.82-1.15-1.62-2.32-2.39-3.53s-1.51-2.42-2.18-3.71l.3-.26c1.19.82,2.32,1.7,3.42,2.61s2.17,1.84,3.21,2.79c2.11,1.9,4.11,3.89,6,6l-3.27.08c1-1.26,2-2.52,3.06-3.72s2.11-2.43,3.18-3.63,2.13-2.41,3.25-3.58,2.28-2.28,3.42-3.43l.36,1.65a9.68,9.68,0,0,0-3.22-2.08c-1.2-.44-2.62-.43-3.87-.76a7,7,0,0,1-1.75-.75,13.88,13.88,0,0,1-1.61-1.05,11.88,11.88,0,0,1-1.49-1.28,9,9,0,0,1-1.33-1.62Z" transform="translate(-248.37 -371.24)"/><path class="cls-8" d="M331.22,413.8a9,9,0,0,1,1.74-1.15,12.42,12.42,0,0,1,1.81-.79,15.3,15.3,0,0,1,1.84-.52,7.1,7.1,0,0,1,1.9-.2c1.29.05,2.65.48,3.92.41a9.68,9.68,0,0,0,3.7-1l1.18-.56.07,1.69c.07,1.62.19,3.23.22,4.84s0,3.22,0,4.83-.05,3.22-.09,4.83-.12,3.21-.23,4.81l-.19,2.58-2.43-.63c-2.73-.7-5.43-1.51-8.1-2.45-1.34-.46-2.67-.95-4-1.49s-2.64-1.1-3.93-1.76l.09-.39c1.45,0,2.88.05,4.3.15s2.83.24,4.24.42c2.81.33,5.59.79,8.35,1.36L343,430.7c.08-1.6.17-3.21.34-4.81s.31-3.2.49-4.79.34-3.2.58-4.8.53-3.18.8-4.78l1.25,1.14a9.46,9.46,0,0,0-3.83.17c-1.23.33-2.39,1.16-3.6,1.61a6.75,6.75,0,0,1-1.86.41,13.71,13.71,0,0,1-1.92.08,11.91,11.91,0,0,1-2-.18,9.38,9.38,0,0,1-2-.55Z" transform="translate(-248.37 -371.24)"/><path class="cls-8" d="M320.65,395.61a8.85,8.85,0,0,1,.55-2,11.2,11.2,0,0,1,.84-1.78,14.78,14.78,0,0,1,1-1.61,7.18,7.18,0,0,1,1.3-1.4c1-.81,2.31-1.38,3.22-2.28a9.51,9.51,0,0,0,2.1-3.21l.52-1.2,1.17,1.23c1.12,1.17,2.27,2.3,3.36,3.5s2.13,2.41,3.18,3.63,2.08,2.45,3.11,3.69,2,2.49,3,3.77L345.6,400l-2.25,1.14c-2.51,1.27-5.08,2.44-7.71,3.49-1.31.54-2.63,1-4,1.51s-2.71.91-4.11,1.26l-.19-.35c1.07-1,2.19-1.86,3.33-2.72s2.29-1.69,3.46-2.48c2.34-1.61,4.73-3.09,7.18-4.48l-.68,3.19c-1-1.26-2-2.53-2.91-3.84s-1.87-2.61-2.79-3.93-1.86-2.63-2.73-4-1.69-2.75-2.54-4.12l1.69,0a9.61,9.61,0,0,0-2.77,2.65c-.71,1.06-1,2.45-1.64,3.59a7.17,7.17,0,0,1-1.14,1.53,13.37,13.37,0,0,1-1.39,1.32,10.94,10.94,0,0,1-1.59,1.15,8.65,8.65,0,0,1-1.88.92Z" transform="translate(-248.37 -371.24)"/><path class="cls-8" d="M298.84,387.93a8.29,8.29,0,0,1-1-1.81,11.12,11.12,0,0,1-.67-1.85,13.68,13.68,0,0,1-.4-1.88,6.72,6.72,0,0,1-.07-1.9c.13-1.29.65-2.62.67-3.89a9.71,9.71,0,0,0-.79-3.75l-.48-1.22,1.69,0c1.62,0,3.24,0,4.85.1s3.21.19,4.82.32,3.2.26,4.8.4,3.2.34,4.79.56l2.57.35-.79,2.39c-.88,2.67-1.87,5.32-3,7.92-.55,1.3-1.13,2.6-1.75,3.88s-1.27,2.56-2,3.8l-.38-.11c.07-1.45.23-2.87.43-4.28s.43-2.81.7-4.2c.51-2.79,1.16-5.54,1.91-8.25l1.77,2.74c-1.59-.19-3.19-.38-4.77-.66s-3.17-.52-4.76-.8-3.17-.55-4.74-.9-3.15-.74-4.72-1.11l1.22-1.18a9.4,9.4,0,0,0-.08,3.84c.24,1.25,1,2.45,1.37,3.7a6.74,6.74,0,0,1,.28,1.88,15.38,15.38,0,0,1,0,1.92,12.07,12.07,0,0,1-.32,1.94,9,9,0,0,1-.68,2Z" transform="translate(-248.37 -371.24)"/><path class="cls-8" d="M278.83,395.5a8.66,8.66,0,0,1-1.94-.79,12.32,12.32,0,0,1-1.67-1,14.5,14.5,0,0,1-1.47-1.23,6.85,6.85,0,0,1-1.23-1.45c-.69-1.1-1.1-2.46-1.88-3.47a9.63,9.63,0,0,0-2.94-2.46l-1.13-.66,1.35-1c1.3-1,2.56-2,3.87-2.92s2.65-1.84,4-2.73,2.68-1.78,4-2.65,2.71-1.71,4.1-2.53l2.23-1.31.86,2.37c1,2.65,1.82,5.33,2.56,8.07.37,1.36.72,2.74,1,4.13s.59,2.8.77,4.23l-.37.15c-.84-1.18-1.59-2.4-2.31-3.63s-1.4-2.47-2.05-3.73c-1.32-2.51-2.51-5.07-3.6-7.66l3.09,1.05c-1.37.84-2.74,1.67-4.16,2.44s-2.81,1.55-4.23,2.31-2.83,1.52-4.28,2.23-2.94,1.36-4.4,2l.23-1.68a9.42,9.42,0,0,0,2.31,3.07c1,.83,2.3,1.31,3.36,2.05a7.22,7.22,0,0,1,1.39,1.31,14.68,14.68,0,0,1,1.15,1.54,11.86,11.86,0,0,1,.95,1.72,8.32,8.32,0,0,1,.69,2Z" transform="translate(-248.37 -371.24)"/><path class="cls-8" d="M267.34,413.8a9.31,9.31,0,0,1-2,.48,13.19,13.19,0,0,1-2,.12,15.21,15.21,0,0,1-1.91-.15,7.09,7.09,0,0,1-1.85-.47c-1.19-.5-2.32-1.37-3.54-1.74a9.58,9.58,0,0,0-3.82-.31l-1.3.12.52-1.62c.49-1.53.93-3.09,1.46-4.62s1.09-3,1.67-4.53,1.15-3,1.75-4.49,1.22-3,1.88-4.44l1.06-2.36,2.07,1.43c2.32,1.6,4.57,3.29,6.76,5.1,1.09.89,2.17,1.81,3.23,2.78s2.09,1.94,3.07,3l-.21.34c-1.37-.48-2.69-1-4-1.63s-2.58-1.2-3.83-1.85c-2.53-1.28-5-2.68-7.37-4.16l3.13-.93c-.63,1.48-1.27,2.95-2,4.39s-1.4,2.9-2.12,4.34-1.42,2.88-2.2,4.29-1.6,2.81-2.4,4.21l-.78-1.49a9.56,9.56,0,0,0,3.65,1.16c1.27.11,2.64-.27,3.94-.27a6.74,6.74,0,0,1,1.89.26,15.36,15.36,0,0,1,1.82.58,13.14,13.14,0,0,1,1.78.85,8.94,8.94,0,0,1,1.7,1.22Z" transform="translate(-248.37 -371.24)"/><path class="cls-8" d="M270,436a9.18,9.18,0,0,1-1.25,1.68,12.94,12.94,0,0,1-1.43,1.35,15.34,15.34,0,0,1-1.56,1.12,7.12,7.12,0,0,1-1.71.83c-1.24.39-2.66.45-3.83,1a9.68,9.68,0,0,0-3.12,2.23l-.92.93-.65-1.57c-.61-1.5-1.28-3-1.85-4.48s-1.12-3-1.65-4.54-1.05-3-1.55-4.57-1-3.06-1.42-4.6l-.71-2.49,2.51-.24c2.8-.27,5.62-.43,8.45-.45,1.41,0,2.83,0,4.26,0s2.85.14,4.29.32l.05.4c-1.36.51-2.73.94-4.1,1.32s-2.74.74-4.12,1.05c-2.76.65-5.54,1.16-8.32,1.56l1.79-2.72c.47,1.53.93,3.07,1.32,4.63s.79,3.12,1.17,4.68.77,3.12,1.09,4.71.58,3.18.87,4.76l-1.56-.64a9.65,9.65,0,0,0,3.54-1.46c1.05-.73,1.85-1.91,2.83-2.75a6.85,6.85,0,0,1,1.62-1,15.3,15.3,0,0,1,1.77-.73,11.61,11.61,0,0,1,1.91-.49,8.24,8.24,0,0,1,2.08-.17Z" transform="translate(-248.37 -371.24)"/><path class="cls-8" d="M282,421.65a8.57,8.57,0,0,1-.74-3.37,10.46,10.46,0,0,1,.08-1.59,4.68,4.68,0,0,1,.4-1.54,32.07,32.07,0,0,0,1.59-2.92,6.71,6.71,0,0,0,.16-3.19l0-.27.55-.45c.83-.71,1.64-1.45,2.49-2.12s1.73-1.3,2.61-1.92c1.76-1.25,3.52-2.5,5.39-3.57l.63-.36.6,0a66.31,66.31,0,0,1,6.85.94c1.14.22,2.28.46,3.42.75a31.18,31.18,0,0,1,3.39,1l0,.4c-1.17.28-2.33.47-3.49.63s-2.32.27-3.47.36a66.68,66.68,0,0,1-6.92.17l1.23-.31c-1.81,1.17-3.73,2.15-5.65,3.14-1,.49-1.91,1-2.91,1.43s-2,.82-3,1.24l.51-.73a6.63,6.63,0,0,0-1,3,31.63,31.63,0,0,0,.41,3.3,4.63,4.63,0,0,1-.19,1.58,10.32,10.32,0,0,1-.51,1.51,8.24,8.24,0,0,1-1.92,2.86Z" transform="translate(-248.37 -371.24)"/><path class="cls-8" d="M316,416.26a8,8,0,0,1,.75,3.27,8.74,8.74,0,0,1-.07,1.54,4.63,4.63,0,0,1-.39,1.49,29.06,29.06,0,0,0-1.58,2.81,6.3,6.3,0,0,0-.15,3.09l0,.17-.42.49c-.63.71-1.23,1.44-1.89,2.12s-1.34,1.31-2,1.94a50.7,50.7,0,0,1-4.26,3.63l-.67.49-.68,0a40.12,40.12,0,0,1-5.31-.66c-.89-.18-1.77-.36-2.65-.61a21.09,21.09,0,0,1-2.65-.88v-.4a21.23,21.23,0,0,1,2.68-.77c.89-.21,1.78-.37,2.67-.51a43.71,43.71,0,0,1,5.33-.45l-1.35.46a49.35,49.35,0,0,1,4.56-3.24c.78-.51,1.55-1,2.38-1.48s1.67-.88,2.52-1.31l-.4.65a6.23,6.23,0,0,0,1-2.93,27.56,27.56,0,0,0-.43-3.2,4.38,4.38,0,0,1,.19-1.53,10.13,10.13,0,0,1,.51-1.46,7.89,7.89,0,0,1,1.9-2.75Z" transform="translate(-248.37 -371.24)"/><path class="cls-3" d="M297.19,408.17a4.33,4.33,0,0,1,1.82-1.44,4.53,4.53,0,0,1,.94-.26,1.69,1.69,0,0,1,.94.07c.64.22,1.3.84,1.93.94a2.56,2.56,0,0,0,1.87-.52l.15-.1.69.45c.6.37,1.21.73,1.76,1.14a18.35,18.35,0,0,1,1.59,1.3,25.31,25.31,0,0,1,2.95,2.81l.46.54.07.53a28.91,28.91,0,0,1,.26,4.48c0,.76-.06,1.52-.15,2.29a15.12,15.12,0,0,1-.41,2.34l-.4.08a16.66,16.66,0,0,1-1.21-2.05c-.36-.69-.66-1.39-.95-2.09a30.43,30.43,0,0,1-1.35-4.29l.54,1.07a26.22,26.22,0,0,1-2.58-3.15,20.16,20.16,0,0,1-1.16-1.69c-.37-.58-.68-1.22-1-1.84l.85.35a2.58,2.58,0,0,0-1.91-.36c-.62.16-1.22.83-1.84,1.11a1.71,1.71,0,0,1-.94.14,3.54,3.54,0,0,1-1-.18,4.29,4.29,0,0,1-1.95-1.27Z" transform="translate(-248.37 -371.24)"/></svg>