<svg id="Layer_1" data-name="Layer 1" xmlns="http://www.w3.org/2000/svg" viewBox="0 0 238.93 199.01"><defs><style>.cls-1{fill:#f2db7b;}.cls-2{fill:#4c3239;}.cls-3{fill:#945f5b;}</style></defs><rect class="cls-1" x="2.95" y="4.28" width="231.85" height="191.14" rx="19.06"/><path class="cls-2" d="M394.27,516.82c-16.94,0-33.89.21-50.83.62s-33.88,1-50.82,1.52c-8.48.22-16.95.5-25.42.63l-12.7.24-12.71.13c-8.47.07-16.94,0-25.41,0-4.24,0-8.48,0-12.71-.08l-3.19,0-1.86-.11c-.63,0-1.24-.18-1.86-.27a23.06,23.06,0,0,1-7-2.51,22.41,22.41,0,0,1-9.61-11,22.75,22.75,0,0,1-1.56-7.17c0-.59-.05-1.26,0-1.78l0-1.59.08-3.18.63-25.41.56-25.41q.21-12.71.35-25.42.17-25.41-.07-50.82L180,352.52l-.11-6.35,0-1.59c0-.53,0-1.14,0-1.7a23.05,23.05,0,0,1,.47-3.43,20.84,20.84,0,0,1,7.19-11.62,21.26,21.26,0,0,1,13-4.75c17-.33,33.89-.77,50.83-1s33.88-.42,50.83-.55L353,321.1c8.47-.09,17-.09,25.42-.09l12.7,0h3.19l1.94.1c.65,0,1.28.16,1.93.25a23,23,0,0,1,7.31,2.56,23.67,23.67,0,0,1,10.16,11.35,24.14,24.14,0,0,1,1.73,7.51l0,1c0,.32,0,.66,0,.9v1.59l0,3.17c-.05,8.48-.1,16.95-.25,25.42l-.18,12.7-.3,12.71c-.17,8.47-.48,16.94-.74,25.41l-.8,25.42-.4,12.7-.34,12.71q-.18,6.36-.28,12.71l-.11,6.35a24.92,24.92,0,0,1-.67,6.45,19.85,19.85,0,0,1-7,10.73A19.61,19.61,0,0,1,394.27,516.82Zm0-.81a18.67,18.67,0,0,0,11.48-4.07,18.17,18.17,0,0,0,6.45-10.25,23.81,23.81,0,0,0,.43-6.17l-.11-6.35q-.09-6.36-.28-12.71l-.34-12.71-.4-12.7-.8-25.42c-.26-8.47-.57-16.94-.74-25.41l-.3-12.71-.18-12.7c-.15-8.47-.2-16.94-.25-25.42l0-3.17v-1.59c0-.29,0-.48,0-.69l0-.62a15.54,15.54,0,0,0-1.16-4.8,15.22,15.22,0,0,0-6.58-7.15,15.57,15.57,0,0,0-4.63-1.58c-.41-.05-.8-.16-1.22-.17l-1.23-.07H378.44c-8.47,0-16.95,0-25.42-.1L302.2,329c-16.95-.13-33.89-.27-50.83-.55s-33.88-.68-50.83-1a17.1,17.1,0,0,0-16.83,12.8,17,17,0,0,0-.5,2.85c0,.49-.08.94-.09,1.47l0,1.59-.12,6.35-.13,12.71q-.26,25.41-.06,50.82c.08,8.47.21,16.95.34,25.42l.57,25.41.63,25.41.07,3.18,0,1.59c0,.54.06.92.09,1.39a16.25,16.25,0,0,0,1.33,5.14,16.44,16.44,0,0,0,7.12,7.55,16.07,16.07,0,0,0,4.93,1.63c.44,0,.86.15,1.3.15l1.3.05,3.17,0c4.23-.07,8.47-.07,12.71-.08,8.47,0,16.94-.05,25.41,0l12.71.13,12.7.24c8.47.13,16.94.41,25.42.63,16.94.49,33.88,1.13,50.82,1.52S377.33,516.05,394.27,516Z" transform="translate(-178.54 -320.99)"/><path class="cls-3" d="M349.68,484.78l-111.45,6.14A12.28,12.28,0,0,1,226,478.63L208.33,420.2a12.28,12.28,0,0,1,12.28-12.28H368.09a12.28,12.28,0,0,1,12.28,12.28L362,472.49A12.28,12.28,0,0,1,349.68,484.78Z" transform="translate(-178.54 -320.99)"/><path class="cls-2" d="M349.69,485.43q-16.33.85-32.63,3.25c-10.87,1.56-21.73,3.42-32.6,4.74S262.7,495.55,251.8,496c-2.72.08-5.45.16-8.17.19l-4.09,0h-1c-.35,0-1.13,0-1.53-.08a17.2,17.2,0,0,1-12.16-6.92,16.74,16.74,0,0,1-3.22-10.55l.18,1.26c-1-5-2-10-3.07-15s-2.23-9.95-3.55-14.86-2.8-9.79-4.38-14.62-3.23-9.65-5-14.42l-.1-.25,0-.53a15.46,15.46,0,0,1,5.94-12.56,15.67,15.67,0,0,1,6.69-3,16.4,16.4,0,0,1,1.85-.23l1.57-.08,2.9-.15L247.83,403c7.76-.3,15.51-.62,23.26-.8l23.26-.5,23.26-.44c7.75-.1,15.51-.3,23.26-.32s15.5,0,23.26,0l2.9,0h.73l.95,0A18.95,18.95,0,0,1,387,420.2v1.26l-.36.93q-2.5,6.47-5.39,12.8c-1.91,4.22-4,8.38-6.12,12.54s-4.27,8.29-6.38,12.45-4,8.37-5.82,12.64l.06-.33a13.34,13.34,0,0,1-8.31,12A13,13,0,0,1,349.69,485.43Zm0-1.3a11.59,11.59,0,0,0,4.45-.93,11.22,11.22,0,0,0,3.72-2.55,11.71,11.71,0,0,0,2.41-3.78,11,11,0,0,0,.73-4.38v-.12l.06-.21c1.29-4.44,2.4-9,3.4-13.5s1.9-9.12,2.82-13.69,1.93-9.12,3.09-13.61,2.42-8.95,3.82-13.35l-.37,2.19a5.62,5.62,0,0,0-2.5-4.44,5.41,5.41,0,0,0-2.37-.9,4.49,4.49,0,0,0-.64,0H367l-2.9,0c-7.76,0-15.51.07-23.26,0s-15.51-.22-23.26-.32l-23.26-.44-23.26-.49c-7.75-.19-15.5-.51-23.26-.81l-23.26-1.13-2.9-.14-1.35-.07a9.1,9.1,0,0,0-1,0,8.82,8.82,0,0,0-4,1.34,9.09,9.09,0,0,0-3,3.11A9.34,9.34,0,0,0,211,420.2l-.11-.78c1.12,5,2.4,9.9,3.76,14.8s2.82,9.77,4.44,14.6,3.35,9.61,5.25,14.35,3.85,9.47,5.75,14.21l.1.25.08,1a7.79,7.79,0,0,0,2,4.64,7.52,7.52,0,0,0,4.21,2.3,6.64,6.64,0,0,0,1.18.1,4.9,4.9,0,0,0,.5,0l1-.11,4.08-.41c2.72-.27,5.44-.49,8.17-.71,10.88-.81,21.78-1.23,32.69-1.07s21.84.77,32.76,1.14S338.77,484.76,349.66,484.13Z" transform="translate(-178.54 -320.99)"/><path class="cls-2" d="M280.43,452.34c-6.76-13.58-13-27.41-18.64-41.6-2.77-7.12-5.36-14.33-7.62-21.78-1.07-3.74-2-7.54-2.84-11.47a64.44,64.44,0,0,1-1.44-12.5,28,28,0,0,1,.88-7.44,18,18,0,0,1,1.87-4.44,13.91,13.91,0,0,1,4.09-4.33,17.75,17.75,0,0,1,2.77-1.43,15.27,15.27,0,0,1,2.79-.78l1.35-.2c.44-.05.83-.05,1.24-.07l1.23,0,1.11.08A31.5,31.5,0,0,1,274.8,348a61.84,61.84,0,0,1,11.38,5.5c.85.53,1.83,1.18,2.71,1.8s1.83,1.23,2.69,1.92a64.07,64.07,0,0,1,4.86,4.45,56.83,56.83,0,0,1,4.21,5c.63.88,1.27,1.76,1.88,2.64s1.13,1.83,1.66,2.76l.8,1.39.71,1.43c.47.95.91,1.91,1.35,2.87a56.28,56.28,0,0,1,2.11,5.91,54.31,54.31,0,0,1,2.22,12.07,44.61,44.61,0,0,1-.66,12.05A.89.89,0,0,1,309,408v0a129.7,129.7,0,0,0-10.76-19.25l-.73-1.08-.79-1-1.53-2c-.55-.65-1.11-1.29-1.63-1.94l-.8-1-.86-.91c-.58-.59-1.12-1.21-1.67-1.82l-1.78-1.67a46.77,46.77,0,0,0-3.63-3.15,17.48,17.48,0,0,0-1.9-1.43c-.64-.46-1.26-.94-1.89-1.42-1.35-.84-2.61-1.65-4-2.58l-4.51-2.77c-1.43-.87-2.8-1.69-4.1-2.32a20.75,20.75,0,0,0-3.27-1.43l-.29-.11a.59.59,0,0,1-.19-.05l-.17-.07-.06,0c-.09-.07,0-.06,0-.15s.18-.11.22-.24.23-.38.12-.35-.32.3-.51.68a14.08,14.08,0,0,0-.87,3.71,52.52,52.52,0,0,0,.17,10.05c.35,3.53.89,7.13,1.54,10.74,1.24,7.24,2.87,14.53,4.71,21.78,3.57,14.57,7.88,29,12.12,43.57a.85.85,0,0,1-.58,1.06A.84.84,0,0,1,280.43,452.34Z" transform="translate(-178.54 -320.99)"/></svg>