<?xml version="1.0" encoding="utf-8"?>
<!-- Generator: Adobe Illustrator 25.2.1, SVG Export Plug-In . SVG Version: 6.00 Build 0)  -->
<svg version="1.1" id="Layer_1" xmlns="http://www.w3.org/2000/svg" xmlns:xlink="http://www.w3.org/1999/xlink" x="0px" y="0px"
	 viewBox="0 0 100 100" style="enable-background:new 0 0 100 100;" xml:space="preserve">
<style type="text/css">
	.st0{fill:#CECAC8;}
	.st1{fill:url(#SVGID_1_);}
	.st2{fill:url(#SVGID_2_);}
</style>
<path class="st0" d="M97.37,39.54v20.93c0,4.69-3.8,8.49-8.49,8.49H11.11c-4.69,0-8.49-3.8-8.49-8.49V39.54
	c0-4.69,3.8-8.49,8.49-8.49h77.77C93.57,31.05,97.37,34.85,97.37,39.54z"/>
<linearGradient id="SVGID_1_" gradientUnits="userSpaceOnUse" x1="50.0019" y1="34.1158" x2="50.0019" y2="69.888" gradientTransform="matrix(1 0 0 -1 0 102)">
	<stop  offset="0" style="stop-color:#5BA9D6"/>
	<stop  offset="1" style="stop-color:#328FC6"/>
</linearGradient>
<path class="st1" d="M88.63,67.88H11.37c-4.01,0-7.25-3.25-7.25-7.25V39.37c0-4.01,3.25-7.25,7.25-7.25h77.26
	c4.01,0,7.25,3.25,7.25,7.25v21.26C95.88,64.64,92.63,67.88,88.63,67.88z"/>
<linearGradient id="SVGID_2_" gradientUnits="userSpaceOnUse" x1="49.9432" y1="69.0656" x2="49.9432" y2="42.6164" gradientTransform="matrix(1 0 0 -1 0 102)">
	<stop  offset="0" style="stop-color:#6EB4DC"/>
	<stop  offset="0.28" style="stop-color:#69AFD9;stop-opacity:0.72"/>
	<stop  offset="0.5456" style="stop-color:#5EA8D4;stop-opacity:0.4544"/>
	<stop  offset="0.8046" style="stop-color:#4B9BCD;stop-opacity:0.1954"/>
	<stop  offset="1" style="stop-color:#328FC6;stop-opacity:0"/>
</linearGradient>
<path class="st2" d="M87.96,59.38H11.93c-3.68,0-6.65-2.98-6.65-6.65V39.59c0-3.68,2.98-6.65,6.65-6.65h76.02
	c3.68,0,6.65,2.98,6.65,6.65v13.14C94.61,56.4,91.63,59.38,87.96,59.38z"/>
</svg>
