<svg id="Layer_1" data-name="Layer 1" xmlns="http://www.w3.org/2000/svg" viewBox="0 0 287.05 287.97"><defs><style>.cls-1{fill:#fff200;}.cls-1,.cls-2,.cls-3,.cls-4,.cls-5,.cls-6{stroke:#231f20;stroke-miterlimit:10;}.cls-1,.cls-2,.cls-3,.cls-4{stroke-width:16.32px;}.cls-2{fill:#ed1c24;}.cls-3{fill:#009141;}.cls-4{fill:#00bff3;}.cls-5,.cls-6{fill:#fff;}.cls-5{stroke-width:12.89px;}.cls-6{stroke-width:9.52px;}</style></defs><path class="cls-1" d="M246.66,148.14a57.8,57.8,0,0,1,57.79-57.8H422.76V208.65A57.8,57.8,0,0,1,365,266.44" transform="translate(-154.11 -67.63)"/><path class="cls-2" d="M357.22,274.18A57.79,57.79,0,0,1,299.43,332H181.13V213.67a57.79,57.79,0,0,1,57.79-57.79" transform="translate(-154.11 -67.63)"/><path class="cls-3" d="M375.21,171.35A57.79,57.79,0,0,1,433,229.14v118.3H314.7a57.79,57.79,0,0,1-57.79-57.79" transform="translate(-154.11 -67.63)"/><path class="cls-4" d="M220.06,251.89a57.79,57.79,0,0,1-57.79-57.8V75.79h118.3a57.79,57.79,0,0,1,57.79,57.79" transform="translate(-154.11 -67.63)"/><rect class="cls-5" x="226.56" y="138.26" width="146.04" height="146.04" rx="27.38" transform="translate(356.74 -155.94) rotate(90)"/><rect class="cls-6" x="289.55" y="202" width="18.55" height="18.55" rx="6.06" transform="translate(355.99 -155.18) rotate(90)"/><rect class="cls-6" x="252.25" y="240.05" width="18.55" height="18.55" rx="6.06" transform="translate(356.74 -79.83) rotate(90)"/><rect class="cls-6" x="328.35" y="163.95" width="18.55" height="18.55" rx="6.06" transform="translate(356.74 -232.04) rotate(90)"/><rect class="cls-6" x="172.3" y="172.42" width="18.55" height="18.55" rx="6.06"/><rect class="cls-6" x="96.2" y="96.31" width="18.55" height="18.55" rx="6.06"/></svg>