<?xml version="1.0" encoding="utf-8"?>
<!-- Generator: Adobe Illustrator 25.2.1, SVG Export Plug-In . SVG Version: 6.00 Build 0)  -->
<svg version="1.1" id="Layer_1" xmlns="http://www.w3.org/2000/svg" xmlns:xlink="http://www.w3.org/1999/xlink" x="0px" y="0px"
	 viewBox="0 0 100 100" style="enable-background:new 0 0 100 100;" xml:space="preserve">
<style type="text/css">
	.st0{fill:#CECAC8;}
	.st1{fill:url(#SVGID_1_);}
	.st2{fill:url(#SVGID_2_);}
</style>
<path class="st0" d="M97.3,39.55v20.89c0,4.68-3.8,8.47-8.47,8.47H11.17c-4.68,0-8.47-3.8-8.47-8.47V39.55
	c0-4.68,3.8-8.47,8.47-8.47h77.65C93.5,31.08,97.3,34.87,97.3,39.55z"/>
<linearGradient id="SVGID_1_" gradientUnits="userSpaceOnUse" x1="50.0019" y1="34.1444" x2="50.0019" y2="69.8594" gradientTransform="matrix(1 0 0 -1 0 102)">
	<stop  offset="0" style="stop-color:#FDE049"/>
	<stop  offset="1" style="stop-color:#F6CE18"/>
</linearGradient>
<path class="st1" d="M88.56,67.86H11.44c-4,0-7.24-3.24-7.24-7.24V39.38c0-4,3.24-7.24,7.24-7.24h77.13c4,0,7.24,3.24,7.24,7.24
	v21.23C95.81,64.61,92.56,67.86,88.56,67.86z"/>
<linearGradient id="SVGID_2_" gradientUnits="userSpaceOnUse" x1="49.9432" y1="69.0383" x2="49.9432" y2="42.6314" gradientTransform="matrix(1 0 0 -1 0 102)">
	<stop  offset="0" style="stop-color:#FDE573"/>
	<stop  offset="0.0519" style="stop-color:#FEE986;stop-opacity:0.9481"/>
	<stop  offset="0.1489" style="stop-color:#FFEEA5;stop-opacity:0.8511"/>
	<stop  offset="0.2526" style="stop-color:#FFF2C1;stop-opacity:0.7474"/>
	<stop  offset="0.3627" style="stop-color:#FFF7D5;stop-opacity:0.6373"/>
	<stop  offset="0.4814" style="stop-color:#FEF8E7;stop-opacity:0.5186"/>
	<stop  offset="0.6129" style="stop-color:#FFFDF3;stop-opacity:0.3871"/>
	<stop  offset="0.7671" style="stop-color:#FFFFFC;stop-opacity:0.2329"/>
	<stop  offset="1" style="stop-color:#FFFFFF;stop-opacity:0"/>
</linearGradient>
<path class="st2" d="M87.89,59.37h-75.9c-3.67,0-6.64-2.97-6.64-6.64V39.61c0-3.67,2.97-6.64,6.64-6.64h75.9
	c3.67,0,6.64,2.97,6.64,6.64v13.12C94.54,56.39,91.56,59.37,87.89,59.37z"/>
</svg>
