<svg xmlns="http://www.w3.org/2000/svg" xmlns:xlink="http://www.w3.org/1999/xlink" viewBox="0 0 279.46 286.6"><defs><style>.cls-1{fill:#3459a8;}.cls-2{fill:url(#linear-gradient);}.cls-3{opacity:0.25;fill:url(#linear-gradient-2);}.cls-100,.cls-4{fill:#fff;}.cls-4{opacity:0.5;}.cls-5{fill:#baccd9;}.cls-6{fill:#040405;}.cls-7{fill:#a6dbf7;}.cls-8{fill:#e7f5f8;}.cls-9{fill:#92cdef;}.cls-10{fill:#92cdf0;}.cls-11{fill:#b5e3f4;}.cls-12{fill:#83bde1;}.cls-13{fill:#e5f5f8;}.cls-14{fill:#a7dcf7;}.cls-15{fill:#d6eff8;}.cls-16{fill:#b5e3f2;}.cls-17{fill:#b5e4f5;}.cls-18{fill:#1a497c;}.cls-19{fill:#1b497d;}.cls-20{fill:#1b4879;}.cls-21{fill:#194979;}.cls-22{fill:#87bae1;}.cls-23{fill:#1c4879;}.cls-24{fill:#83bce1;}.cls-25{fill:#85bbe0;}.cls-26{fill:#86bde2;}.cls-27{fill:#84bce0;}.cls-28{fill:#274d71;}.cls-29{fill:#b9e3f3;}.cls-30{fill:#b5e0f0;}.cls-31{fill:#bae4f3;}.cls-32{fill:#b6e1f3;}.cls-33{fill:#b8e1f2;}.cls-34{fill:#bae4f1;}.cls-35{fill:#b3d9ee;}.cls-36{fill:#bbe5f4;}.cls-37{fill:#bce5f5;}.cls-38{fill:#bbe4ef;}.cls-39{fill:#b5e1f2;}.cls-40{fill:#243b59;}.cls-41{fill:#e4f4f7;}.cls-42{fill:#e3f4f8;}.cls-43{fill:#86bcdf;}.cls-44{fill:#253a59;}.cls-45{fill:#84badd;}.cls-46{fill:#1d4778;}.cls-47{fill:#243d5b;}.cls-48{fill:#1c467a;}.cls-49{fill:#20456d;}.cls-50{fill:#1b487a;}.cls-51{fill:#040509;}.cls-52{fill:#0e4d86;}.cls-53{fill:#4674b9;}.cls-54{fill:#4574ba;}.cls-55{fill:#4575ba;}.cls-56{fill:#e52b5b;}.cls-57{fill:#e82b59;}.cls-58{fill:#46b2e5;}.cls-59{fill:#46b1e4;}.cls-60{fill:#f0b946;}.cls-61{fill:#3c5ba9;}.cls-62{fill:#3d5caa;}.cls-63{fill:#f16262;}.cls-64{fill:#e72b59;}.cls-65{fill:#f06262;}.cls-66{fill:#f06260;}.cls-67{fill:#faac34;}.cls-68{fill:#faad32;}.cls-69{fill:#cc3d34;}.cls-70{fill:#f79d75;}.cls-71{fill:#cf3b3b;}.cls-72{fill:#f8a06c;}.cls-73{fill:#e72b5b;}.cls-74{fill:#f16160;}.cls-75{fill:#cf204d;}.cls-76{fill:#d0204f;}.cls-77{fill:#ba2043;}.cls-78{fill:#f16161;}.cls-79{fill:#4674ba;}.cls-80{fill:#e89f29;}.cls-81{fill:#fada4d;}.cls-82{fill:#080404;}.cls-83{fill:#fbaf31;}.cls-84{fill:#fbae2e;}.cls-85{fill:#fada50;}.cls-86{fill:#070404;}.cls-87{fill:#f18c53;}.cls-88{fill:#f8a378;}.cls-89{fill:#f3b847;}.cls-90{fill:#e82b57;}.cls-91{fill:#fad94c;}.cls-92{fill:#e62b5c;}.cls-93{fill:#e62b5a;}.cls-94{fill:#07070d;}.cls-95{fill:#51b848;}.cls-96{fill:#429343;}.cls-97{fill:#76c158;}.cls-98{fill:#373737;}.cls-99{fill:#5d5d5d;}.cls-100{opacity:0.15;}.cls-101{fill:#f5fafe;}</style><linearGradient id="linear-gradient" x1="139.73" x2="139.73" y2="279.46" gradientUnits="userSpaceOnUse"><stop offset="0" stop-color="#3358a8"/><stop offset="1" stop-color="#3f90ce"/></linearGradient><linearGradient id="linear-gradient-2" x1="139.73" x2="139.73" y2="286.6" gradientUnits="userSpaceOnUse"><stop offset="0" stop-color="#51b4e6"/><stop offset="1" stop-color="#3f90ce"/></linearGradient></defs><g id="Layer_2" data-name="Layer 2"><g id="logo"><rect class="cls-1" y="7.14" width="279.46" height="279.46" rx="65.86"/><rect class="cls-2" width="279.46" height="279.46" rx="65.86"/><path class="cls-3" d="M213.6,0H65.86A65.86,65.86,0,0,0,0,65.86V220.74A65.86,65.86,0,0,0,65.86,286.6H213.6a65.86,65.86,0,0,0,65.86-65.86V65.86A65.86,65.86,0,0,0,213.6,0Z"/><path class="cls-4" d="M101.78,36.29h0a50.49,50.49,0,0,0,46.54-6.51h0c34-24.42,81.22.73,79.93,42.56h0a50.51,50.51,0,0,0,20.57,42.25h0c33.73,24.78,24.41,77.47-15.78,89.17h0a50.52,50.52,0,0,0-33.82,32.63h0c-13.14,39.73-66.14,47.15-89.68,12.55h0a50.5,50.5,0,0,0-41.48-22.09h0c-41.85-.22-65.28-48.33-39.65-81.42h0A50.48,50.48,0,0,0,36.6,99.16h0C23.87,59.29,62.39,22.14,101.78,36.29Z"/><path class="cls-4" d="M75.71,91.54h0A37.83,37.83,0,0,0,102.9,69.2h0c12.18-28.88,52.18-31.26,67.7-4h0a37.84,37.84,0,0,0,29.65,19h0c31.23,2.66,45.85,40,24.75,63.14h0a37.82,37.82,0,0,0-8.87,34.06h0c7.13,30.52-23.84,56-52.4,43h0a37.79,37.79,0,0,0-35.13,2.09h0c-26.83,16.21-60.59-5.38-57.14-36.53h0a37.83,37.83,0,0,0-12.84-32.77h0C34.91,136.67,45,97.88,75.71,91.54Z"/><path class="cls-4" d="M104.91,110.26h0A22.47,22.47,0,0,0,121.07,97h0c7.23-17.16,31-18.57,40.23-2.39h0a22.46,22.46,0,0,0,17.62,11.26h0c18.55,1.58,27.24,23.75,14.7,37.52h0a22.5,22.5,0,0,0-5.45,19.39,9,9,0,0,1,.18,1.71v15.46a9.26,9.26,0,0,1-9.26,9.26h-20.2a7.94,7.94,0,0,1-2.86-.5,22.49,22.49,0,0,0-19.69,1.74h0c-15.37,9.29-34.58-2.31-34.09-19.75a8.43,8.43,0,0,1,.9-3.48l2.81-5.62a8.51,8.51,0,0,0-7.61-12.32h0a8.41,8.41,0,0,1-6.58-3.11C81.7,133.52,88.12,113.72,104.91,110.26Z"/><path class="cls-5" d="M37.63,224l-.23,0-6.34-16.14.21-.1c.63.25.79.85,1,1.39q2.59,6.54,5.14,13.09A2.06,2.06,0,0,1,37.63,224Z"/><path class="cls-6" d="M102.66,258.4a57.48,57.48,0,0,1-12.32,2.45c-2.75.19-5.41-.46-8.08-.89-7.12-1.13-14.12-2.86-21.12-4.58-6.54-1.61-10.94-5.64-14-11.42-3.48-6.52-6.3-13.35-9.49-20l-6.36-16.19A30,30,0,0,1,31,191.68a16.22,16.22,0,0,1,5.56-9C43.5,177,50.91,172,58.36,167a83.85,83.85,0,0,1,12.26-7,34.51,34.51,0,0,1,9.76-2.27c8.34-1.13,16.72-1.62,25.11-2.13,8.85-.53,15.49,3.49,21,9.93,2.66,3.09,4,6.85,5.56,10.53,3.87,9.44,7.46,19,10.84,28.6a58.66,58.66,0,0,1,2.34,8.86,13.51,13.51,0,0,1-2.21,10.9,46,46,0,0,1-5.18,5.89c-5.62,5.48-11.11,11.09-16.94,16.34-3.21,2.89-6.26,6-10.07,8.15-1,.58-2.11,1.09-3.16,1.63"/><path class="cls-7" d="M124.77,166.65c2,1.81,2.91,4.25,3.88,6.61q5.59,13.61,10.52,27.47a70.38,70.38,0,0,1,2.6,9.16,12.05,12.05,0,0,1-3,11.28c-6.25,6.83-12.94,13.21-19.69,19.53-2.62,2.45-5.27,4.88-8.08,7.12a8.14,8.14,0,0,1-2.5,1.45,2.74,2.74,0,0,1-2.55.3,43.24,43.24,0,0,0-4.14-1.46,12.1,12.1,0,0,0-1.46-2.66,35.43,35.43,0,0,1-3-6.26c-1.32-2.93-2.4-6-3.57-8.95a2.14,2.14,0,0,1-.26-1.58c.73-.68.86.13,1,.48.49,1,.84,2,1.25,3.07.75,1.9,1.47,3.8,2.25,5.69.4,1,.6,1,1.23.13,1.43-2.06,2.58-4.29,3.81-6.47a122.85,122.85,0,0,0,6.18-12.69,10.48,10.48,0,0,1,.88-2.1c.59-.23.82.3,1.16.56,2.12,1.62,4.38,2.63,7.09,1.66a8.87,8.87,0,0,0,4.93-4.73,15.34,15.34,0,0,0,1.76-7.09,15.15,15.15,0,0,0-.16-1.51,15.28,15.28,0,0,0-4.16-11.1c-.8-.85-1.89-1.28-2.74-2.05a4.64,4.64,0,0,1,.16-3,72.35,72.35,0,0,0,1.54-9.12c.43-3.27.5-6.57.73-9.86.12-1.69-.12-3.37-.13-5.06,1.36-.62,2.54-.08,3.71.56C124.3,166.21,124.38,166.62,124.77,166.65Z"/><path class="cls-8" d="M124.77,166.65a10.59,10.59,0,0,0-4.36-1.25.38.38,0,0,1-.34.17,1.77,1.77,0,0,1-1-.56,17.31,17.31,0,0,0-5.28-3,2.81,2.81,0,0,0-3.15.6c-6.12,5.17-12.36,10.2-18.5,15.35a7.65,7.65,0,0,0-.9.9,2.33,2.33,0,0,1-.6.65c-2.56,1.46-4.52,3.7-6.91,5.38a8.76,8.76,0,0,0-1.31,1.2,8.29,8.29,0,0,1-3.13,2.12c-1.76.72-3.52,1.43-5.24,2.27a16.13,16.13,0,0,1-8.33,1.26,42.37,42.37,0,0,0-6.47-.21,7.92,7.92,0,0,1-3.73-.61c-1.09-.46-2.25,0-3.38,0a73.89,73.89,0,0,1-9.64-.31c-1.61-.14-3.21,0-4.82-.1-1,0-1.23.63-1.47,1.43a30.23,30.23,0,0,0-1.11,7,8.79,8.79,0,0,0-2,3.74c-.17.51.16,1.17-.44,1.56-.14.09,0-.09-.11-.06s-.06-.11,0-.2a20.39,20.39,0,0,1-.17-8.52c.19-1.33.59-2.64.85-4,.86-4.39,4.06-7,7.34-9.49,7.72-5.91,15.75-11.37,24-16.52A39.14,39.14,0,0,1,82,159.53c7.94-.72,15.87-1.43,23.83-1.89a21.08,21.08,0,0,1,15.76,5.75A17.43,17.43,0,0,1,124.77,166.65Z"/><path class="cls-9" d="M32.53,204c.37-.42.11-1,.3-1.43.59-.24,1,.19,1.31.5a22.77,22.77,0,0,1,2.9,3,20.8,20.8,0,0,0,5.23,4.71,2.93,2.93,0,0,1,.69,1.93c-.06.19-.17.29-.36.2s-.31-.27-.27-.37a15,15,0,0,0,1,3.26,19.51,19.51,0,0,0,7.41,9c2.35,1.46,4.72,2,7.21.33a3.36,3.36,0,0,1,2.09.79c.87.52,1.74,1,2.63,1.51.24,1.64.28,3.33,1.14,4.83a5.76,5.76,0,0,0,1.14,3.56,22.41,22.41,0,0,0,7.42,8.2,9.25,9.25,0,0,0,5.2,1.78c2.38-.06,4-2.19,3.29-4.87,0-1.15-.58-2.26-.24-3.43a6.57,6.57,0,0,1,2.54.64,28.88,28.88,0,0,0,5.47,1.54,2.25,2.25,0,0,1,1.55.77c1.21,3,2.91,5.84,3,9.2,0,.94.57,1,1.28.89,2-.24,3.77-1.19,5.64-1.85.62-.22,1.22-.63,1.94-.36.73-.46,1.38-.12,2,.2,1.42.67,2.84,1.34,4.48.83a36.15,36.15,0,0,1-8.34,3.7A48.43,48.43,0,0,1,89,255.27a9.1,9.1,0,0,1-2,0,204.79,204.79,0,0,1-28.44-6,16.7,16.7,0,0,1-9.94-8,158.25,158.25,0,0,1-7.1-14.51q-4.26-9.2-7.87-18.65A16.19,16.19,0,0,1,32.53,204Z"/><path class="cls-10" d="M120.18,165.47l.23-.07a11.82,11.82,0,0,1,.37,4.38,120.69,120.69,0,0,1-1.89,18.38,36.3,36.3,0,0,0-.78,4.16c-.67.37-1.34,0-2,0a6.65,6.65,0,0,0-5.42,2,10.63,10.63,0,0,0-2.62,3.86,20.56,20.56,0,0,0-1.07,11.5,22.46,22.46,0,0,0,1.71,4.51c.15.35.5.44.78.62a2.9,2.9,0,0,1,.68,2,3.81,3.81,0,0,1-.29,1.36c-1.62,3.54-3,7.21-4.9,10.61a102.83,102.83,0,0,1-5.86,10.05c-.52.73-.84.63-1.14-.06-.43-1-.79-2-1.17-3-.83-2.09-1.64-4.19-2.48-6.28-.15-.38-.18-.86-.67-1s-.77-.88-1-1.42q-3.67-9.28-7.31-18.59a23,23,0,0,1-.78-2.81,17,17,0,0,1,1.25-10.41,17.34,17.34,0,0,1,3.77-4.57c.94-1,1.9-1.94,2.89-2.85,3.35-3.14,6.63-6.33,10-9.42,2.6-2.37,5.22-4.73,7.9-7a55.8,55.8,0,0,1,5.24-4.24C117,166.27,118.31,165.06,120.18,165.47Z"/><path class="cls-11" d="M84.78,205.13c2.54,8,6,15.56,8.9,23.36A33.9,33.9,0,0,0,95.62,234c.67,1.65,1.19,3.37,2,5,1.14,2.28,1.8,4.82,3.46,6.84a3.4,3.4,0,0,1,.92,2.42c-2.67.91-5.16,2.36-8,2.67-1,.11-1.27-.13-1.22-1.13a7.85,7.85,0,0,0-.53-3.47c-.85-2-1.62-4.1-2.43-6.15a3.78,3.78,0,0,1-1.18-1.92C85.8,231.13,83,224,80.22,216.9c-.87-2.26-1.92-4.44-2.92-6.64a5.66,5.66,0,0,0-1.22-1.62,2,2,0,0,1-.73-1.81c.3-.64.63-.22.85,0a2.28,2.28,0,0,0,2.56.53,16.59,16.59,0,0,0,5.3-2.07A1,1,0,0,1,84.78,205.13Z"/><path class="cls-12" d="M109.42,214.9c-.77.22-.9-.36-1.15-.87A19.41,19.41,0,0,1,108,197.5a8.89,8.89,0,0,1,6.13-5.48,6.93,6.93,0,0,1,4,.3c4.12,2.14,6.1,5.74,6.87,10.15.19,1.1.64,2.19,0,3.3-1,.26-1.86-.45-2.8-.63a25.19,25.19,0,0,0-1.39-5,11.44,11.44,0,0,0-2.91-4,5,5,0,0,0-7.55.63,11.05,11.05,0,0,0-2.46,5.65,5.9,5.9,0,0,1-.32,1.61,2.7,2.7,0,0,0-.27,2.76,3.56,3.56,0,0,1,.16,2.23c-.07.29-.19.63,0,.86,1.18,1.32,1,3.2,2,4.62A.53.53,0,0,1,109.42,214.9Z"/><path class="cls-13" d="M109.42,214.9a1,1,0,0,0-.06-.23c0-.41-.22-.94.48-1,1.07.62,1.64,1.78,2.72,2.43a5,5,0,0,0,6.85-.95c2-2.23,2.59-5,2.74-7.86a15,15,0,0,1,.07-1.77.58.58,0,0,1,.2-.31c1-.41,1.72.5,2.61.6.86.72.45,1.78.34,2.5-.57,3.73-1.57,7.39-4.76,9.84-3.47,2.66-6.85,1.82-10-.92l-.47-.4A5.21,5.21,0,0,1,109.42,214.9Z"/><path class="cls-14" d="M75.49,206.59a2.66,2.66,0,0,0,1.23,2.08,2,2,0,0,1,.77,1c.5,1.59,1.47,2.94,2.07,4.48q5.09,13,10.21,26a43.22,43.22,0,0,1-8-2.22c-.38-.13-.87-.1-1.07-.57-1-.71-1-1.91-1.54-2.86a24.08,24.08,0,0,0-7.46-8.36c-1.7-1.25-3.52-2.22-5.71-2a3.05,3.05,0,0,0-2.79,2.07,1.65,1.65,0,0,1-.69,1,1.42,1.42,0,0,1-1.39-.38,20.47,20.47,0,0,0-3-1.74c-.27-.37-.06-.73,0-1.09a9.86,9.86,0,0,0-.82-6.91,1.27,1.27,0,0,0-.45-.44,1.73,1.73,0,0,1-.26-.28c-1.45-3.9-4.28-6.53-7.79-8.56a6.12,6.12,0,0,0-2.8-.77,3.25,3.25,0,0,0-3.42,2.31c-.16.44-.2.93-.59,1.25-.62.24-.92-.26-1.31-.56a44.46,44.46,0,0,1-5.54-5.69,7.57,7.57,0,0,0-2.35-1.9A6.14,6.14,0,0,1,35,199a2.68,2.68,0,0,1,2-1,25.47,25.47,0,0,1,6.35.2c2.83.24,5.65.42,8.49.46,3.06,0,6.09.5,9.13.7a16.49,16.49,0,0,1,7,.81,16.82,16.82,0,0,1,7.33,5.49A.89.89,0,0,1,75.49,206.59Z"/><path class="cls-15" d="M75.49,206.59a15.63,15.63,0,0,0-4-4.13A14.83,14.83,0,0,0,61,199.67c-1-.16-1.36-.94-1.8-1.67a43.88,43.88,0,0,1-3.07-5.27,2.38,2.38,0,0,0-2.61-1.58c-.54,0-1.22.18-1.56-.52,1.49-.12,3-.57,4.45.23a4.87,4.87,0,0,0,2.88.3c2.68-.29,5.32.3,8,.27a14.79,14.79,0,0,0,7.78-1.87,26.15,26.15,0,0,1,4.12-1.68,11,11,0,0,0,3.13-2.1,58.43,58.43,0,0,1,7.89-6.32,4.34,4.34,0,0,0,.87-.9A2,2,0,0,1,92,180a29.61,29.61,0,0,1,.94,6.87,3,3,0,0,1-.3,1.22c-1.75,2-4,3.64-5.54,5.83a13,13,0,0,0-2.43,7.71c0,1.16.08,2.33.13,3.5-2,1.83-4.59,2.3-7.13,2.83C76.49,208.21,76.14,207.16,75.49,206.59Z"/><path class="cls-16" d="M92.62,188.09a43.87,43.87,0,0,0-.73-7.14,23.17,23.17,0,0,0-.82-2.39c1.75-1.51,3.49-3,5.26-4.52,2.62-2.19,5.29-4.31,7.88-6.52,2.14-1.84,4.48-3.43,6.5-5.42,1.08-1,2.24-.79,3.49-.32a18.41,18.41,0,0,1,6,3.69c-2.44.36-4.17,1.93-6,3.37-3.77,2.9-7.29,6.09-10.78,9.3C100.2,181,97,183.86,94,187A10.72,10.72,0,0,1,92.62,188.09Z"/><path class="cls-17" d="M52,190.63a1.73,1.73,0,0,0,1.23.19c2.15-.42,2.94,1,3.72,2.57A23.67,23.67,0,0,0,61,199.67a10,10,0,0,1-2.88-.27c-2.61-.14-5.2-.4-7.82-.39s-5.51-.42-8.27-.61c-2.38-.17-4.8-.61-7.08.55-.22-2.57.48-5,1-7.48.24-1.05.9-1.32,2-1.33C42.63,190.13,47.28,190.8,52,190.63Z"/><path class="cls-18" d="M81.58,180.35c-.72.45-1.25,1.18-2.13,1.4a9.11,9.11,0,0,1-3.64,1.31c-1.55.43-2.74,1.6-4.4,1.91-2.24.42-2.66.29-3.12-2a3.34,3.34,0,0,1,1.94-1.89,22,22,0,0,1,8.58-2.94,4.26,4.26,0,0,1,2.12.25,1.64,1.64,0,0,1,.93,1.16A.85.85,0,0,1,81.58,180.35Z"/><path class="cls-19" d="M58.67,180c-2.55,2.4-5.71,3.59-9,4.48-1.24.34-2.51.87-3.84.33-.92-1,0-1.54.46-2.22a16.14,16.14,0,0,1,10.22-4.16,3,3,0,0,1,1.61.27C58.6,179,59,179.38,58.67,180Z"/><path class="cls-20" d="M101.13,163.89a8.13,8.13,0,0,1-3,2.17c-3,1.48-6,2.79-9.45,2.74-.89-.79-.16-1.41.22-2.06a16.56,16.56,0,0,1,9.42-4.21,3.89,3.89,0,0,1,2.35.28C101,163.07,101.38,163.34,101.13,163.89Z"/><path class="cls-21" d="M80,171.94a26.36,26.36,0,0,1-11.15,4.68,3.84,3.84,0,0,1-1.51,0c-.83-.77-.11-1.29.31-1.86a16.53,16.53,0,0,1,11.62-4.28C79.92,170.76,80.53,171.05,80,171.94Z"/><path class="cls-22" d="M81,178.7a7.58,7.58,0,0,0-3.9.08c-3.16.84-6.28,1.82-8.68,4.24,0,.22-.19.3-.38.34a5.11,5.11,0,0,1-1.55-.33c-.4-.14-.52-.38-.25-.75a13.7,13.7,0,0,1,4.12-2.73,39.56,39.56,0,0,1,6.19-2.43c1.67-.34,3.33-.84,5.06-.33A3.89,3.89,0,0,1,81,178.7Z"/><path class="cls-23" d="M78,164.79a21,21,0,0,1-11.14,4.39c-.64-1.12.45-1.47.93-2.09a16.26,16.26,0,0,1,8.78-3.22C77.11,164,77.93,163.77,78,164.79Z"/><path class="cls-24" d="M58.05,178.94c-3.08-.53-5.83.53-8.51,1.81a12.93,12.93,0,0,0-3.12,2.12c-.76.14-1.55.44-2.06-.48A22.43,22.43,0,0,1,56.68,177a8.8,8.8,0,0,1,1.77.09C58.77,177.82,58.33,178.37,58.05,178.94Z"/><path class="cls-25" d="M79.27,170.82a17.39,17.39,0,0,0-11.52,4.23c-.54-.35-1.54.16-1.68-.91a24.27,24.27,0,0,1,13.25-5.21C80.34,169.36,80.33,169.54,79.27,170.82Z"/><path class="cls-26" d="M100.59,163c-3-.59-5.74.55-8.39,1.78A13.28,13.28,0,0,0,89,167a9.8,9.8,0,0,1-1.32-.33c-.39-.13-.37-.39-.15-.68a21.83,21.83,0,0,1,13.36-5C101.21,161.75,100.7,162.36,100.59,163Z"/><path class="cls-27" d="M76.66,164.18a18,18,0,0,0-8.88,3.23c-.55-.23-1.28-.25-1.24-1.12a24,24,0,0,1,9.36-3.7,3.13,3.13,0,0,1,1.49,0C77.61,163.3,77,163.67,76.66,164.18Z"/><path class="cls-28" d="M68,183.28l.41-.26c.37.25.32.67.43,1,.19.6.73,1.07,1.19,1A8.38,8.38,0,0,0,73.33,184a7.38,7.38,0,0,1,4.09-1.54,7.56,7.56,0,0,0,2-.67c-1.68,1.46-3.83,2-5.81,2.82-1.38.6-2.91.62-4.31,1.13-.48.17-.85-.31-1.31-.29C67,184.83,67,184.26,68,183.28Z"/><path class="cls-29" d="M68,183.28c-.3.71-1,1.43,0,2.13-.35.11-.67.4-1.06.15-1.47-.54-1.67-.87-1.5-2.43.28-.26.34-.72.76-.85C66.44,183.29,67.56,182.66,68,183.28Z"/><path class="cls-30" d="M66.54,166.29c.18.63,1,.5,1.23,1.12-.37.57-1.2.88-1,1.77a1.44,1.44,0,0,1-1.76-.61c-.29-.59.3-1,.65-1.38S66.06,166.4,66.54,166.29Z"/><path class="cls-31" d="M44.36,182.39c.6.52,1.41.18,2.06.48-.4.59-1,1.13-.58,1.95a1.51,1.51,0,0,1-1.89-.54C43.45,183.6,44,183,44.36,182.39Z"/><path class="cls-32" d="M87.5,166c-.07.39.12.49.47.5s.83,0,1,.51c-.36.55-.85,1.08-.34,1.8-.8,0-1.71,0-2-.91A1.72,1.72,0,0,1,87.5,166Z"/><path class="cls-33" d="M81,178.7c-.2-.76.26-1.32.61-1.91a1.66,1.66,0,0,1,1.6,1.29c-.27.75-.41,1.61-1.46,1.69A1.52,1.52,0,0,0,81,178.7Z"/><path class="cls-34" d="M66.07,174.14c.37.65,1.42.05,1.68.91-.37.48-.82.93-.45,1.6h-.13c-.68,0-1.56.14-1.84-.51A1.72,1.72,0,0,1,66.07,174.14Z"/><path class="cls-35" d="M76.53,177.12c-2,.89-3.94,2.1-6.19,2.43C71.93,177.54,74.3,177.5,76.53,177.12Z"/><path class="cls-36" d="M100.59,163c-.47-.74.27-1.32.27-2,.64.11,1.4.23,1.44,1a1.68,1.68,0,0,1-1.17,1.88A1.2,1.2,0,0,0,100.59,163Z"/><path class="cls-37" d="M79.27,170.82a3.79,3.79,0,0,1,.39-1c.48-.57-.06-.65-.34-.88.77-.14,1.62.09,1.8.73A2,2,0,0,1,80,171.94C80.22,171.27,79.77,171,79.27,170.82Z"/><path class="cls-38" d="M58.05,178.94c-.24-.69.4-1.19.4-1.82.56.15,1.3.19,1.35.92a2,2,0,0,1-1.13,2A1.43,1.43,0,0,0,58.05,178.94Z"/><path class="cls-39" d="M76.66,164.18c-.14-.71.6-1,.73-1.63,1.68.55,1.81,1.06.56,2.24C77.69,164.22,77.11,164.35,76.66,164.18Z"/><path class="cls-15" d="M65.46,183.13a2.83,2.83,0,0,0,1.5,2.43C65.21,185.46,64.68,184.61,65.46,183.13Z"/><path class="cls-15" d="M81.73,179.77c.79-.31,1-1.13,1.46-1.69a2.13,2.13,0,0,1-1.61,2.27Z"/><path class="cls-40" d="M71.82,225.89a22,22,0,0,1,8.89,11.48,20.53,20.53,0,0,1,.33,3.5,1.42,1.42,0,0,1-.8,1.78A8.75,8.75,0,0,1,78,240.44a11.76,11.76,0,0,0-1-1.11,7,7,0,0,0-2.48-1.69,27.37,27.37,0,0,1-3.71-1.58c-1-.62-1.92.09-2.87.34a2.35,2.35,0,0,1-.93-1,14.81,14.81,0,0,1-2.14-5.79,6.49,6.49,0,0,1,.17-2.77,3.15,3.15,0,0,1,3.84-2.26A8.78,8.78,0,0,1,71.82,225.89Z"/><path class="cls-41" d="M80.31,242.53c.5-.44.51-1.09.73-1.66a3.8,3.8,0,0,1-3,5.15,8.29,8.29,0,0,1-5.63-1.61,22,22,0,0,1-8.94-11.17c-.08-.23-.79-.76.15-.88a39,39,0,0,1,3.59,2.94l.78,1.06a13.19,13.19,0,0,1,2.19,2.35,15.72,15.72,0,0,0,5.18,4A4.47,4.47,0,0,0,80.31,242.53Z"/><path class="cls-42" d="M57,216.62c1.36.45,1.27,1.78,1.51,2.76a7.93,7.93,0,0,1-.35,5.8c-2.27,1.92-4.65,1.56-7,.19A18.93,18.93,0,0,1,42,212.55c0-.1.07-.23.12-.39l.73.69c1.15.76,1.58,2.13,2.53,3.05a19.27,19.27,0,0,1,1.09,1.63,15.36,15.36,0,0,0,5.78,5.73c1.55.82,3.17,1.26,4.69-.13,1.09-1.64.48-3.34.18-5C57.06,217.61,56.72,217.15,57,216.62Z"/><path class="cls-27" d="M67.26,235.3a9.41,9.41,0,0,1-3.59-2.94,7,7,0,0,1-1.15-5.06c1-3.19,3.44-4.33,6.47-3,1,.44,2.16.54,2.83,1.55-.79-.3-1.55-.68-2.36-.9-2.55-.72-4.28.5-4.4,3.15S66,233.07,67.26,235.3Z"/><path class="cls-43" d="M45.19,216a11.71,11.71,0,0,1-2.32-3.18L42,210.69c.41-3.83,3.3-4.81,6.32-3.36,3.93,1.9,7.16,4.68,8.5,9.1-.58.09-.68-.4-.87-.75a16,16,0,0,0-5.55-6,8.15,8.15,0,0,0-2.56-1.05,2.6,2.6,0,0,0-3.39,2.69,10,10,0,0,0,.58,3.37C45.2,215.13,45.47,215.55,45.19,216Z"/><path class="cls-44" d="M122.42,205.17l0,.28a2.33,2.33,0,0,1-2.6.18,7.44,7.44,0,0,0-9,4,11.06,11.06,0,0,1-.83,2c-.27.4-.5.94-1.17.67a13.13,13.13,0,0,1-1.47-8.36,17,17,0,0,1,1.44-5.36c1.18-2.17,2.65-4,5.34-4.14S118.64,196,120,198A14.3,14.3,0,0,1,122.42,205.17Z"/><path class="cls-45" d="M107.35,204a18.27,18.27,0,0,0,1.68,8.36c.44.36.92.7.72,1.39l-.39,1a3.73,3.73,0,0,1-1.11-2.36,2.89,2.89,0,0,0-1-2,.69.69,0,0,1-.25-.9,3.35,3.35,0,0,0-.09-2.9A2.33,2.33,0,0,1,107.35,204Z"/><path class="cls-46" d="M109.75,213.7l-.72-1.39c1.13-.87,1.26-2.27,1.74-3.45.84-2.1,2.62-2.8,4.52-3.44,1.34-.46,2.71-1,4-.32a6.05,6.05,0,0,0,2.44.47,2.34,2.34,0,0,0,.62-.12,13.59,13.59,0,0,1-1.79,8.62c-2.46,4.06-6.75,4.38-9.86.78C110.4,214.47,110.08,214.09,109.75,213.7Z"/><path class="cls-47" d="M45.19,216a13.12,13.12,0,0,1-1.08-4.53c0-2.51,1.7-3.87,4.1-3.16,3.73,1.1,6,3.85,8,7,.22.35.43.71.65,1.07a.18.18,0,0,0,.11.19,13.93,13.93,0,0,1,1,4,3.25,3.25,0,0,1-.8,2.77c-.88-.29-1.09-1.23-1.6-1.84a11.37,11.37,0,0,0-2.43-2.13c-2.06-1.41-4.25-2.35-6.83-1.64Z"/><path class="cls-48" d="M80.31,242.53c-1,1.51-2.46,1.34-3.84.92a13,13,0,0,1-6.4-4.53,1.53,1.53,0,0,1-.31-.54c-.31-.67-.61-1.4,0-2s1.25-.15,1.88.09A22,22,0,0,1,77,239.13C78.34,240.07,79.12,241.49,80.31,242.53Z"/><path class="cls-49" d="M77,239.13c-1.73-.78-3.45-1.58-5.19-2.35a7.83,7.83,0,0,0-1.08-.3c-.91-.26-1.18.1-1,1,.11.48.19,1,.28,1.47a8.28,8.28,0,0,1-2-2.56,1.9,1.9,0,0,1,2.64-.67c1.47.89,3.16,1.19,4.64,2A4.49,4.49,0,0,1,77,239.13Z"/><path class="cls-50" d="M46.27,217.78c.24-.5.51-.9,1.15-.52a.79.79,0,0,0,.49.11c3-.59,4.88,1.56,7,2.94a5.36,5.36,0,0,1,2.26,3.08c-.94,1.16-2.18,1.14-3.45.78a12.37,12.37,0,0,1-5.71-4A28.54,28.54,0,0,1,46.27,217.78Z"/><path class="cls-51" d="M257.34,173.88a6,6,0,0,1-3.9-.21c-1.82-.6-2.06-.42-2.58,1.39-2.65,9.2-5.35,18.38-7.9,27.6-.88,3.2-3.6,5.42-7.53,4.19-7.06-2.2-14.21-4.12-21.31-6.17a2.21,2.21,0,0,0-2.32.32,2.84,2.84,0,0,1-2.74.31q-10.86-3.08-21.7-6.21a3,3,0,0,1-2.25-2c-.23-.79-.77-1-1.43-1.18l-21.33-6.13c-3.58-1-4.52-2.15-4.85-5.86q4.29-14.94,8.59-29.87c.32-1.09.08-1.67-1.06-1.88a12.36,12.36,0,0,1-1.68-.48,3.9,3.9,0,0,1-2.69-4.95q2.57-9.24,5.28-18.43c.52-1.73,1.8-3.08,2.8-4.55,3.16-4.64,6.35-9.25,9.54-13.87a7.27,7.27,0,0,1,2.38-2.52c.51-.27.58-.78.73-1.25a38.83,38.83,0,0,1,1.94-5.81c4.11-7.94,12.67-9.63,19.89-5.93a15.17,15.17,0,0,1,7,7,89.31,89.31,0,0,0,6.7,11,1.55,1.55,0,0,0,.9.63c3.13.9,6.26,1.78,9.37,2.71a3.2,3.2,0,0,0,2.3-.09,93.65,93.65,0,0,0,12.24-6c6.56-4.12,16.16-2.18,20.67,3.69,2.61,3.41,3.07,7.18,2.42,11.22a21.31,21.31,0,0,1-.59,2.18c-.53,1.9-1,3.63-.25,5.77.85,2.38.45,5.11.56,7.68.22,4.83.42,9.66.63,14.48a7.6,7.6,0,0,1-.28,2.47c-1.66,5.74-3.33,11.48-4.93,17.23A4.92,4.92,0,0,1,257.34,173.88Z"/><path class="cls-52" d="M266.78,151.66c0,.22-.15.35-.33.33s-.26-.17-.21-.34a.28.28,0,0,1,.37-.21C266.69,151.47,266.74,151.6,266.78,151.66Z"/><path class="cls-53" d="M188.29,187.24l-24.91-7.18c-2.47-.71-3.22-2-2.51-4.49q3.58-12.47,7.19-24.91c.76-.61,1.53-.2,2.27,0,5.55,1.57,11.09,3.17,16.63,4.76,2.61.75,5.23,1.49,7.83,2.26a3.26,3.26,0,0,1,1.85,1,2.87,2.87,0,0,1-.08,2q-3.57,12.54-7.2,25.06C189.18,186.29,189.11,187,188.29,187.24Z"/><path class="cls-54" d="M249,173.89q-3.64,12.77-7.3,25.53a3,3,0,0,1-4,2l-25.29-7.24c-.61-.65-.21-1.35,0-2,1.14-4.1,2.33-8.18,3.5-12.27s2.34-8.18,3.53-12.26a3.54,3.54,0,0,1,1.06-2.07,2.68,2.68,0,0,1,1.95.05q12.45,3.54,24.88,7.15C248,173,248.72,173.07,249,173.89Z"/><path class="cls-55" d="M263.09,151.29c.29.47,0,.89-.14,1.31q-2,6.93-4,13.85c-.54,1.87-1.38,2.32-3.26,1.78l-4.57-1.32a2.63,2.63,0,0,1-2,0q-12.58-3.58-25.14-7.22a2.17,2.17,0,0,1-1.66-1.19,3.33,3.33,0,0,1,.16-1.85q1.86-6.63,3.8-13.24a4.67,4.67,0,0,1,1-2c.89-.5,1.72,0,2.53.2q12.89,3.66,25.76,7.39C258.14,149.77,260.66,150.37,263.09,151.29Z"/><path class="cls-53" d="M169.91,143.59c-1.56-.44-3.13-.87-4.69-1.34a2,2,0,0,1-1.58-2.75q2.09-7.29,4.19-14.56c.09-.31.11-.68.49-.83a20.64,20.64,0,0,1,2.07.46q15.36,4.43,30.72,8.84a3.75,3.75,0,0,1,2.42,1.18,1.77,1.77,0,0,1-.07,1.22c-1.44,5.18-3,10.31-4.39,15.52a1,1,0,0,1-.29.4c-.83.6-1.68.27-2.51,0q-9.37-2.65-18.73-5.36c-2-.57-3.93-1.12-5.88-1.7A2.77,2.77,0,0,1,169.91,143.59Z"/><path class="cls-56" d="M198.58,151.52c1.74-5.59,3.31-11.23,4.86-16.88l.21,0a.77.77,0,0,1,.26.33,1.9,1.9,0,0,1,.07,2.12,111.51,111.51,0,0,0-3.62,11.15,7.84,7.84,0,0,0-.08,2.73c.05.78.67,1.07,1.29,1.38s1.28.61.7,1.49a2.57,2.57,0,0,1-1.83-.12,1.4,1.4,0,0,0-1.92,1.05c-.22.72-.43,1.44-.62,2.17a1.38,1.38,0,0,0,1.09,1.89c1.35.41,2.73.77,4.08,1.2,1.63.53,1.8.83,1.33,2.45q-3.65,12.75-7.31,25.5a13,13,0,0,0-.59,2.68.93.93,0,0,1-.48.76l-6.28-1.75c-1.78-.5-1.87-.67-1.45-2.46a5.71,5.71,0,0,0,.3-.67q3.9-13.56,7.78-27.1a4.31,4.31,0,0,0,.1-.61c-.07-.2-.25-.39-.22-.58C196.66,155.9,196.89,153.46,198.58,151.52Z"/><path class="cls-57" d="M220.55,165.76c-.37,1.2-.76,2.39-1.1,3.59q-3.4,11.79-6.78,23.6c-.11.4-.17.81-.25,1.21-.6,1.77-.73,1.84-2.52,1.32-2.08-.6-4.16-1.22-6.25-1.84-.35-1.09.32-2,.55-3a13.08,13.08,0,0,0,1-2.7l6.6-23c.55-1.89.88-2.13,2.78-1.55s4,.82,5.79,1.93A.75.75,0,0,1,220.55,165.76Z"/><path class="cls-58" d="M263.09,151.29c-.32.45-.74.3-1.13.18l-34.49-9.93-.2-.1a1.35,1.35,0,0,1-.36-1.27,31.75,31.75,0,0,1,.53-4.34c.89-1.28,1.23-1.31,2.52-.52A44.91,44.91,0,0,0,245,141.15a30.16,30.16,0,0,0,10.07.35,7.8,7.8,0,0,0,3.81-1.46,2.54,2.54,0,0,0,1-3,6.4,6.4,0,0,0-1.82-2.95,1.8,1.8,0,0,1-.76-1.62,1.31,1.31,0,0,1,.45-1c1.15-1.18,1.7-2.74,2.57-4.1a.91.91,0,0,1,.56-.28,3.05,3.05,0,0,1,1.27,2.46C262.5,136.81,262.79,144.05,263.09,151.29Z"/><path class="cls-59" d="M203.44,134.64l-28-8c-2-.58-4.09-1.17-6.12-1.77-.42-.12-1-.12-1-.76L175.91,113l4.27-6.3a3.93,3.93,0,0,1,2.53-1.89,2.09,2.09,0,0,1,.37,1.76,10.67,10.67,0,0,0-.06,3.24,2.17,2.17,0,0,1-.14,1.35,1.54,1.54,0,0,1-1.24.93,10.27,10.27,0,0,0-2.34.86c-2.08,1-2.56,2.95-1.22,4.89a13.7,13.7,0,0,0,3.84,3.71,42.6,42.6,0,0,0,19.26,6.4c1.37.13,2.74,0,4.12,0,.68,0,1.24.13,1.46.87a1.82,1.82,0,0,1-.22,1.19c-.52,1.25-1.35,2.36-1.8,3.65a1.83,1.83,0,0,1-1.15,1A.26.26,0,0,0,203.44,134.64Z"/><path class="cls-60" d="M203.13,193.52l-6.48-1.86c-.49-.57-.25-1.2-.09-1.79q3.94-13.83,7.94-27.66a1.24,1.24,0,0,1,1.66-1.21,41.42,41.42,0,0,1,5.11,1.48,1.69,1.69,0,0,1,.77.6,2.1,2.1,0,0,1-.13,1.46c-2.4,8.37-4.77,16.76-7.25,25.1C204.27,191,204.13,192.42,203.13,193.52Z"/><path class="cls-61" d="M222.65,158.43a3.78,3.78,0,0,0,1.8.81l26.7,7.67c-.73,2.33-1.45,4.65-2.17,7l-28.43-8.13a.8.8,0,0,0-.13-.13,2.85,2.85,0,0,1,.12-1.93,26.38,26.38,0,0,1,1.41-4.33C222.14,159,222.21,158.59,222.65,158.43Z"/><path class="cls-62" d="M198.58,151.52a68.92,68.92,0,0,1-2.11,7.33c-.87-.27-1.74-.57-2.62-.83l-25.79-7.36c.62-2.36,1.24-4.71,1.85-7.07l26.71,7.66A3.66,3.66,0,0,0,198.58,151.52Z"/><path class="cls-63" d="M182.51,106.3l.2-1.51,1.26-4.12c.67-.84.9-1.94,1.7-2.73a7,7,0,0,1,5.92-2.32,8,8,0,0,1,4.78,1.11,19.26,19.26,0,0,1,8.78,9.07c.62,1.28,1.54,2.37,2.09,3.68a11.8,11.8,0,0,1,1.95,2.56,29.4,29.4,0,0,0,4.72,5.71.75.75,0,0,1,.15.34,24.6,24.6,0,0,1-1.78,5.18c-.79,1.41-1.48,1.5-2.52.22a64.31,64.31,0,0,1-6.88-9.95c-.69-1.28-1.41-2.55-2.13-3.82-.2-1.11-1.17-1.67-1.8-2.45a18.71,18.71,0,0,0-5.66-4.65,7.73,7.73,0,0,0-6.5-.53,10.44,10.44,0,0,0-3.12,3.26C183.43,105.79,183.18,106.35,182.51,106.3Z"/><path class="cls-64" d="M211.67,123.22c.83-1.72,1.31-3.57,2-5.35a1.32,1.32,0,0,1,0-1.51,9.32,9.32,0,0,0,.67-2,16.49,16.49,0,0,0,.93-2.11,1.3,1.3,0,0,1,1.11-1,3.16,3.16,0,0,1,2,0c3.4,1,6.82,2,10.23,3a1.39,1.39,0,0,1,.83,1.89,3.94,3.94,0,0,0-.28,1.92c-.41,1.3-.53,2.66-.95,4a25.36,25.36,0,0,1-.79,4,3.24,3.24,0,0,1-1,1.67,2.6,2.6,0,0,1-1.82-.16c-3.74-1-7.46-2.11-11.18-3.2C212.72,124.12,212,124,211.67,123.22Z"/><path class="cls-63" d="M226.38,127.39l1.35-5.53a14.18,14.18,0,0,1,4.2-1.78c1.95-.69,3.84-1.53,5.76-2.31a64.57,64.57,0,0,1,6.59-3.56,19.56,19.56,0,0,1,10.14-1.54c1.33.71,2.81,1,4.15,1.67a7,7,0,0,1,3.69,6.54,6.7,6.7,0,0,0-.13,1.73l-1.22,4.5-.27.38c-.65-.17-.57-.74-.57-1.19a16.35,16.35,0,0,0-.63-3.74c-1.61-2.66-4.15-3.55-7.07-3.65-3.49-.13-6.7,1-9.9,2.22-.19.07-.31.26-.45.42a71.54,71.54,0,0,1-12.84,5.87c-.56.2-1.13.31-1.69.47S226.56,128,226.38,127.39Z"/><path class="cls-65" d="M228.59,117.9c-.19-1.21.82-2.43,0-3.63a128.21,128.21,0,0,0,15.56-7.43c3.46-2,7.26-1.65,10.91-.32a11.5,11.5,0,0,1,7.36,7.16,10,10,0,0,1,.59,4.16.7.7,0,0,1-.79-.64,14.5,14.5,0,0,0-2.7-5.25,4.2,4.2,0,0,0-2.63-1.73c-.21,0-.48-.06-.58-.21-.84-1.35-2-.85-3.07-.51a1.45,1.45,0,0,1-.37,0,18.22,18.22,0,0,0-8.08,1.23,63,63,0,0,0-5.81,3.18,3.61,3.61,0,0,0-1.38.55,79,79,0,0,1-7.47,3.47C229.59,118.2,229.07,118.38,228.59,117.9Z"/><path class="cls-66" d="M216.35,111.29l-1.44,3.15c-.73.22-1-.31-1.39-.77a56.38,56.38,0,0,1-4.79-7.08,7.7,7.7,0,0,0-.63-.76c-1.46-2.6-2.37-5.54-4.49-7.75-3-3.12-6.49-5.18-11-4.79a7.81,7.81,0,0,0-4.6,1.87c-.42.35-.87.92-1.45.18a10,10,0,0,1,8.77-4.66c5.79,0,10.37,2.34,13,7.8A85.72,85.72,0,0,0,215.44,110C215.75,110.39,216.05,110.84,216.35,111.29Z"/><path class="cls-67" d="M259.85,111.7c1.78,1.67,2.5,3.88,3.12,6.14a12.73,12.73,0,0,1-.84,4.77c-.52-.78-.29-1.69-.41-2.53-.43-3.28-2.41-5.14-5.38-6.18-.71-.24-1.42-.46-2.13-.69.1-.58.54-.52.95-.49a4.52,4.52,0,0,1,.73.16c1.84.45,1.84.45,2.9-1.07a.85.85,0,0,1,.51-.34A.76.76,0,0,1,259.85,111.7Z"/><path class="cls-68" d="M186.53,95.34c.39,0,.59-.25.84-.46a8.81,8.81,0,0,1,5.15-2.2,4.48,4.48,0,0,1-1,3.35c-3,0-5.19,1.61-6.85,4a1.41,1.41,0,0,1-.71.65A11.47,11.47,0,0,1,186.53,95.34Z"/><path class="cls-69" d="M196,191.45l.11-.71a4,4,0,0,1,.3-1.33q3.87-13.54,7.76-27.07c.17-.59.45-1.16,0-1.79-.19-.28,0-.66,0-1a33.86,33.86,0,0,1,1.52-4.9c1.73-5.14,3-10.41,4.6-15.6.23-.74.29-1.59,1.07-2a.39.39,0,0,1,.45.11c.28.6,0,1.14-.19,1.69q-2.24,7.88-4.51,15.74c-3.8,11.95-7.14,24-10.62,36.08-.09.3-.07.68-.43.86h-.08Z"/><path class="cls-70" d="M203.13,193.52q3.78-13.11,7.57-26.22c.39-1.36.76-2.73,1.14-4.09a2.09,2.09,0,0,1-.06-1.68c.44-1.6.86-3.19,1.42-4.75,1.42-5.49,3.07-10.91,4.64-16.36a1.83,1.83,0,0,1,.84-1.33.44.44,0,0,1,.46.11c.27.55,0,1.06-.15,1.57-2.07,7.23-4,14.48-6.24,21.66-2.71,8.86-5.13,17.8-7.77,26.68-.45,1.51-1,3-1.5,4.49Z"/><path class="cls-71" d="M203.48,193.6q2.46-8.61,4.91-17.23,5.33-18.6,10.67-37.21a.38.38,0,0,1,.4.21,2.85,2.85,0,0,1-.15,1.95c-1.46,5.15-2.91,10.31-4.44,15.45-.28.83-.4,1.71-.7,2.53-3.81,10.15-6.28,20.71-9.41,31.07a1.22,1.22,0,0,1-.22.44c-.3.94-.59,1.89-.89,2.83h-.09Z"/><path class="cls-72" d="M196.16,191.5q2-6.8,4-13.59l6.78-23.45a.32.32,0,0,1,.36.2,2.59,2.59,0,0,1,.07.92,44.1,44.1,0,0,1-1.24,4.54,1.84,1.84,0,0,1-.85,1.17c-1.15,3.93-2.31,7.85-3.45,11.79q-2.4,8.29-4.76,16.62a5.68,5.68,0,0,0-.37,2Z"/><path class="cls-57" d="M222.65,158.43l-.43,1a1.14,1.14,0,0,1-.41-.07c-1.55-.38-1.83-.76-1.42-2.27,1-3.54,2-7.05,3-10.58.12-.44.25-.88.37-1.32.43-1.62.18-2-1.48-2a2.32,2.32,0,0,1-2.51-2c-.26-1.09.09-1.57,1.19-1.68a6.2,6.2,0,0,1,2.1.19,29.74,29.74,0,0,1,3.22.95,1.58,1.58,0,0,1,.8.62l.24.19a.18.18,0,0,1,.14,0C225.79,147.15,224.12,152.76,222.65,158.43Z"/><path class="cls-73" d="M211.55,137q-2.38,8.33-4.78,16.64a7.1,7.1,0,0,1-.54,1.11,3.53,3.53,0,0,1-3.85-1.1,8.44,8.44,0,0,0-.88-.7c-.58-.36-1.54-.24-1.73-1a6.67,6.67,0,0,1-.13-3.2,98.22,98.22,0,0,1,3.91-12.11c.26-.66-.07-1.23.09-1.83.34-.43.8-.36,1.25-.26,1.93.46,3.83,1,5.71,1.64C211,136.31,211.46,136.49,211.55,137Z"/><path class="cls-74" d="M211.55,137l-7.91-2.24a.35.35,0,0,1-.06-.14c.95-1.94,1.89-3.89,2.84-5.84a3.15,3.15,0,0,1,1-2.84c1.75-.88,3.15-.25,3.42,1.59.13.89.73,1.22,1.48,1.49,1.05.37,2.24.38,3.09,1.25.28.66-.08,1.2-.35,1.75-.73,1.43-1.49,2.85-2.2,4.3a1.19,1.19,0,0,1-1,.71Z"/><path class="cls-75" d="M202.38,153.68l3.85,1.1c-3,11.62-6.39,23.12-9.69,34.65-.13.44-.27.87-.41,1.31a3.25,3.25,0,0,1,.28-1.71q3.76-13.14,7.54-26.27c.49-1.71.48-1.71-1.27-2.21s-3.21-.94-4.82-1.37c-.82-.22-1.09-.62-.83-1.46.43-1.35.81-2.72,1.18-4.09.21-.79.64-1,1.39-.75C200.52,153.17,201.45,153.41,202.38,153.68Z"/><path class="cls-76" d="M222.14,159.28a.44.44,0,0,1,.08.11,46.79,46.79,0,0,1-1.8,6.24l-6-1.71c-1.72-.48-1.79-.44-2.28,1.24q-3.45,12-6.91,24.06a3.13,3.13,0,0,1-.67,1.59l7.91-27.59c.63-2.2,1.28-4.41,1.91-6.61.77-.31,1.33.3,2,.45A27.81,27.81,0,0,1,222.14,159.28Z"/><path class="cls-77" d="M215.2,130.52c-1.27-.37-2.54-.77-3.83-1.12a1.41,1.41,0,0,1-1.19-1.75c.3-1.26-.29-1.44-1.28-1.41a10.24,10.24,0,0,1-1.23-.12,4.73,4.73,0,0,1-3.65-.29c-2-3.68-5.28-6-8.91-7.75a33.09,33.09,0,0,0-6.19-2.37c-1.44-.39-2.92-.23-4.34-.58a4.18,4.18,0,0,1-2-3.54c0-.25.13-.49-.11-.68.09-1.54-.36-3.08.08-4.61a9.6,9.6,0,0,1,4-4.64,17,17,0,0,1,3.75,2.19,49.25,49.25,0,0,0,8.14,4,9.24,9.24,0,0,1,2.8,1.58c1.6,2.38,2.7,5.06,4.36,7.42s3.22,4.44,4.91,6.6c.62.79,1,.63,1.19-.25l14.71,4.17c1.05.26,1.94-.33,2.85-.64a73.48,73.48,0,0,0,12.5-5.64c1.29-.38,2.48.19,3.7.4a47.52,47.52,0,0,0,13.2.74,3.14,3.14,0,0,1,1.35.24,12.67,12.67,0,0,1,.66,5c-.32,2-1.67,3.41-2.85,4.92a3.62,3.62,0,0,1-3.35,2.47,53.71,53.71,0,0,0-6.64-2.53c-5.18-1.19-10.25-1.24-15.21.93-.31.14-.55.39-.87.5-1.37.14-2.28-1-3.5-1.25-1.06-.48-2-.59-2.84.52a1.78,1.78,0,0,1-1.95.4c-1.49-.35-2.92-.92-4.42-1.25-.91-.25-1.81-.5-2.7-.8A1.49,1.49,0,0,1,215.2,130.52Z"/><path class="cls-55" d="M254.48,134.46a12.72,12.72,0,0,0,3.31-2.05c-.13.61.34.89.7,1.22a7.3,7.3,0,0,1,2.08,3.51,3,3,0,0,1-1.24,3.38c-2.41,1.72-5.21,1.85-8,1.89a39.51,39.51,0,0,1-13.1-2.47,33,33,0,0,1-8.93-4.44c-.72-.51-1-.29-1.26.43a.51.51,0,0,1-.46-.34,3.39,3.39,0,0,1,.85-3.37c.81-.27,1.31.4,2,.63.47.16.95.29,1.42.44a6.2,6.2,0,0,1,2.83.34,36.91,36.91,0,0,0,10.51,2,21,21,0,0,0,6.55-.64C252.6,134.72,253.55,134.66,254.48,134.46Z"/><path class="cls-78" d="M228.41,132.22a10.58,10.58,0,0,0-.39,3.71c-.48,1.83-.26,3.74-.69,5.57a.38.38,0,0,1-.12.09.61.61,0,0,1-.67-.26l-3.63-1.05c-1.22-.34-2.56-.23-3.65-1l-.2-.1-.15,0a1.36,1.36,0,0,1-.56-1.11c.13-1.71.3-3.4.49-5.1a1.67,1.67,0,0,1,.52-1.22c1.37.39,2.74.74,4.09,1.16a1.49,1.49,0,0,0,2.1-1c.31-.93.78-1,1.47-.48C227.46,131.72,228.06,131.76,228.41,132.22Z"/><path class="cls-79" d="M182.43,110.91c.73.76.79,1.86,1.36,2.71.25.36.37.83.79,1.08,1.74,1.15,3,2.84,4.75,4a35.63,35.63,0,0,0,9.86,4.75c1.7.5,3.52.75,5,1.85,1.07.67,2.42.08,3.48.8a12.92,12.92,0,0,1-1.25,2.69c-.28-.46-.71-.33-1.12-.31a41,41,0,0,1-23.84-6.56,12.72,12.72,0,0,1-3.91-3.82c-1.52-2.3-1-4.45,1.47-5.71a10.59,10.59,0,0,1,2.44-.93C181.82,111.4,182.36,111.52,182.43,110.91Z"/><path class="cls-80" d="M205.23,161.29A41.92,41.92,0,0,1,207,155.2a1.1,1.1,0,0,1,1.22-.4,42,42,0,0,1,4.66,1.34,1.24,1.24,0,0,1,.77.76,57.46,57.46,0,0,1-1.8,6.31Z"/><path class="cls-81" d="M191.53,96a5.27,5.27,0,0,1,1-3.35c5.21-.31,9.12,2,12.31,5.94,1.72,2.1,2.53,4.68,3.79,7a5.66,5.66,0,0,1-.55,3.68c-.19.47-.48.9-1.11.55-1.75-2.25-2.68-5-4.44-7.23-2.4-3-5.28-5.43-9.15-6.36C192.77,96.15,192.14,96.11,191.53,96Z"/><path class="cls-82" d="M201.21,109.45a42.54,42.54,0,0,1-10.58-4.67c-1.07-.64-2.09-1.35-3.13-2-.4-.27-.86-.52-1-1.07a7.25,7.25,0,0,1,6.84.35A18.77,18.77,0,0,1,201.21,109.45Z"/><path class="cls-83" d="M207,109.88c.82-.32.69-1.15.92-1.76.29-.81.49-1.65.74-2.48,2.13,2.91,3.85,6.12,6.29,8.8a19,19,0,0,1-1.24,3.43,1.56,1.56,0,0,1-1.24-.68A68.18,68.18,0,0,1,207,109.88Z"/><path class="cls-84" d="M228.59,117.9a82.57,82.57,0,0,0,8.6-3.84,12.92,12.92,0,0,1,1.5-.58c.5.44.28,1,.18,1.48a24.49,24.49,0,0,1-1.05,3.24,58.83,58.83,0,0,1-9.36,3.67,2.56,2.56,0,0,1-.73,0A15.31,15.31,0,0,1,228.59,117.9Z"/><path class="cls-85" d="M237.82,118.2c-.47-.38-.23-.83-.11-1.26.31-1.15.65-2.3,1-3.46,2.73-1.61,5.36-3.39,8.53-4.11a21.87,21.87,0,0,1,5.59-.41c2.14-.14,3.94.83,5.77,1.72a1.07,1.07,0,0,1,.73.91c-.75,2.63-.75,2.62-3.3,1.91a3.27,3.27,0,0,0-1.8-.29,20.08,20.08,0,0,0-9.4,1.43c-2,.86-3.9,2-5.85,3C238.59,117.89,238.2,118,237.82,118.2Z"/><path class="cls-86" d="M260,122.49c-1.24.67-2.6.48-3.92.52a43,43,0,0,1-14.33-1.9c4.62-2.5,9.42-3.69,14.6-2A6.25,6.25,0,0,1,260,122.49Z"/><path class="cls-87" d="M259.31,111.59c-1-1.27-2.56-1.48-4-1.93-.84-.27-1.69-.47-2.53-.7.7-.24,1.48-.08,2.17-.46a.64.64,0,0,1,.94.34c.31.76.91.92,1.65,1.09a3.72,3.72,0,0,1,2.28,1.77Z"/><path class="cls-88" d="M211.79,137.06l.49-.83c.39.33.28.75.2,1.16a27.32,27.32,0,0,1-1.11,4.36c-1,3.7-2.09,7.39-3.19,11.07-.19.65-.23,1.45-1.09,1.69l-.2,0q2.21-7.74,4.39-15.47C211.46,138.35,211.62,137.7,211.79,137.06Z"/><path class="cls-89" d="M207.09,154.51q2.52-8.67,5-17.35c.62-.49,1.27-.2,1.9,0,1.6.4,3.14,1.11,4.86.93a1.66,1.66,0,0,1,0,1.1,33.65,33.65,0,0,0-1.38,4.41c-1.31,4.45-2.59,8.9-3.89,13.35-2.23-.51-4.35-1.45-6.65-1.7C207,155,207.06,154.74,207.09,154.51Z"/><path class="cls-90" d="M219.26,139.26l3.65,1c-.66.21-1.22-.15-1.83-.26s-1,.1-.81.89a1.84,1.84,0,0,0,2.21,1.65,8.42,8.42,0,0,1,.87,0c1.4.13,1.65.48,1.25,1.86-1.2,4.21-2.43,8.41-3.6,12.62-.22.79-.89,2,1,1.59.45-.09.17.41.15.66-2.65-.72-5.43-1.06-7.78-2.68Q216.82,147.93,219.26,139.26Z"/><path class="cls-90" d="M226.54,141.33l.67.26c-.08.12-.17.34-.24.33C226.63,141.89,226.63,141.57,226.54,141.33Z"/><path class="cls-91" d="M218.88,138c-.25.77-.79.86-1.49.65-1.75-.52-3.51-1-5.27-1.53,0-.31.1-.62.16-.93.92-1.93,1.83-3.87,2.93-5.7l4.15,1.18C219.56,133.85,219.05,135.93,218.88,138Z"/><path class="cls-92" d="M254.48,134.46c-2.2,1.45-4.71,1.7-7.24,1.79a39.74,39.74,0,0,1-15.45-3c4-2.56,8.37-2.6,12.83-2.14a26.35,26.35,0,0,1,7.92,2.22C253.23,133.68,253.68,134.39,254.48,134.46Z"/><path class="cls-93" d="M204.19,125.32A42.6,42.6,0,0,1,191.88,121a25.12,25.12,0,0,1-6.13-4.6,4.54,4.54,0,0,1-1.17-1.73c5.8-.08,10.7,2.42,15.32,5.55A11,11,0,0,1,204.19,125.32Z"/><path class="cls-94" d="M100.57,101.17l-3.3,1.69-3.63,1.85s-8.19,6.08-10.6,13.67a11.4,11.4,0,0,0-.43,6.1,10,10,0,0,0,1.3,3.18,17.43,17.43,0,0,0,1,2.25,36,36,0,0,0,13.42,12.64h0a39.38,39.38,0,0,0,10.09,4.73c6.86,2.3,13.85,3.28,20.94,1.67a14.51,14.51,0,0,0,8.48-5,15.64,15.64,0,0,0,2-3.68,23.45,23.45,0,0,0,2-7.51,22.85,22.85,0,0,0-1.09-8.85c-.84-2.86-1.28-3.58-2.59-7.09-.77-2.06-.92-5.79-.85-10a49.92,49.92,0,0,1,1.51-12.6,2.22,2.22,0,0,1,2.68-1.89c2.39.12,4.82-.09,5.83-2.76h0a1.92,1.92,0,0,0,.47-1.77s.12-.08.11-.1,0,0,0,0a.24.24,0,0,0-.09-.23,10.67,10.67,0,0,1-.6-2.87c-.12-1.53-.23-3,.74-4.1a3.5,3.5,0,0,1,2.29-1.1,1.22,1.22,0,0,0,1.17-.62,11,11,0,0,0,3.1-2A4,4,0,0,0,156.3,75h0l1-1.16a1.25,1.25,0,0,0,.72-1,10.73,10.73,0,0,0,2.17-4.36h0a5.83,5.83,0,0,0,.84-2.56.38.38,0,0,0,.09-.58h0a3.18,3.18,0,0,1,.13-1.7c1.64-6.86-.32-12.43-5.17-17.39,0-.22-.77-1-1-.89a14.93,14.93,0,0,0-2.57-2.26,18.22,18.22,0,0,0-7.22-2.73c-2.1-.42-4.71-.66-4.71-.66h0l-6.91,1.44A25.6,25.6,0,0,0,129,43.26a15.09,15.09,0,0,0-3.1,2.36h0c-.35.34-.67.68-1,1-5.57,6.35-5.27,15.45-4.44,21.13a3.64,3.64,0,0,1,.11,2.33c-.8,2.53-4.54,2.64-5.64,5.59a4.59,4.59,0,0,0-.28,1.36.81.81,0,0,0,0,1.22h0c.07.77.06,1.56.85,2.07a.43.43,0,0,0,.26.42l.61.54c.35.92,1.22,1.4,1.85,2.08h0l-.33.88a41.44,41.44,0,0,1-17.34,16.91Z"/><path class="cls-95" d="M136.52,115.94c-2.4-5.35-2.51-9.11-2.18-11.52.13-.93.51-3.06.75-4.43,1.1-6.16,1.26-5.72,1.17-6.53a5.68,5.68,0,0,1,.44-2.84,1.86,1.86,0,0,1,.84-.6s.23-.19.44-.4c.92-.91,3-10.22,5.68-10.81.57-.12,1.43.09,1.57.48s-.24.52-.36,1a2.26,2.26,0,0,0,.69,1.9,9.51,9.51,0,0,1,.9,3.66,4.73,4.73,0,0,1-.34,2.4,3.81,3.81,0,0,1-1.21,1.53,6.69,6.69,0,0,1-4.17,1,2.11,2.11,0,0,0-2.46,1.81C135.58,98.05,135.2,110.36,136.52,115.94Z"/><path class="cls-96" d="M146.27,87.29a5.88,5.88,0,0,1-.22.79,9.83,9.83,0,0,1-6.85,2,1.82,1.82,0,0,0-2,1.45c-1.38,5.46-3,10.9-2.3,16.65a8.1,8.1,0,0,0,.24.8,33.09,33.09,0,0,1,1,4.58c0,1.69,1.4,3.57.62,5.3-1,2.16-.87,2.21-5.27,5.54,1.61.6,2.53.36,4.31-1.14,2.14-1.81,2.7-1.7,4,.8.78,4,0,7.83-1.27,11.47-1.52,4.43-5,7.1-9.59,8.24-6.44,1.62-12.75.8-18.93-1.24a34.14,34.14,0,0,1-9.06-4.27,1.7,1.7,0,0,1-.16-.81c0-3.2,0-3.2,3.06-2.14a10.86,10.86,0,0,0-3.94-2.86c-1.56-1.27-3.63-2.06-4.14-4.34.53-1.27,1.28-.74,2-.19a51.41,51.41,0,0,0,4.91,3.55,4.47,4.47,0,0,0,2.18.93c-.9-1.09-2.65-1.89-1.61-3.46s2.41-.39,3.65-.13a9.35,9.35,0,0,0,3.94,0c2-.45,2.44-1.65,1.11-3.16s-2.78-2.93-4.24-4.32a5,5,0,0,1-1.11-1.23c-.94-1.75-.33-2.87,1.66-2.92,1.46,0,2.92.18,4.38,0,2.3-.3,3.15-1.19,3.33-3.52a4,4,0,0,0,0-.84c-1-5.91,1.33-10.92,4.28-15.76a34.75,34.75,0,0,0,3.41-8.07c.24-.8.35-1.75,1.12-2.16,1.13-.61,2-1.14,1.15-2.59-.16-.28.17-.61.47-.84,1.69-1.3,1.77-2.63.17-4.07-.72-.65-1.48-1.27-2.2-1.92a3.07,3.07,0,0,1-1-1.12c-.19-.44-.33-.9-.49-1.35a2.76,2.76,0,0,1-.06-.57,7.7,7.7,0,0,1,.1-1.17,1.6,1.6,0,0,1,.66-1,6.91,6.91,0,0,1,3.32,0c3.31.53,6.52-.09,9.76-.63,1.46-.25,1.44-.86.59-1.75a21.29,21.29,0,0,1-3.56-5.14c-1.49-2.89-1.05-4.43,1.71-6.1,1.79-1.09,3.51-2.27,5.28-3.38a31.59,31.59,0,0,0,7.42-7,4.71,4.71,0,0,1,4.52-2,1.77,1.77,0,0,1,1,.83.26.26,0,0,1,.28.27c4.32,4.57,6.73,9.75,5.14,16.18a3,3,0,0,0-.14,1.59,2.05,2.05,0,0,1-.1.55,5.6,5.6,0,0,1-.8,2.41c-2.75,2.9-6.31,3.81-10.12,4.12-.34,0-.68.12-1,.18C143.67,73,142.16,73,144,77a4.67,4.67,0,0,1,.49,3.24c-.06.1-.14.2-.21.3a2.68,2.68,0,0,1,.13.56,10.16,10.16,0,0,1,1.3,2.38A6.8,6.8,0,0,1,146.27,87.29Z"/><path class="cls-95" d="M124.35,77c1.66,1.37,4,2.25,4,4.89,0,1,.56,2.49-1.54,2-.81-.18-.74.46-.4.91a23.5,23.5,0,0,0,1.75,1.79c-3.32-.35-3.73,1.6-4.34,3.8-1.31,4.72-4.19,8.76-6.3,13.14-1.22,2.51-1.18,5.11-1.12,7.75a23.28,23.28,0,0,1,0,3.34,3.23,3.23,0,0,1-3.28,3.16,17.74,17.74,0,0,1-4.37,0c-.71-.14-2-.39-2.16.6a2.33,2.33,0,0,0,1,2.35,27.71,27.71,0,0,1,4.71,4.6c1.9,2,1.37,3.59-1.34,4.13a8.42,8.42,0,0,1-5.32-.43c-.75-.35-1.75-.71-2.23.21s.2,1.56,1,2a4.53,4.53,0,0,1,.8.66c.39.35,1.11.64.67,1.3s-.9,0-1.31-.13c-2.7-1-4.88-2.9-7.11-4.65-.52-.4-.91-1.28-1.58-.2a2,2,0,0,1-1.75-1,24.83,24.83,0,0,1-3.7-5.32c-.83-1.73-1.53-3.46-.43-5.37a4.25,4.25,0,0,0,.26-1.86,11.27,11.27,0,0,1,1.13-4.22c.3-.62.56-1.46,1.37-1.4s1,1,1.2,1.76a6.34,6.34,0,0,1,.21,1.44c.48,5.12,3.11,9,7,12.2a7,7,0,0,0,4.65,1.63c.77,0,1.64,0,2-.84s-.29-1.46-.82-2c-1.83-1.81-3.73-3.57-5.67-5.27a26.26,26.26,0,0,1-4.59-5.93c-1.46-2.33-.7-4,2-4.87.76-.26.83-.87,1-1.45.4-1.31,1-2.54,2.37-3,6.4-2.08,10.61-6.59,13.86-12.26,1.31-2.29,2.83-4.46,3.54-7l.31-.84a5.8,5.8,0,0,0-1.64-1.91l-.54-.5a.38.38,0,0,1-.23-.39c-.71-.46-.69-1.2-.74-1.92a8.68,8.68,0,0,1,0-1.14,2,2,0,0,1,.43-1.54c1.09-.35,1.24.59,1.64,1.18a14.39,14.39,0,0,0,5.36,5.15c.53.25,1.18.82,1.7.21.4-.46-.17-1-.34-1.53C125.09,79.16,123.64,78.42,124.35,77Z"/><path class="cls-95" d="M152.58,46.25c-2.73.35-4.33,2.36-5.83,4.28-2.81,3.62-6.71,5.78-10.47,8.11-3.43,2.13-3.75,3-1.74,6.63A26.54,26.54,0,0,0,138,70c1.32,1.49,1.1,1.71-.77,2.13a34.81,34.81,0,0,1-13.64.36.64.64,0,0,1-.17-.51l-.07-1c0-.14-.12-.34,0-.39,2.34-1.74,1.81-3.59.5-5.75-3.41-5.63-1.48-10.69,1.93-15.52a10.53,10.53,0,0,0,.67-1.06l.9-1c2.24-1.24,2.23-1.23,3.63.81.6.86,1,1.84,1.53,2.73,1.71,2.85,3.64,3.52,6.7,2.25,3.51-1.47,5.82-4.23,7.64-7.44.41-.72.56-1.61,1.42-2A10.19,10.19,0,0,1,152.58,46.25Z"/><path class="cls-97" d="M119.52,83.5c.62,1.66-.37,3.11-1.14,4.2-2.84,4.06-5,8.61-8.77,12-.31.28-.52.61-1,.69-2.41.46-4.22,2.27-6.54,3-1.49.46-1.73,1.93-2,3.21-.17,1-.5,1.7-1.58,1.3-1.66-.61-1.78.61-2,1.59a4.09,4.09,0,0,0,.84,2.94c2.44,3.75,5.81,6.62,9,9.62.1.1.28.12.36.22.78,1.06,2.6,1.92,1.76,3.39s-2.7,1.34-4.19,1c-2.68-.67-4.65-2.41-6.52-4.44-3.12-3.38-3.94-7.51-4.6-11.77a12.76,12.76,0,0,0-.4-1.32,10.91,10.91,0,0,0-2.13,6.12c0,.48.19,1.11,0,1.43-1.81,2.52-.09,4.42,1,6.43a17.75,17.75,0,0,0,4.16,5.16c1.14,1.66,2.85,2.72,4.31,4,.53.29,1.38.52.94,1.29s-1.25.39-1.84.06a23.29,23.29,0,0,1-9.53-10.24,11.34,11.34,0,0,1-1.41-4.26,10,10,0,0,0,.95,3.6c.5,1.29.1,1.8-1.21,1.85a10.11,10.11,0,0,1-.65-8.66c1.71-5.13,4.63-9.65,9.61-11.82,3.9-1.7,7.22-4.41,11.32-5.73,2.43-.78,3.78-3.21,5.29-5.21C116,90.13,117.5,86.67,119.52,83.5Z"/><path class="cls-97" d="M140.76,42a14.49,14.49,0,0,1,7.44,1.62c-1.63,4.46-4.36,8-8.8,9.91-3.56,1.56-5.94.63-7.68-2.83-.22-.43-.35-.91-.58-1.34-.82-1.54-1.63-3.13-3.86-2.1a15.52,15.52,0,0,1,7.1-4.33"/><path class="cls-95" d="M144.78,80.3c-.42-1-1.34-3.21-2.05-5.37a2,2,0,0,1,0-1.54,2.51,2.51,0,0,1,1.83-1.06c2.37-.52,4.75-1,7.15-1.3a7.19,7.19,0,0,0,4.85-2.51,1.21,1.21,0,0,1,1.47-.44,10.37,10.37,0,0,1-2,4.1c-.15.38-.62.54-.66,1l-.91,1.11c-.52.58-1.45.77-1.66,1.67a10.48,10.48,0,0,1-2.84,2,3.43,3.43,0,0,0-1.07.6l-1,.39c-.59.22-.89.33-1.21.43a4.15,4.15,0,0,0-1.22.41A2.38,2.38,0,0,0,144.78,80.3Z"/><path class="cls-95" d="M88.11,124.57c1.58-.21,1.07-1.28.63-2-1-1.64-.9-3.37-.63-5.2,1.15,3.36,2.2,6.7,4.47,9.57a23.37,23.37,0,0,0,8.17,6.76c.29-.89-.56-.95-.54-1.46,2.2.54,3.68,2.06,5.42,3.79-1.91.43-3-1-4.66-.95a2.73,2.73,0,0,1,0,3.17,31.55,31.55,0,0,1-12-11.62A15.29,15.29,0,0,1,88.11,124.57Z"/><path class="cls-97" d="M123.39,71.93c0,.17.11.34.17.51L123,73.58a4.44,4.44,0,0,0,0,1,1.19,1.19,0,0,0-.09.36,2.61,2.61,0,0,1,.46,1.1l1,.89c.16,1.35,1.21,2.24,1.76,3.39.35.72.9,1.6.28,2.3s-1.28-.08-1.87-.32a13.3,13.3,0,0,1-6.47-6.11,2.08,2.08,0,0,0-1-1c.58-1.83,2.3-2,3.73-2.54C121.66,72.4,122.53,72.19,123.39,71.93Z"/><path class="cls-97" d="M126.38,48.22c.12,1.39-1,2.22-1.6,3.21a19.05,19.05,0,0,0-2.26,7.26c-.43,2.62,1.14,4.56,2,6.63,1.51,3.45,1.73,3.39-1.25,5.62C119.23,63.38,120.52,53.81,126.38,48.22Z"/><path class="cls-95" d="M139.78,124.08c-1.48-2-2.72-1.71-4.22.15-.87,1.08-2.45,1.2-3.87,1.2-.57,0-1.23,0-1.39-.63s.48-.93,1-1.12a8.53,8.53,0,0,0,5.37-5.87c.44-1.39-1.51-2.29-.46-3.56C136.51,117.86,139.22,120.54,139.78,124.08Z"/><path class="cls-95" d="M152.74,75.94c-.13-1,.1-1.2,1.66-1.67"/><path class="cls-95" d="M118.19,80.75c.94.3,1.82.66,1.64,1.91C119.27,82,118.49,81.6,118.19,80.75Z"/><path class="cls-98" d="M153.89,47.35l-.28-.27C153.84,47,153.91,47.14,153.89,47.35Z"/><path class="cls-98" d="M158.79,65.67a2.56,2.56,0,0,1,0-.39"/><path class="cls-98" d="M144.42,81.1l-.13-.56Z"/><path class="cls-99" d="M117.42,79.86l.23.39Z"/><path class="cls-96" d="M123,74.61c-.37-.34-.75-.68,0-1A.69.69,0,0,1,123,74.61Z"/><path class="cls-96" d="M123.39,76.07a.81.81,0,0,1-.46-1.1C123.51,75.16,123.67,75.52,123.39,76.07Z"/><path class="cls-97" d="M108.67,107c2.3,1.22,4.08,2.12,4.6,4.36a2.58,2.58,0,0,1-2.71,3.39,6.56,6.56,0,0,1-5.79-5.86c-.08-1.3.45-1.94,1.77-2A5.08,5.08,0,0,1,108.67,107Z"/><ellipse class="cls-100" cx="138.19" cy="45.63" rx="3.69" ry="3.06"/><ellipse class="cls-100" cx="108" cy="109.3" rx="1.84" ry="2.87" transform="translate(-37.97 157.3) rotate(-63.55)"/><ellipse class="cls-100" cx="100.33" cy="119.9" rx="1.71" ry="2.95" transform="translate(-55.1 136.78) rotate(-56.28)"/><path class="cls-101" d="M63.19,57.21h0a19.2,19.2,0,0,0,23,14.48h0a19.2,19.2,0,0,0-14.48,23h0a19.21,19.21,0,0,0-23-14.49h0a19.19,19.19,0,0,0,14.48-23Z"/><path class="cls-101" d="M185.64,225.61h0a13.37,13.37,0,0,0,8.85,16.71h0a13.37,13.37,0,0,0-16.71,8.85h0a13.35,13.35,0,0,0-8.85-16.7h0a13.38,13.38,0,0,0,16.71-8.86Z"/><path class="cls-101" d="M221.13,32h0a22.71,22.71,0,0,0,21.24,24.12h0a22.73,22.73,0,0,0-24.12,21.24h0A22.73,22.73,0,0,0,197,53.2h0A22.73,22.73,0,0,0,221.13,32Z"/><path class="cls-101" d="M45.16,143h0a7,7,0,0,0,8.4,5.29h0a7,7,0,0,0-5.3,8.4h0a7,7,0,0,0-8.39-5.3h0A7,7,0,0,0,45.16,143Z"/><path class="cls-101" d="M172.11,59.54h0a7,7,0,0,0,5.06,8.55h0a7,7,0,0,0-8.54,5h0a7,7,0,0,0-5.06-8.54h0a7,7,0,0,0,8.54-5.06Z"/></g></g></svg>