<svg xmlns="http://www.w3.org/2000/svg" xmlns:xlink="http://www.w3.org/1999/xlink" viewBox="0 0 376.35 142.98"><defs><style>.cls-1{fill:none;}.cls-2{opacity:0.3;}.cls-3{fill:#e55253;}.cls-4{fill:#921d2d;stroke:#231f20;stroke-miterlimit:10;stroke-width:2px;}.cls-5{fill:url(#linear-gradient);}.cls-6{fill:#f0484a;}.cls-7{fill:#c33333;}.cls-8{fill:#040405;}.cls-9{fill:#fff;}.cls-10{fill:#d85656;}.cls-11{fill:#f1bbbb;}.cls-12{fill:#cc4746;}.cls-13{fill:#d37171;}.cls-14{fill:#d36363;}.cls-15{fill:#d88080;}.cls-16{fill:#d16268;}.cls-17{fill:#d86868;}.cls-18{fill:#efb6b6;}.cls-19{fill:#f2b6b6;}.cls-20{fill:#eeb9b9;}.cls-21{fill:#eebbba;}.cls-22{fill:#f3bcbc;}.cls-23{fill:#edbcbc;}.cls-24{fill:#f6d7d7;}.cls-25{fill:#231f20;}.cls-26{isolation:isolate;}.cls-27{clip-path:url(#clip-path);}.cls-28{clip-path:url(#clip-path-2);}.cls-29{clip-path:url(#clip-path-3);}.cls-30{clip-path:url(#clip-path-4);}.cls-31{fill:#f6e6e6;}</style><linearGradient id="linear-gradient" x1="188.18" y1="126.92" x2="188.18" y2="71.21" gradientUnits="userSpaceOnUse"><stop offset="0" stop-color="#da3a3a"/><stop offset="0.48" stop-color="#d23739"/><stop offset="1" stop-color="#c23332"/></linearGradient><clipPath id="clip-path"><polygon class="cls-1" points="271.33 71.4 271.38 54.99 281.07 58.33 281.02 74.74 271.33 71.4"/></clipPath><clipPath id="clip-path-2"><polygon class="cls-1" points="281.95 90.57 282 74.17 291.69 77.51 291.64 93.91 281.95 90.57"/></clipPath><clipPath id="clip-path-3"><polygon class="cls-1" points="275.33 40.13 309.75 32.03 330.87 43.25 296.45 51.35 275.33 40.13"/></clipPath><clipPath id="clip-path-4"><polygon class="cls-1" points="314.03 84.28 317.38 68.48 327.81 68.48 324.45 84.28 314.03 84.28"/></clipPath></defs><g id="Layer_2" data-name="Layer 2"><g id="xmas_cube_button" data-name="xmas cube button"><rect id="shadow" class="cls-2" y="23.11" width="376.35" height="119.87" rx="22.28"/><path id="top" class="cls-3" d="M8,84.17A12.85,12.85,0,0,1,20.85,71.32H372.37V24.07A22.29,22.29,0,0,0,350.09,1.79H22.38A22.28,22.28,0,0,0,.11,24.07v80.25a22.23,22.23,0,0,0,7.89,17Z"/><rect id="border" class="cls-4" x="1.27" y="1" width="373.95" height="133.71" rx="22.28"/><path id="bottom_gradient" data-name="bottom gradient" class="cls-5" d="M2,70.89v33.43A22.28,22.28,0,0,0,24.32,126.6H352a22.28,22.28,0,0,0,22.28-22.28V70.89Z"/><path id="top-2" data-name="top" class="cls-6" d="M9.94,84.17A12.85,12.85,0,0,1,22.79,71.32H374.31V24.07A22.29,22.29,0,0,0,352,1.79H24.32A22.29,22.29,0,0,0,2,24.07v80.25a22.24,22.24,0,0,0,7.9,17Z"/><rect id="cruve" class="cls-7" x="289.98" y="34.63" width="80.45" height="39.96"/><rect class="cls-6" x="5.93" y="15.6" width="360.61" height="55.29" rx="10.02"/><path class="cls-7" d="M374.37,71.32V24.07a22.23,22.23,0,0,0-7.9-17V71.32Z"/><path class="cls-8" d="M300.66,106.92a42.05,42.05,0,0,1-9-1.63,26.64,26.64,0,0,1-5.26-2.76c-4.54-2.67-8.84-5.72-13.14-8.76-4-2.84-5.93-6.76-6.49-11.51-.62-5.37-.71-10.77-1.11-16.14V53.41a21.88,21.88,0,0,1,4.12-11,11.89,11.89,0,0,1,6.19-4.65c6.24-2,12.62-3.45,19-4.84a60.59,60.59,0,0,1,10.2-1.48,25.44,25.44,0,0,1,7.25,1.06c6,1.47,11.8,3.37,17.64,5.27,6.17,2,9.61,6.5,11.66,12.36,1,2.82.92,5.75,1,8.66.11,7.45,0,14.89-.27,22.34a43.86,43.86,0,0,1-.78,6.65,9.83,9.83,0,0,1-4.41,6.82,32.79,32.79,0,0,1-5.1,2.63c-5.28,2.22-10.52,4.57-15.89,6.59-3,1.11-5.86,2.4-9,2.85-.86.12-1.73.18-2.59.26"/><path class="cls-9" d="M301.22,100.9a35.67,35.67,0,0,1-7.6-1.37,21.9,21.9,0,0,1-4.42-2.32c-3.82-2.25-7.43-4.81-11.05-7.36a13,13,0,0,1-5.45-9.68c-.52-4.51-.6-9-.93-13.57V55.92a18.37,18.37,0,0,1,3.46-9.26,10,10,0,0,1,5.2-3.91c5.25-1.69,10.61-2.9,16-4.07A50.56,50.56,0,0,1,305,37.44a21.2,21.2,0,0,1,6.08.89c5,1.23,9.93,2.84,14.84,4.43,5.18,1.68,8.07,5.46,9.79,10.39a22.65,22.65,0,0,1,.82,7.27c.09,6.26,0,12.53-.23,18.78a36.4,36.4,0,0,1-.65,5.6,8.27,8.27,0,0,1-3.71,5.73,27.55,27.55,0,0,1-4.29,2.2c-4.44,1.88-8.84,3.85-13.35,5.54a35.45,35.45,0,0,1-7.59,2.4c-.72.1-1.45.15-2.17.22"/><path class="cls-10" d="M340.2,50.42a12.77,12.77,0,0,1,.88,5.53c.11,7.16.06,14.33-.19,21.49a50.5,50.5,0,0,1-.68,6.93,8.79,8.79,0,0,1-5,6.87c-6.07,3-12.33,5.53-18.61,8-2.44,1-4.88,1.91-7.39,2.69a6.21,6.21,0,0,1-2.09.32,2,2,0,0,1-1.82-.48,28.82,28.82,0,0,0-2.43-2.1,8.25,8.25,0,0,0-.28-2.2,26.88,26.88,0,0,1-.39-5.07c-.11-2.34,0-4.69,0-7a1.57,1.57,0,0,1,.24-1.14c.68-.27.55.32.58.6.07.81,0,1.62,0,2.42,0,1.49,0,3,0,4.47,0,.78.15.86.81.42,1.52-1,2.9-2.23,4.32-3.38a94.5,94.5,0,0,0,7.59-7,8.23,8.23,0,0,1,1.16-1.2c.46,0,12.21-13.64,11.84-14.39a3.45,3.45,0,0,1,.9-2,52.31,52.31,0,0,0,3.49-5.79c1.17-2.11,2.09-4.34,3.13-6.51.53-1.12.82-2.33,1.26-3.48a2.87,2.87,0,0,1,2.37,1.37C340,50,340,50.29,340.2,50.42Z"/><path class="cls-11" d="M340.2,50.42a7.66,7.66,0,0,0-2.63-2,.24.24,0,0,1-.27,0,1.34,1.34,0,0,1-.52-.63A12.58,12.58,0,0,0,334,44.33a2.08,2.08,0,0,0-2.3-.44c-5.55,1.89-11.14,3.64-16.69,5.5a5.82,5.82,0,0,0-.85.38,1.73,1.73,0,0,1-.58.28c-2.14.31-4.06,1.31-6.14,1.81a6,6,0,0,0-1.21.47,6,6,0,0,1-2.7.6c-1.39,0-2.77,0-4.17.15a11.77,11.77,0,0,1-6-1.37A31.37,31.37,0,0,0,289,49.84a5.74,5.74,0,0,1-2.38-1.41,5.77,5.77,0,0,0-2.3-.9,56.83,56.83,0,0,1-6.47-2.79c-1.06-.53-2.18-.88-3.25-1.36-.65-.28-1,.1-1.39.59a21.93,21.93,0,0,0-2.62,4.46,6.45,6.45,0,0,0-2.37,2c-.25.3-.2.84-.71,1-.12,0,.06-.05-.06-.07s0-.09,0-.15a14.6,14.6,0,0,1,2.16-5.84c.48-.86,1.1-1.64,1.63-2.47,1.76-2.76,4.64-3.67,7.53-4.5,6.83-2,13.75-3.52,20.73-4.82a28.63,28.63,0,0,1,13.48.62c5.59,1.64,11.18,3.27,16.71,5.09a15.37,15.37,0,0,1,9.18,8.12A12.63,12.63,0,0,1,340.2,50.42Z"/><path class="cls-12" d="M292.81,87.86a21.75,21.75,0,0,0,3.3,2.51,1.62,1.62,0,0,1,.85.93c0,2.36.42,4.75-.43,7.06-.24.64.13.81.64.94a19,19,0,0,0,4.33.25c.48,0,1-.1,1.41.27.62-.11,1,.29,1.33.68a4.36,4.36,0,0,0,2.83,1.77,26.62,26.62,0,0,1-6.67.28,35.83,35.83,0,0,1-8.21-1.41,7.69,7.69,0,0,1-1.37-.55,150.71,150.71,0,0,1-17.74-11.67,12.19,12.19,0,0,1-4.63-8.09,115.75,115.75,0,0,1-.95-11.76q-.44-7.39-.37-14.8a11.27,11.27,0,0,1,.37-3.11c.36-.19.33-.63.58-.89.47,0,.6.38.76.69A16.49,16.49,0,0,1,270,53.77a15.16,15.16,0,0,0,2.3,4.6q1.76,3.29,3.5,6.84t3.33,7.07c.59.15.88.67,1.21,1.09.45.59.9,1.17,1.38,1.73"/><path class="cls-13" d="M337.39,48.39h.18a8.85,8.85,0,0,1-.91,3.08c-3.88,9-6.2,12-6.2,12-.34.63-.9,1.69-1.6,3-1.32,1.69-3.08,3.91-5.2,6.48-3.21,3.92-4.87,5.93-7.33,8.49-4.17,4.36-3.23,3.48-6.17,5.91a72.14,72.14,0,0,1-6.67,5.27c-.55.36-.73.2-.75-.34,0-.78,0-1.56,0-2.33,0-1.65,0-3.29,0-4.94,0-.29.1-.62-.18-.87a1.59,1.59,0,0,1-.29-1.23q0-7.29,0-14.59a16.76,16.76,0,0,1,.23-2.12,12.39,12.39,0,0,1,3.62-6.74,12.85,12.85,0,0,1,3.79-2.11c.9-.41,1.81-.81,2.73-1.17,3.11-1.24,6.2-2.53,9.33-3.72,2.41-.92,4.82-1.83,7.25-2.66a41.33,41.33,0,0,1,4.7-1.49C335,48.09,336.24,47.61,337.39,48.39Z"/><path class="cls-14" d="M302.73,65.91c-.4,6.08-.1,12.17-.19,18.26a24.49,24.49,0,0,0-.16,4.28c0,1.3-.09,2.61,0,3.91.17,1.86-.06,3.76.52,5.58a2.41,2.41,0,0,1,0,1.88c-2.06-.08-4.13.24-6.18-.32-.71-.2-.83-.44-.53-1.1a5.62,5.62,0,0,0,.57-2.5c0-1.61,0-3.22,0-4.83a2.77,2.77,0,0,1-.29-1.62c0-5.59,0-11.17,0-16.76,0-1.77-.12-3.53-.21-5.29a4.18,4.18,0,0,0-.4-1.43,1.46,1.46,0,0,1,0-1.42c.37-.36.48,0,.56.24a1.68,1.68,0,0,0,1.61,1,12.57,12.57,0,0,0,4.15,0A.75.75,0,0,1,302.73,65.91Z"/><path class="cls-10" d="M280.82,74.41a14.45,14.45,0,0,0-1.59-2c-.08-.32-6.72-14.27-7.07-14.15s-.56-.42-.74-.73a33.19,33.19,0,0,1-2.25-5.36,5.52,5.52,0,0,0-1.09-1.91,4.52,4.52,0,0,1,2.4-1.88,2,2,0,0,1,1.62-.12,18.55,18.55,0,0,1,4.27,1.84c1.85.91,3.73,1.79,5.65,2.57,2.07.85,4,2,6,2.92A12.08,12.08,0,0,1,292.59,58a12.26,12.26,0,0,1,3.52,5.69.66.66,0,0,1-.09.7,2,2,0,0,0,.27,1.74,1.39,1.39,0,0,1,.27.88c-.09,1.21.22,2.39.21,3.6,0,6.81,0,13.62,0,20.43a31.81,31.81,0,0,1-4.84-3.65c-.22-.19-.57-.3-.58-.67"/><path class="cls-15" d="M296,64.42a11.67,11.67,0,0,0-1.63-3.89A10.85,10.85,0,0,0,288,55.84c-.62-.36-.68-1-.78-1.61a32.86,32.86,0,0,1-.68-4.41,1.74,1.74,0,0,0-1.36-1.77c-.37-.12-.87-.2-.91-.77,1,.31,2.17.41,3,1.35a3.62,3.62,0,0,0,1.88,1c1.9.51,3.54,1.62,5.36,2.31a10.82,10.82,0,0,0,5.79.81,19.68,19.68,0,0,1,3.26,0,8,8,0,0,0,2.68-.59,42.43,42.43,0,0,1,7.06-2.19,3.17,3.17,0,0,0,.83-.39,1.46,1.46,0,0,1,.23,1.23,21.29,21.29,0,0,1-1.19,4.92,2,2,0,0,1-.53.75c-1.74.92-3.68,1.42-5.33,2.48a9.55,9.55,0,0,0-3.71,4.6c-.32.79-.57,1.61-.84,2.42-1.87.7-3.74.34-5.61,0C296.26,65.79,296.31,65,296,64.42Z"/><path class="cls-16" d="M312.61,56.41a32.6,32.6,0,0,0,1.41-5,16.36,16.36,0,0,0,.08-1.85c1.59-.55,3.18-1.13,4.79-1.67,2.36-.78,4.74-1.51,7.09-2.33,1.95-.67,4-1.13,5.88-1.94a2.15,2.15,0,0,1,2.45.71,13.33,13.33,0,0,1,3.08,4.11c-1.75-.41-3.35.2-5,.68-3.34,1-6.58,2.2-9.82,3.44-2.92,1.13-5.89,2.18-8.72,3.54A8.81,8.81,0,0,1,312.61,56.41Z"/><path class="cls-17" d="M284.28,47.28a1.25,1.25,0,0,0,.78.46c1.57.28,1.74,1.43,1.84,2.73A17.38,17.38,0,0,0,288,55.84a7.14,7.14,0,0,1-1.89-1c-1.73-.79-3.43-1.67-5.21-2.36s-3.64-1.75-5.46-2.62c-1.58-.75-3.11-1.7-5-1.52a17.84,17.84,0,0,1,2.71-4.81c.44-.65,1-.66,1.68-.38C278.06,44.44,281,46.15,284.28,47.28Z"/><path class="cls-18" d="M300.69,34.62c0,.48.58.62.54,1.09-.4.29-1.05.27-1.13.95-.53-.09-1-.34-1-.89s.47-.59.81-.77S300.34,34.57,300.69,34.62Z"/><path class="cls-11" d="M281.31,39.64c.26.52.91.5,1.27.88-.43.29-.95.51-.92,1.17a1.09,1.09,0,0,1-1.13-.87C280.36,40.22,280.87,39.92,281.31,39.64Z"/><path class="cls-19" d="M315,40c-.15.24,0,.37.18.47s.56.24.55.61c-.39.28-.87.51-.71,1.13-.55-.21-1.16-.47-1.11-1.14A1.26,1.26,0,0,1,315,40Z"/><path class="cls-20" d="M307.2,46.91c.07-.57.53-.82.92-1.13a1.21,1.21,0,0,1,.75,1.3c-.38.44-.71,1-1.44.76A1.12,1.12,0,0,0,307.2,46.91Z"/><path class="cls-21" d="M298.27,39.83c.08.54,1,.41.9,1.07-.37.22-.8.41-.73,1l-.09,0c-.46-.18-1.1-.33-1.11-.85A1.27,1.27,0,0,1,298.27,39.83Z"/><path class="cls-11" d="M324.72,41.49c-.11-.63.54-.83.73-1.29.4.25.89.53.71,1.06a1.24,1.24,0,0,1-1.3,1A.89.89,0,0,0,324.72,41.49Z"/><path class="cls-22" d="M308.14,41.1a2.79,2.79,0,0,1,.54-.59c.48-.26.13-.46,0-.68.56.11,1.08.49,1,1a1.5,1.5,0,0,1-1.4,1.24C308.67,41.66,308.42,41.37,308.14,41.1Z"/><path class="cls-23" d="M291.54,41c0-.53.59-.7.76-1.13.34.25.83.48.67,1a1.49,1.49,0,0,1-1.29,1A1.06,1.06,0,0,0,291.54,41Z"/><path class="cls-24" d="M307.16,48.19l.27-.35"/><path class="cls-25" d="M31.77,63.14c0-.47,0-1,.05-1.5s.07-1.06.13-1.6.12-1,.2-1.54a12.73,12.73,0,0,1,.28-1.35,12.45,12.45,0,0,1,2.37-.43c1.05-.11,2.24-.19,3.57-.25s2.74-.09,4.24-.09,3,0,4.36.06,2.73.1,4,.18a22.45,22.45,0,0,1,3,.36A11.39,11.39,0,0,1,55.66,59,16.4,16.4,0,0,1,57.25,62a18.41,18.41,0,0,1,1.07,3.49A13.08,13.08,0,0,1,58.6,68c0,.39,0,.79-.06,1.19-.43.55-1,1.28-1.8,2.18s-1.58,1.77-2.43,2.6c.17.28.39.68.65,1.2l.84,1.67c.29.59.6,1.21.91,1.86l.86,1.8c.27.55.5,1,.7,1.48s.34.74.42.93a6,6,0,0,1-1.51.65c-.66.2-1.4.39-2.2.57s-1.64.34-2.48.48a17.29,17.29,0,0,1-2.26.24c-.45-.55-.86-1.08-1.23-1.58l-1.07-1.5-1-1.52c-.35-.51-.73-1.06-1.15-1.65l-.5-.71a5.25,5.25,0,0,0-.56-.65,1.86,1.86,0,0,0-.61-.42.87.87,0,0,0-1.17.73,6.38,6.38,0,0,0-.09,1c0,.62,0,1.24,0,1.86v.91c0,.93,0,1.87-.07,2.83-.37.11-.87.22-1.47.34s-1.29.19-2,.25-1.56.09-2.42.09a22.62,22.62,0,0,1-2.59-.15c-.14-1.7-.25-3.47-.32-5.3s-.13-3.65-.16-5.47c0-1.09,0-2.17,0-3.26,0-.72,0-1.44,0-2.18,0-1.82,0-3.58.06-5.26-.25,0-.56,0-.95,0A4.58,4.58,0,0,1,31.77,63.14Zm11,2c0,.64,0,1.28,0,1.91s0,1.23.05,1.78a7.48,7.48,0,0,0,.17,1.37c.4,0,.88,0,1.43-.07a14.52,14.52,0,0,0,1.68-.25,8.88,8.88,0,0,0,1.61-.49,3.19,3.19,0,0,0,1.24-.85,4.68,4.68,0,0,0,0-.55,7,7,0,0,0,0-.77c0-.48-.11-1-.18-1.39s-.14-.83-.22-1.18-.14-.57-.16-.7a2.13,2.13,0,0,0-1-.55,9.18,9.18,0,0,0-1.61-.31,8.47,8.47,0,0,0-1-.06q-.34,0-.66,0a2.28,2.28,0,0,0-1.17.35C42.82,64,42.78,64.55,42.76,65.19Z"/><path class="cls-25" d="M61.19,76.24V72.77c0-1.15,0-2.26,0-3.32s.07-2,.11-2.79q.36-.34.93-.93c.38-.4.77-.8,1.18-1.2s.81-.78,1.18-1.12a5.43,5.43,0,0,1,1-.75c.91-.06,2-.13,3.3-.23s2.62-.2,4-.25q1.55-.06,3.06-.06h1a21.57,21.57,0,0,1,3.56.32,11.33,11.33,0,0,1,2.19,2.19c.7.9,1.35,1.75,1.93,2.54.06.83.11,1.86.16,3.1s.08,2.47.1,3.73c0,.85,0,1.65,0,2.4v1.09a16.39,16.39,0,0,1-.13,2.37c-.57.72-1.13,1.45-1.68,2.21a24.59,24.59,0,0,1-1.78,2.21,28.1,28.1,0,0,1-3.58.39c-1.44.08-3,.12-4.52.12s-3.14,0-4.7-.09-2.91-.16-4.09-.3a9.86,9.86,0,0,1-.86-1c-.3-.41-.6-.86-.9-1.33s-.58-1-.84-1.43a9.75,9.75,0,0,1-.6-1.25C61.2,78.44,61.19,77.39,61.19,76.24ZM70,73.59v2.29c0,.74,0,1.39,0,2s0,1,0,1.29a4.35,4.35,0,0,0,1.45.37l.74,0c.3,0,.61,0,.92,0a6.54,6.54,0,0,0,1.57-.36,4.19,4.19,0,0,0,1.18-.64c0-1.53.08-3.23.12-5.11,0-.26,0-.51,0-.77a40.07,40.07,0,0,0-.31-5l-1.47,0c-.46,0-.91,0-1.33.08a10.8,10.8,0,0,0-1.27.19,5.7,5.7,0,0,0-1.27.45,3.71,3.71,0,0,0-.23,1.09c-.05.52-.09,1.13-.12,1.84S70,72.79,70,73.59Z"/><path class="cls-25" d="M88.73,61c0-1.47,0-2.66.1-3.56a4.69,4.69,0,0,1,.84-.2c.41-.07.89-.13,1.44-.17S92.26,57,92.89,57l1.87,0h.59l1.07,0c.5,0,.87,0,1.12.05q0,1.39-.06,3.81c0,1.61,0,3.35,0,5.22s0,3.79,0,5.78V84.25l-1.73.19q-.69.07-1.53.09h-.34c-.49,0-1,0-1.66,0l-3.23-.15c0-.77-.05-1.85-.09-3.23s-.06-2.91-.07-4.6,0-3.46,0-5.32,0-3.65,0-5.37c0-1.16,0-2.25,0-3.29Z"/><path class="cls-25" d="M101.89,61c0-1.47,0-2.66.1-3.56a4.69,4.69,0,0,1,.84-.2c.41-.07.89-.13,1.44-.17s1.15-.06,1.78-.07l1.87,0h.58l1.08,0c.5,0,.87,0,1.12.05q0,1.39-.06,3.81c0,1.61,0,3.35,0,5.22s0,3.79,0,5.78V84.25l-1.73.19q-.69.07-1.53.09H107c-.49,0-1,0-1.66,0l-3.23-.15c0-.77,0-1.85-.09-3.23s-.06-2.91-.07-4.6,0-3.46,0-5.32,0-3.65,0-5.37c0-1.16,0-2.25,0-3.29Z"/><path class="cls-25" d="M125.46,79.7a18.5,18.5,0,0,1,.54-3.9,14.79,14.79,0,0,1,1.16-3.26,8.21,8.21,0,0,1,2-.87c.89-.27,1.87-.53,2.94-.79s2.19-.5,3.36-.73l3.36-.61c-.05-.24-.11-.52-.17-.83a2.75,2.75,0,0,0-.18-.64,5,5,0,0,0-1.91-.63,21.13,21.13,0,0,0-2.67-.27c-.76,0-1.54,0-2.34,0h-3.27c0-.14,0-.3,0-.47s0-.65,0-1a15,15,0,0,1,.2-1.54,11,11,0,0,1,.32-1.31,2.08,2.08,0,0,1,.47-.82c1.36-.13,2.74-.23,4.16-.31.93,0,1.86-.08,2.79-.08.5,0,1,0,1.48,0A38.92,38.92,0,0,1,142,62a30.74,30.74,0,0,1,4,.8,5.77,5.77,0,0,1,.94,2.16,29,29,0,0,1,.6,3.32c.15,1.25.27,2.59.34,4s.11,2.84.12,4.21v.83c0,1.09,0,2.14,0,3.15,0,1.25-.09,2.32-.14,3.2-.7.19-1.57.38-2.6.56s-2.15.33-3.34.46-2.43.24-3.71.33-2.51.15-3.69.17l-1.29,0c-.7,0-1.36,0-2,0a21.6,21.6,0,0,1-2.49-.25l-.88-1.21c-.32-.45-.64-.91-1-1.38s-.59-.94-.85-1.41A10.31,10.31,0,0,1,125.46,79.7Zm9.09-2.08a7,7,0,0,0,.13,1.11,9,9,0,0,0,.26,1,3.48,3.48,0,0,0,1.38.24l.44,0c.75,0,1.66-.12,2.73-.22,0-.9,0-1.77,0-2.6s0-1.68-.08-2.54c-.79.15-1.55.28-2.28.37a6.57,6.57,0,0,0-2.18.69,2.64,2.64,0,0,0-.31.91,3.78,3.78,0,0,0,0,.83Z"/><path class="cls-25" d="M162.74,78.63a7.31,7.31,0,0,1-.1-1.3,13.13,13.13,0,0,1,.1-1.58,22,22,0,0,1,.72-3.54,20.68,20.68,0,0,1,1.32-3.4,8.93,8.93,0,0,1,1.76-2.53c.89-.18,1.8-.37,2.74-.58s1.88-.4,2.84-.55,1.92-.29,2.91-.37c.59,0,1.17-.07,1.77-.07.41,0,.83,0,1.25.05q0-.84,0-1.89c0-.7,0-1.42.06-2.14s0-1.41.07-2.07,0-1.25.07-1.74a7.2,7.2,0,0,1,2-.48,15.72,15.72,0,0,1,1.7-.09l.66,0a17,17,0,0,1,2.31.24,11.13,11.13,0,0,1,1.9.48q0,3,0,6.66v7.3q0,3.6-.09,7.13c-.05,2.36-.15,4.48-.32,6.38a24.83,24.83,0,0,1-3.34.61c-1.19.15-2.4.24-3.62.29-.76,0-1.52,0-2.29,0h-1.35c-1.2,0-2.34-.09-3.43-.19s-2.07-.19-3-.28-1.66-.17-2.28-.25a13.61,13.61,0,0,1-2.38-2.85C164.07,80.76,163.38,79.66,162.74,78.63Zm9-3.09c-.06.52-.09,1-.1,1.47a9,9,0,0,0,.2,2,7.64,7.64,0,0,0,1.28.25,13.36,13.36,0,0,0,1.58.08,15.25,15.25,0,0,0,1.66-.08A12.51,12.51,0,0,0,177.9,79a5,5,0,0,0,.12-1.25c0-.46,0-1,0-1.5v-.83c0-.85,0-1.69,0-2.5s0-1.39-.06-1.74a9.15,9.15,0,0,0-2.29-.28l-.43,0a6.66,6.66,0,0,0-2.71.63A35,35,0,0,0,171.77,75.54Z"/><path class="cls-25" d="M190.87,59.36c0-.38.06-.75.11-1.1s.09-.64.13-.83a1.49,1.49,0,0,1,.59-.93,5.46,5.46,0,0,1,1.14-.65,6.8,6.8,0,0,1,1.28-.41l1-.22a2.25,2.25,0,0,1,.38,0l.41,0a8.1,8.1,0,0,1,1,.18c.32.08.63.17,1,.27a3.31,3.31,0,0,1,.77.32,12,12,0,0,1,.49,2.15,7.26,7.26,0,0,1,.12,1.31,7.54,7.54,0,0,1-.06.94,1.54,1.54,0,0,1-.8.67,7.46,7.46,0,0,1-1.47.48,16.25,16.25,0,0,1-1.76.28,11.13,11.13,0,0,1-1.26.07h-.52a8.12,8.12,0,0,1-1.46-.19,1.28,1.28,0,0,1-.81-.42,2.19,2.19,0,0,1-.22-.83c0-.21,0-.42,0-.64S190.86,59.52,190.87,59.36Zm.22,15c0-.64,0-1.27,0-1.89,0-2.7,0-5.24.16-7.64.6-.11,1.23-.2,1.9-.26s1.33-.11,2-.14,1.34,0,2,0H199c0,1.73,0,3.38,0,5s-.07,3.13-.13,4.69-.13,3.13-.2,4.73-.16,3.28-.26,5a4,4,0,0,1-1.3.29c-.65.07-1.33.13-2.06.18s-1.42.07-2.09.07-1.16,0-1.44,0C191.25,81,191.12,77.7,191.09,74.31Z"/><path class="cls-25" d="M201.71,77.44c0-.5-.05-1-.05-1.51,0-.67,0-1.37.08-2.08a30.48,30.48,0,0,1,.42-3.67,24.38,24.38,0,0,1,.8-3.29,9.82,9.82,0,0,1,1.1-2.44,10.06,10.06,0,0,1,2.18-.8c.93-.25,2-.48,3.11-.67s2.32-.37,3.55-.51,2.41-.26,3.49-.32c.66,0,1.27-.06,1.82-.06.38,0,.73,0,1.06,0a5.52,5.52,0,0,1,1.76.28c.06.43.12,1.09.19,2q0,.35,0,.72A11.29,11.29,0,0,1,221,67.3l-2.6.15c-.83,0-1.61.09-2.36.16a21.4,21.4,0,0,0-2.17.29,10.57,10.57,0,0,0-2.13.65c-.2.7-.39,1.5-.58,2.4s-.31,1.81-.41,2.71a15.07,15.07,0,0,0-.09,1.62q0,.5,0,1a4.38,4.38,0,0,0,.54,2,4.58,4.58,0,0,0,1.34.43c.57.11,1.2.2,1.9.27s1.42.1,2.17.13l2.13.08c.67,0,1.26,0,1.77.08a4.05,4.05,0,0,1,1.06.18c0,.14,0,.28,0,.44,0,.32,0,.66,0,1a14.94,14.94,0,0,1-.2,1.57,10.86,10.86,0,0,1-.33,1.36,1.45,1.45,0,0,1-.46.77c-1.39,0-2.84,0-4.37-.07s-3-.14-4.57-.26a44.48,44.48,0,0,1-4.51-.62A31.48,31.48,0,0,1,203,82.5a4.88,4.88,0,0,1-.88-2A17.45,17.45,0,0,1,201.71,77.44Z"/><path class="cls-25" d="M223.82,77.34c0-.48,0-1,0-1.5,0-.68,0-1.39.07-2.11a33.26,33.26,0,0,1,.43-3.69,26.53,26.53,0,0,1,.79-3.32,9.47,9.47,0,0,1,1.11-2.46,10.72,10.72,0,0,1,2.3-.76c1-.24,2.17-.46,3.42-.65s2.57-.35,3.95-.48,2.62-.25,3.82-.31c.71,0,1.38-.05,2-.05q.6,0,1.14,0a6.11,6.11,0,0,1,1.87.27A14.65,14.65,0,0,1,245.85,65a25.73,25.73,0,0,1,.81,3.25c.21,1.14.36,2.31.46,3.51.07.87.11,1.72.1,2.55,0,.32,0,.63,0,.94-.63.1-1.51.2-2.63.32s-2.35.22-3.69.32-2.71.19-4.12.27-2.71.13-3.91.17A7.18,7.18,0,0,0,233,77.5a3.52,3.52,0,0,0,.32.87,4.92,4.92,0,0,0,1.38.56,12.75,12.75,0,0,0,2,.37l2.38.24,2.32.23,1.9.2a4.29,4.29,0,0,1,1.07.19c0,.13,0,.27,0,.41,0,.29,0,.61,0,1a13.92,13.92,0,0,1-.18,1.48,11.18,11.18,0,0,1-.32,1.27,1.37,1.37,0,0,1-.46.73c-1.35,0-2.82,0-4.42-.15s-3.2-.25-4.83-.45-3.23-.47-4.8-.81a40.57,40.57,0,0,1-4.32-1.17,4.88,4.88,0,0,1-.88-2A17.64,17.64,0,0,1,223.82,77.34ZM233,71.89l.64,0a12.76,12.76,0,0,0,2.44-.2,25.27,25.27,0,0,0,2.49-.55c0-.26,0-.51,0-.77a10.55,10.55,0,0,0-.06-1.13,5.23,5.23,0,0,0-.45-1.77l-1,.05c-.31,0-.62,0-1,.08s-.68.11-1,.19a6.42,6.42,0,0,0-1.24.46c-.17.62-.34,1.17-.5,1.65A9.81,9.81,0,0,0,233,71.89Z"/><path class="cls-9" d="M31.77,60.14c0-.47,0-1,.05-1.5s.07-1.06.13-1.6.12-1,.2-1.54a12.73,12.73,0,0,1,.28-1.35,12.45,12.45,0,0,1,2.37-.43c1.05-.11,2.24-.19,3.57-.25s2.74-.09,4.24-.09,3,0,4.36.06,2.73.1,4,.18a22.45,22.45,0,0,1,3,.36A11.39,11.39,0,0,1,55.66,56,16.4,16.4,0,0,1,57.25,59a18.41,18.41,0,0,1,1.07,3.49A13.08,13.08,0,0,1,58.6,65c0,.39,0,.79-.06,1.19-.43.55-1,1.28-1.8,2.18s-1.58,1.77-2.43,2.6c.17.28.39.68.65,1.2l.84,1.67c.29.59.6,1.21.91,1.86l.86,1.8c.27.55.5,1,.7,1.48s.34.74.42.93a6,6,0,0,1-1.51.65c-.66.2-1.4.39-2.2.57s-1.64.34-2.48.48a17.29,17.29,0,0,1-2.26.24c-.45-.55-.86-1.08-1.23-1.58l-1.07-1.5-1-1.52c-.35-.51-.73-1.06-1.15-1.65l-.5-.71a5.25,5.25,0,0,0-.56-.65,1.86,1.86,0,0,0-.61-.42.87.87,0,0,0-1.17.73,6.38,6.38,0,0,0-.09,1c0,.62,0,1.24,0,1.86v.91c0,.93,0,1.87-.07,2.83-.37.11-.87.22-1.47.34s-1.29.19-2,.25-1.56.09-2.42.09a22.62,22.62,0,0,1-2.59-.15c-.14-1.7-.25-3.47-.32-5.3s-.13-3.65-.16-5.47c0-1.09,0-2.17,0-3.26,0-.72,0-1.44,0-2.18,0-1.82,0-3.58.06-5.26-.25,0-.56,0-.95,0A4.58,4.58,0,0,1,31.77,60.14Zm11,2c0,.64,0,1.28,0,1.91s0,1.23.05,1.78a7.48,7.48,0,0,0,.17,1.37c.4,0,.88,0,1.43-.07a14.52,14.52,0,0,0,1.68-.25,8.88,8.88,0,0,0,1.61-.49,3.19,3.19,0,0,0,1.24-.85,4.68,4.68,0,0,0,0-.55,7,7,0,0,0,0-.77c0-.48-.11-.95-.18-1.39s-.14-.83-.22-1.18-.14-.57-.16-.7a2.13,2.13,0,0,0-1-.55,9.18,9.18,0,0,0-1.61-.31,8.47,8.47,0,0,0-1-.06q-.34,0-.66,0a2.28,2.28,0,0,0-1.17.35C42.82,61,42.78,61.55,42.76,62.19Z"/><path class="cls-9" d="M61.19,73.24V69.77c0-1.15,0-2.26,0-3.32s.07-2,.11-2.79l.93-.93c.38-.4.77-.8,1.18-1.2s.81-.78,1.18-1.12a5.43,5.43,0,0,1,1-.75c.91-.06,2-.13,3.3-.23s2.62-.2,4-.25q1.55-.06,3.06-.06h1a21.57,21.57,0,0,1,3.56.32,11.33,11.33,0,0,1,2.19,2.19c.7.9,1.35,1.75,1.93,2.54.06.83.11,1.86.16,3.1s.08,2.47.1,3.73c0,.85,0,1.65,0,2.4v1.09a16.39,16.39,0,0,1-.13,2.37c-.57.72-1.13,1.45-1.68,2.21a24.59,24.59,0,0,1-1.78,2.21,28.1,28.1,0,0,1-3.58.39c-1.44.08-3,.12-4.52.12s-3.14,0-4.7-.09-2.91-.16-4.09-.3a9.86,9.86,0,0,1-.86-1c-.3-.41-.6-.86-.9-1.33s-.58-1-.84-1.43a9.75,9.75,0,0,1-.6-1.25C61.2,75.44,61.19,74.39,61.19,73.24ZM70,70.59v2.29c0,.74,0,1.39,0,2s0,1,0,1.29a4.35,4.35,0,0,0,1.45.37l.74,0c.3,0,.61,0,.92,0a6.54,6.54,0,0,0,1.57-.36,4.19,4.19,0,0,0,1.18-.64c0-1.53.08-3.23.12-5.11,0-.26,0-.51,0-.77a40.07,40.07,0,0,0-.31-5l-1.47,0c-.46,0-.91,0-1.33.08a10.8,10.8,0,0,0-1.27.19,5.7,5.7,0,0,0-1.27.45,3.71,3.71,0,0,0-.23,1.09c-.05.52-.09,1.13-.12,1.84S70,69.79,70,70.59Z"/><path class="cls-9" d="M88.73,58c0-1.47,0-2.66.1-3.56a4.69,4.69,0,0,1,.84-.2c.41-.07.89-.13,1.44-.17S92.26,54,92.89,54l1.87,0h.59l1.07,0c.5,0,.87,0,1.12.05q0,1.39-.06,3.81c0,1.61,0,3.35,0,5.22s0,3.79,0,5.78V81.25l-1.73.19q-.69.07-1.53.09h-.34c-.49,0-1,0-1.66,0l-3.23-.15c0-.77-.05-1.85-.09-3.23s-.06-2.91-.07-4.6,0-3.46,0-5.32,0-3.65,0-5.37c0-1.16,0-2.25,0-3.29Z"/><path class="cls-9" d="M101.89,58c0-1.47,0-2.66.1-3.56a4.69,4.69,0,0,1,.84-.2c.41-.07.89-.13,1.44-.17s1.15-.06,1.78-.07l1.87,0h.58l1.08,0c.5,0,.87,0,1.12.05q0,1.39-.06,3.81c0,1.61,0,3.35,0,5.22s0,3.79,0,5.78V81.25l-1.73.19q-.69.07-1.53.09H107c-.49,0-1,0-1.66,0l-3.23-.15c0-.77,0-1.85-.09-3.23s-.06-2.91-.07-4.6,0-3.46,0-5.32,0-3.65,0-5.37c0-1.16,0-2.25,0-3.29Z"/><path class="cls-9" d="M125.46,76.7a18.5,18.5,0,0,1,.54-3.9,14.79,14.79,0,0,1,1.16-3.26,8.21,8.21,0,0,1,2-.87c.89-.27,1.87-.53,2.94-.79s2.19-.5,3.36-.73l3.36-.61c-.05-.24-.11-.52-.17-.83a2.75,2.75,0,0,0-.18-.64,5,5,0,0,0-1.91-.63,21.13,21.13,0,0,0-2.67-.27c-.76,0-1.54,0-2.34,0h-3.27c0-.14,0-.3,0-.47s0-.65,0-1a15,15,0,0,1,.2-1.54,11,11,0,0,1,.32-1.31,2.08,2.08,0,0,1,.47-.82c1.36-.13,2.74-.23,4.16-.31.93,0,1.86-.08,2.79-.08.5,0,1,0,1.48,0A38.92,38.92,0,0,1,142,59a30.74,30.74,0,0,1,4,.8,5.77,5.77,0,0,1,.94,2.16,29,29,0,0,1,.6,3.32c.15,1.25.27,2.59.34,4s.11,2.84.12,4.21v.83c0,1.09,0,2.14,0,3.15,0,1.25-.09,2.32-.14,3.2-.7.19-1.57.38-2.6.56s-2.15.33-3.34.46-2.43.24-3.71.33-2.51.15-3.69.17l-1.29,0c-.7,0-1.36,0-2,0a21.6,21.6,0,0,1-2.49-.25l-.88-1.21c-.32-.45-.64-.91-1-1.38s-.59-.94-.85-1.41A10.31,10.31,0,0,1,125.46,76.7Zm9.09-2.08a7,7,0,0,0,.13,1.11,9,9,0,0,0,.26,1,3.48,3.48,0,0,0,1.38.24l.44,0c.75,0,1.66-.12,2.73-.22,0-.9,0-1.77,0-2.6s0-1.68-.08-2.54c-.79.15-1.55.28-2.28.37a6.57,6.57,0,0,0-2.18.69,2.64,2.64,0,0,0-.31.91,3.78,3.78,0,0,0,0,.83Z"/><path class="cls-9" d="M162.74,75.63a7.31,7.31,0,0,1-.1-1.3,13.13,13.13,0,0,1,.1-1.58,22,22,0,0,1,.72-3.54,20.68,20.68,0,0,1,1.32-3.4,8.93,8.93,0,0,1,1.76-2.53c.89-.18,1.8-.37,2.74-.58s1.88-.4,2.84-.55,1.92-.29,2.91-.37c.59,0,1.17-.07,1.77-.07.41,0,.83,0,1.25,0q0-.84,0-1.89c0-.7,0-1.42.06-2.14s0-1.41.07-2.07,0-1.25.07-1.74a7.2,7.2,0,0,1,2-.48,15.72,15.72,0,0,1,1.7-.09l.66,0a17,17,0,0,1,2.31.24,11.13,11.13,0,0,1,1.9.48q0,3,0,6.66v7.3q0,3.6-.09,7.13c-.05,2.36-.15,4.48-.32,6.38a24.83,24.83,0,0,1-3.34.61c-1.19.15-2.4.24-3.62.29-.76,0-1.52,0-2.29,0h-1.35c-1.2,0-2.34-.09-3.43-.19s-2.07-.19-3-.28-1.66-.17-2.28-.25a13.61,13.61,0,0,1-2.38-2.85C164.07,77.76,163.38,76.66,162.74,75.63Zm9-3.09c-.06.52-.09,1-.1,1.47a9,9,0,0,0,.2,2,7.64,7.64,0,0,0,1.28.25,13.36,13.36,0,0,0,1.58.08,15.25,15.25,0,0,0,1.66-.08A12.51,12.51,0,0,0,177.9,76a5,5,0,0,0,.12-1.25c0-.46,0-1,0-1.5v-.83c0-.85,0-1.69,0-2.5s0-1.39-.06-1.74a9.15,9.15,0,0,0-2.29-.28l-.43,0a6.66,6.66,0,0,0-2.71.63A35,35,0,0,0,171.77,72.54Z"/><path class="cls-9" d="M190.87,56.36c0-.38.06-.75.11-1.1s.09-.64.13-.83a1.49,1.49,0,0,1,.59-.93,5.46,5.46,0,0,1,1.14-.65,6.8,6.8,0,0,1,1.28-.41l1-.22a2.25,2.25,0,0,1,.38,0l.41,0a8.1,8.1,0,0,1,1,.18c.32.08.63.17,1,.27a3.31,3.31,0,0,1,.77.32,12,12,0,0,1,.49,2.15,7.26,7.26,0,0,1,.12,1.31,7.54,7.54,0,0,1-.06.94,1.54,1.54,0,0,1-.8.67,7.46,7.46,0,0,1-1.47.48,16.25,16.25,0,0,1-1.76.28,11.13,11.13,0,0,1-1.26.07h-.52a8.12,8.12,0,0,1-1.46-.19,1.28,1.28,0,0,1-.81-.42,2.19,2.19,0,0,1-.22-.83c0-.21,0-.42,0-.64S190.86,56.52,190.87,56.36Zm.22,15c0-.64,0-1.27,0-1.89,0-2.7,0-5.24.16-7.64.6-.11,1.23-.2,1.9-.26s1.33-.11,2-.14,1.34-.05,2-.05H199c0,1.73,0,3.38,0,5s-.07,3.13-.13,4.69-.13,3.13-.2,4.73-.16,3.28-.26,5a4,4,0,0,1-1.3.29c-.65.07-1.33.13-2.06.18s-1.42.07-2.09.07-1.16,0-1.44,0C191.25,78,191.12,74.7,191.09,71.31Z"/><path class="cls-9" d="M201.71,74.44c0-.5-.05-1-.05-1.51,0-.67,0-1.37.08-2.08a30.48,30.48,0,0,1,.42-3.67,24.38,24.38,0,0,1,.8-3.29,9.82,9.82,0,0,1,1.1-2.44,10.06,10.06,0,0,1,2.18-.8c.93-.25,2-.48,3.11-.67s2.32-.37,3.55-.51,2.41-.26,3.49-.32c.66,0,1.27-.06,1.82-.06.38,0,.73,0,1.06,0a5.52,5.52,0,0,1,1.76.28c.06.43.12,1.09.19,2q0,.34,0,.72A11.29,11.29,0,0,1,221,64.3l-2.6.15c-.83,0-1.61.09-2.36.16a21.4,21.4,0,0,0-2.17.29,10.57,10.57,0,0,0-2.13.65c-.2.7-.39,1.5-.58,2.4s-.31,1.81-.41,2.71a15.07,15.07,0,0,0-.09,1.62q0,.5,0,1a4.38,4.38,0,0,0,.54,2,4.58,4.58,0,0,0,1.34.43c.57.11,1.2.2,1.9.27s1.42.1,2.17.13l2.13.08c.67,0,1.26,0,1.77.08a4.05,4.05,0,0,1,1.06.18c0,.14,0,.28,0,.44,0,.32,0,.66,0,1a14.94,14.94,0,0,1-.2,1.57,10.86,10.86,0,0,1-.33,1.36,1.45,1.45,0,0,1-.46.77c-1.39,0-2.84,0-4.37-.07s-3-.14-4.57-.26a44.48,44.48,0,0,1-4.51-.62A31.48,31.48,0,0,1,203,79.5a4.88,4.88,0,0,1-.88-2A17.45,17.45,0,0,1,201.71,74.44Z"/><path class="cls-9" d="M223.82,74.34c0-.48,0-1,0-1.5,0-.68,0-1.39.07-2.11a33.26,33.26,0,0,1,.43-3.69,26.53,26.53,0,0,1,.79-3.32,9.47,9.47,0,0,1,1.11-2.46,10.72,10.72,0,0,1,2.3-.76c1-.24,2.17-.46,3.42-.65s2.57-.35,3.95-.48,2.62-.25,3.82-.31c.71,0,1.38-.05,2-.05q.6,0,1.14,0a6.11,6.11,0,0,1,1.87.27A14.65,14.65,0,0,1,245.85,62a25.73,25.73,0,0,1,.81,3.25c.21,1.14.36,2.31.46,3.51.07.87.11,1.72.1,2.55,0,.32,0,.63,0,.94-.63.1-1.51.2-2.63.32s-2.35.22-3.69.32-2.71.19-4.12.27-2.71.13-3.91.17A7.18,7.18,0,0,0,233,74.5a3.52,3.52,0,0,0,.32.87,4.92,4.92,0,0,0,1.38.56,12.75,12.75,0,0,0,2,.37l2.38.24,2.32.23,1.9.2a4.29,4.29,0,0,1,1.07.19c0,.13,0,.27,0,.41,0,.29,0,.61,0,1a13.92,13.92,0,0,1-.18,1.48,11.18,11.18,0,0,1-.32,1.27,1.37,1.37,0,0,1-.46.73c-1.35,0-2.82,0-4.42-.15s-3.2-.25-4.83-.45-3.23-.47-4.8-.81a40.57,40.57,0,0,1-4.32-1.17,4.88,4.88,0,0,1-.88-2A17.64,17.64,0,0,1,223.82,74.34ZM233,68.89l.64,0a12.76,12.76,0,0,0,2.44-.2,25.27,25.27,0,0,0,2.49-.55c0-.26,0-.51,0-.77a10.55,10.55,0,0,0-.06-1.13,5.23,5.23,0,0,0-.45-1.77l-1,.05c-.31,0-.62,0-1,.08s-.68.11-1,.19a6.42,6.42,0,0,0-1.24.46c-.17.62-.34,1.17-.5,1.65A9.81,9.81,0,0,0,233,68.89Z"/><g class="cls-26"><g class="cls-27"><path class="cls-9" d="M276.24,56.67a.38.38,0,0,0-.38.24l-.06.12v.91c0,.91,0,.91-.06.93s0,0-.06,0a2,2,0,0,1-.32-.35c-.24-.29-.25-.3-.4-.35s-.25,0-.35.15a.83.83,0,0,0,0,.78,8.25,8.25,0,0,0,.52.66,4.56,4.56,0,0,1,.53.71l.07.15v.54c0,.59,0,.64-.1.61a2.27,2.27,0,0,1-.3-.33c-.19-.25-.3-.39-.36-.41s-.08.16-.08.58,0,.69-.11.66-.17-.14-.34-.33c-.47-.56-.44-.46-.46-1.69v-1l-.05-.14a.54.54,0,0,0-.35-.34c-.2-.07-.31,0-.39.14s-.06.14-.06.6,0,.61-.11.58a5.64,5.64,0,0,1-.57-.61c-.46-.53-.53-.59-.63-.63-.3-.1-.53.25-.46.73,0,.27.12.4.65,1s.54.66.49.76a.89.89,0,0,1-.28.19c-.3.14-.37.23-.39.49a.88.88,0,0,0,.09.53.58.58,0,0,0,.31.34h.09a3.78,3.78,0,0,0,.56-.26c.46-.25.47-.26.59-.22s.14.07.41.42.3.41.32.45,0,.21-.28.39-.32.21-.29.33a2.08,2.08,0,0,0,.3.43c.3.36.35.45.29.54a2.21,2.21,0,0,1-.67.28h-.06c-.11,0-.25-.18-.65-.66s-.48-.56-.58-.59a.21.21,0,0,0-.29.09,1,1,0,0,0,0,.95l.28.35c.21.25.24.29.24.38l0,.13-.5.29c-.51.27-.55.32-.58.64a.89.89,0,0,0,.48,1h0c.14,0,.16,0,.61-.2a2,2,0,0,1,.5-.21c.09,0,.11.14.1.61a2.26,2.26,0,0,0,0,.58.73.73,0,0,0,.39.49c.15.06.3,0,.38-.2s.05-.15.06-1v-.86l.06-.11c0-.08.13-.14.37-.26a1.78,1.78,0,0,1,.36-.15c.09,0,.1.12.11.65s0,.53,0,.57,0,0,0,0,.14,0,.36-.15a.84.84,0,0,1,.3-.13c.1,0,.11.09.1.67v.54l-.06.11a2.13,2.13,0,0,1-.51.33,3.44,3.44,0,0,0-.49.27.64.64,0,0,0-.14.44.76.76,0,0,0,.39.77h0c.1,0,.16,0,.35-.09s.3-.15.34-.14,0,0,.05,0l.05.07v1.82l.05.16a.79.79,0,0,0,.41.51c.15.06.32,0,.41-.23l.06-.12V70.92l.05,0s0,0,.05,0,.11.1.35.38a1,1,0,0,0,.37.33.25.25,0,0,0,.12,0c.25,0,.36-.43.24-.84-.06-.2-.07-.21-.58-.82s-.47-.57-.53-.77a2.07,2.07,0,0,1,0-.65c0-.53,0-.58.1-.55a2.5,2.5,0,0,1,.33.39c.22.29.3.4.35.41a0,0,0,0,0,.05,0s0-.08.06-.59,0-.62.09-.59.14.12.29.3c.47.57.46.53.46,1.62v.81l.06.17a.72.72,0,0,0,.39.5.22.22,0,0,0,.27-.07c.1-.14.12-.28.13-.78s0-.53.11-.5a5.06,5.06,0,0,1,.53.59c.42.49.57.65.69.69h.06a.48.48,0,0,0,.34-.13,1,1,0,0,0,0-.91,6.11,6.11,0,0,0-.59-.72c-.66-.79-.66-.78-.23-1s.42-.22.42-.58a1,1,0,0,0-.35-.77l-.1-.06c-.11,0-.24,0-.62.22l-.46.25-.15-.05-.15,0-.34-.42-.34-.42.35-.19a1.49,1.49,0,0,0,.37-.23c.08-.09,0-.18-.26-.55-.14-.19-.27-.37-.29-.41a.19.19,0,0,1,.06-.23,2.65,2.65,0,0,1,.56-.26H279c.11,0,.25.19.63.66s.45.54.59.6l0,0c.25.09.41-.1.41-.5a1.07,1.07,0,0,0-.13-.51,2.19,2.19,0,0,0-.23-.3c-.26-.31-.33-.41-.33-.5s0-.12.57-.36a1.7,1.7,0,0,0,.52-.3,1.06,1.06,0,0,0,0-.91,1.11,1.11,0,0,0-.35-.39l0,0c-.11,0-.23,0-.68.25a2.36,2.36,0,0,1-.51.23l-.07-.08c0-.06,0-.12,0-.55s0-.67-.16-.89a.48.48,0,0,0-.24-.23.33.33,0,0,0-.25,0l-.15.18c-.06.12-.06.13-.06,1,0,1.12,0,1.07-.45,1.31-.15.08-.26.12-.32.09s-.11-.21-.1-.64,0-.59-.09-.63a.69.69,0,0,0-.37.1c-.21.11-.28.14-.32.12s0,0,0,0l-.06-.07V61.6c0-.46,0-.54,0-.63s.1-.19.57-.42a4.13,4.13,0,0,0,.47-.27.93.93,0,0,0,0-1,.52.52,0,0,0-.24-.23.53.53,0,0,0-.4.08c-.23.11-.3.15-.34.13s0,0,0,0l-.05-.06V57.35l-.06-.16a1.45,1.45,0,0,0-.3-.47l-.13,0"/></g></g><g class="cls-26"><g class="cls-28"><path class="cls-9" d="M286.86,75.84a.39.39,0,0,0-.39.24l-.05.13v.9c0,.91,0,.91-.06.94s0,0-.05,0-.12-.1-.33-.35-.25-.29-.4-.34-.25,0-.35.15a.81.81,0,0,0,0,.78s.26.35.51.65a5.38,5.38,0,0,1,.54.71l.07.16v.54c0,.59,0,.64-.1.6a2.27,2.27,0,0,1-.3-.33c-.19-.24-.3-.38-.36-.4s-.08.15-.08.56,0,.71-.12.67-.16-.14-.33-.33c-.47-.55-.45-.45-.46-1.69v-1l-.05-.13a.54.54,0,0,0-.36-.35c-.19-.06-.3,0-.39.14s-.05.15-.05.61,0,.61-.12.58-.28-.29-.56-.61c-.46-.54-.53-.6-.63-.64-.3-.1-.53.26-.46.73,0,.27.12.4.65,1s.53.66.49.77a.93.93,0,0,1-.28.18c-.31.14-.38.23-.39.5a1,1,0,0,0,.08.53.63.63,0,0,0,.31.33l.1,0a4.41,4.41,0,0,0,.56-.27c.45-.24.47-.25.59-.21s.13.07.41.42a4.37,4.37,0,0,1,.32.45c.06.15,0,.21-.28.38s-.32.21-.3.34a3.2,3.2,0,0,0,.31.42c.3.36.35.46.29.54a2.18,2.18,0,0,1-.68.29h-.05c-.11,0-.24-.18-.66-.67s-.47-.55-.57-.58a.22.22,0,0,0-.29.08,1,1,0,0,0,0,1s.15.2.28.35.23.29.24.38l0,.14-.5.29c-.51.27-.55.31-.58.63a.89.89,0,0,0,.48,1h0c.14,0,.16,0,.6-.19a2.4,2.4,0,0,1,.51-.22c.08,0,.11.15.1.61a2.21,2.21,0,0,0,0,.58.75.75,0,0,0,.39.5.3.3,0,0,0,.38-.2c0-.11,0-.16.06-1v-.86l.06-.1c0-.08.13-.14.37-.27a1.51,1.51,0,0,1,.35-.14c.1,0,.11.11.12.65s0,.52,0,.56a.08.08,0,0,0,0,0c.05,0,.14,0,.36-.16a1,1,0,0,1,.3-.12c.1,0,.11.09.1.67V88l-.07.11a1.48,1.48,0,0,1-.51.31l-.48.28a.67.67,0,0,0-.14.45.76.76,0,0,0,.38.76h.05c.1,0,.16,0,.35-.08s.31-.15.35-.14l0,0,.05.07v1.82l.06.17a.81.81,0,0,0,.4.5.33.33,0,0,0,.41-.22l.06-.13V90.09l.05,0s0,0,.05,0,.11.09.35.37a1.12,1.12,0,0,0,.37.34h.12c.25,0,.36-.42.24-.83-.06-.21-.07-.22-.58-.83s-.48-.57-.53-.76a2.11,2.11,0,0,1,0-.65c0-.53,0-.58.1-.55a2.39,2.39,0,0,1,.32.38c.23.3.31.4.36.42a0,0,0,0,0,.05,0s0-.09.06-.6,0-.62.08-.59.14.13.3.31c.47.57.45.52.46,1.61v.82l.06.17a.77.77,0,0,0,.39.5.25.25,0,0,0,.27-.08c.1-.13.12-.27.13-.77s0-.54.11-.51.26.28.52.58c.41.49.57.66.69.7h.06a.43.43,0,0,0,.35-.13,1,1,0,0,0,0-.9,6.74,6.74,0,0,0-.59-.73c-.66-.78-.66-.78-.23-1s.41-.24.41-.58a1,1,0,0,0-.35-.78l-.1-.06c-.11,0-.24,0-.61.23l-.46.25-.15,0-.15,0-.34-.42c-.19-.23-.34-.42-.34-.43a2.28,2.28,0,0,1,.34-.18,1.78,1.78,0,0,0,.38-.23c.08-.09,0-.19-.26-.56a2.76,2.76,0,0,1-.29-.41.2.2,0,0,1,0-.23,2.09,2.09,0,0,1,.57-.25h.08c.11,0,.25.19.62.65s.45.55.59.61l0,0c.25.09.41-.1.41-.5a1.11,1.11,0,0,0-.13-.52s-.13-.18-.23-.29c-.26-.32-.33-.41-.33-.5s0-.12.57-.37a1.77,1.77,0,0,0,.52-.29,1.06,1.06,0,0,0,0-.91,1,1,0,0,0-.35-.39l-.05,0c-.1,0-.23,0-.67.25a2.72,2.72,0,0,1-.51.24l-.08-.09s0-.11,0-.54,0-.68-.16-.9a.45.45,0,0,0-.24-.22.29.29,0,0,0-.25,0l-.16.18c-.05.12-.05.13-.05,1,0,1.11,0,1.08-.45,1.31-.16.08-.26.12-.32.1s-.11-.22-.1-.65,0-.59-.09-.63-.19,0-.37.11-.28.13-.32.12l-.05,0-.05-.07v-.52a1.75,1.75,0,0,1,0-.63c.06-.16.1-.18.56-.42l.48-.26a.94.94,0,0,0,0-1,.49.49,0,0,0-.25-.23.5.5,0,0,0-.39.07c-.23.11-.3.15-.34.14l-.06-.06,0-.06V76.53l0-.17a1.52,1.52,0,0,0-.3-.46l-.13-.06"/></g></g><g class="cls-26"><g class="cls-29"><path class="cls-9" d="M309.45,34.41l-.12,0a1.68,1.68,0,0,0-.57,0l-.14,0-.59.19c-.59.19-.59.19-.67.18h-.08s0-.06-.11-.15-.08-.11-.12-.13a.19.19,0,0,0-.09,0,.93.93,0,0,0-.49-.05c-.26,0-.47.09-.47.17a1.35,1.35,0,0,0,.14.27c.11.16.14.25.13.28l0,0-.35.12c-.36.13-.41.14-.49.11h0a.42.42,0,0,1-.11-.14c-.05-.09-.08-.15-.12-.17s-.18,0-.47.09-.48.16-.57.11a.3.3,0,0,1-.13-.14c-.17-.23-.2-.21.58-.47l.62-.21,0,0c0-.05,0-.08-.07-.12l-.09,0a1.13,1.13,0,0,0-.52-.06,1.46,1.46,0,0,0-.45.12c-.34.11-.42.12-.5.09h0a2,2,0,0,1-.22-.26c-.14-.19-.18-.25-.24-.28h0a1.52,1.52,0,0,0-1,0c-.12.07-.12.12.05.38s.16.27,0,.28-.22,0-.42,0a1.92,1.92,0,0,0-.75,0c-.15,0-.23.08-.25.13s0,.09.08.13a.64.64,0,0,0,.15.05l.76.07a3.78,3.78,0,0,1,.79.1l.06,0c.05,0,.06.06.11.16a.51.51,0,0,1,.07.17s-.12,0-.56,0-.49,0-.53,0,0,.08.06.16.08.19,0,.19l-.92-.1-.09,0a.76.76,0,0,1-.24-.29c-.12-.16-.15-.21-.2-.24l-.06,0a.83.83,0,0,0-.37,0c-.3,0-.61.1-.61.2s0,.07.07.14.07.12,0,.14l-.12,0-.73-.06a2.66,2.66,0,0,0-1,0c-.29.07-.35.19-.17.28l.13,0a2.85,2.85,0,0,0,.77.1l.69.08h0c.05,0,0,.07-.29.16a1.09,1.09,0,0,0-.33.13c-.08.06,0,.13,0,.17a1.14,1.14,0,0,0,.6.08,2.9,2.9,0,0,0,.7-.2l.57-.18h.12a3.65,3.65,0,0,1,.58,0l.48.06h0s0,.05-.32.16-.32.11-.32.13h0a2.51,2.51,0,0,0,.51.06l.4,0h0c.05,0,0,0-.35.16l-.36.11h-.14l-.75-.05-.72-.06a1.44,1.44,0,0,0-.43.06c-.22.07-.26.16-.13.23a.19.19,0,0,0,.09,0,2.45,2.45,0,0,0,.44.07l.48,0a0,0,0,0,1,0,0v0l-.58.2-.58.19,0,.05c-.06.07,0,.14.07.19l0,0a1.55,1.55,0,0,0,.59,0h.15l.59-.2.59-.19h.15a.66.66,0,0,1,.13.16.32.32,0,0,0,.14.14.58.58,0,0,0,.17,0,1.13,1.13,0,0,0,.79-.12c.07-.06.07-.06-.1-.31s-.15-.24-.08-.3a1.43,1.43,0,0,1,.37-.14c.35-.12.39-.13.47-.1h0a.44.44,0,0,1,.1.16.39.39,0,0,0,.11.17.15.15,0,0,0,.08,0,1.74,1.74,0,0,0,.44-.12c.31-.1.42-.13.49-.1s.06.07.11.13c.14.24.16.23-.54.46l-.53.17-.05.06c-.06.06,0,.12.05.17a.85.85,0,0,0,.39.07A1.64,1.64,0,0,0,304,38c.3-.1.37-.11.45-.08h0a1.14,1.14,0,0,1,.19.25.81.81,0,0,0,.25.3l.11,0a4,4,0,0,0,.46,0c.28,0,.55-.1.57-.2a.71.71,0,0,0-.15-.29c-.23-.33-.23-.33.34-.26a1.6,1.6,0,0,0,.83,0c.21-.06.25-.16.12-.25l0,0a3.58,3.58,0,0,0-.85-.12l-.66-.05-.14,0-.13-.05-.1-.17a1.77,1.77,0,0,1-.1-.17s.24,0,.5,0l.56,0c.15,0,.16,0,.07-.19s-.06-.15,0-.16l.19,0a7.26,7.26,0,0,1,.78.08l.12,0c.08,0,.13.11.23.27s.12.21.18.24l.06,0a1.18,1.18,0,0,0,.81,0c.11,0,.18-.1.18-.14a.26.26,0,0,0-.06-.12c-.08-.13-.09-.17,0-.19s.1,0,.85.06l.75.06c.28,0,.56-.1.6-.19s0-.13-.12-.17a3.75,3.75,0,0,0-.94-.13l-.7-.07,0,0s0,0,.32-.13.41-.15.41-.23,0-.06-.07-.08a.85.85,0,0,0-.34-.08h-.29a3.45,3.45,0,0,0-.69.2,2.11,2.11,0,0,1-1.33.17,1.87,1.87,0,0,1-.42-.06c-.06,0,.05-.08.31-.16s.38-.12.32-.15a1.54,1.54,0,0,0-.48-.07l-.44-.06a0,0,0,0,0,0,0l0,0,.34-.12a1.67,1.67,0,0,1,.44-.12,3.53,3.53,0,0,1,.89,0l.68.05c.32,0,.62-.1.61-.21s0-.06-.07-.09a1.83,1.83,0,0,0-.52-.1l-.47,0s0,0,0,0l0,0,.59-.2.57-.19.05-.05a.13.13,0,0,0,0-.17"/><path class="cls-9" d="M324.57,39.9l-.12,0a1.62,1.62,0,0,0-.56,0h-.15l-.6.19c-.58.2-.58.2-.66.19l-.08,0s0,0-.11-.14a.35.35,0,0,0-.12-.14l-.1,0a1.14,1.14,0,0,0-.48,0c-.26,0-.47.09-.46.18a.94.94,0,0,0,.14.26c.1.17.13.25.12.28l0,.05-.35.12c-.37.13-.41.13-.5.11h0a.34.34,0,0,1-.11-.14.53.53,0,0,0-.12-.17c-.07,0-.18,0-.47.1s-.48.15-.57.11a.5.5,0,0,1-.13-.15c-.16-.23-.19-.2.59-.47l.61-.21,0,0c0-.05,0-.08-.06-.12l-.1,0a1.29,1.29,0,0,0-.52-.07,1.85,1.85,0,0,0-.45.12c-.33.11-.42.13-.5.1h0a1.64,1.64,0,0,1-.22-.27c-.14-.19-.18-.24-.24-.27l0,0a1.59,1.59,0,0,0-1,0c-.12.06-.12.11.05.38s.16.27,0,.28a3,3,0,0,1-.43,0,1.93,1.93,0,0,0-.75,0c-.16,0-.23.09-.25.14s0,.09.08.12a.38.38,0,0,0,.14.05l.78.08a3.25,3.25,0,0,1,.78.1l.06,0c.05,0,.07.06.12.16a.36.36,0,0,1,.05.18s-.11,0-.54,0-.48,0-.54,0,0,.08.06.16.08.18,0,.19-.82-.08-.91-.11l-.1,0a.79.79,0,0,1-.24-.28c-.12-.17-.15-.22-.2-.25l-.06,0a1,1,0,0,0-.36-.05c-.31,0-.62.1-.62.2a.55.55,0,0,0,.08.14c.07.11.07.12,0,.15l-.12,0-.73-.06a2.55,2.55,0,0,0-1,0c-.29.08-.35.19-.17.29l.12,0a3.81,3.81,0,0,0,.78.1l.69.07h0c.05,0,0,.06-.29.15a1.09,1.09,0,0,0-.34.14c-.07.06-.05.12.05.17a1.16,1.16,0,0,0,.6.07,3.27,3.27,0,0,0,.7-.19l.57-.18h.13a3.61,3.61,0,0,1,.57,0l.48.06h0c.05,0,0,.06-.32.16a1.35,1.35,0,0,0-.32.13h0a1.77,1.77,0,0,0,.51.06l.41,0h0s0,0-.36.16l-.36.11H316c-.09,0-.31,0-.76-.06l-.71-.05a1.18,1.18,0,0,0-.43.06c-.22.06-.26.16-.13.23l.1,0a1.73,1.73,0,0,0,.43.06,2.3,2.3,0,0,1,.47.06,0,0,0,0,1,0,0l0,0-.59.19-.58.2-.05.05c-.05.06,0,.13.07.18l.06,0a1.48,1.48,0,0,0,.58.05h.15l.59-.19.59-.19h.15a.6.6,0,0,1,.13.17.49.49,0,0,0,.15.14.5.5,0,0,0,.16,0,1.2,1.2,0,0,0,.8-.12c.07-.06.06-.06-.1-.32s-.15-.24-.09-.29a1.22,1.22,0,0,1,.37-.15c.35-.11.39-.12.46-.09h0s.07.08.11.16a.38.38,0,0,0,.1.17h.08c.06,0,.1,0,.44-.11s.42-.14.49-.1.06.06.1.13c.16.23.17.22-.53.46l-.52.17-.06,0c-.06.07,0,.13,0,.18a.94.94,0,0,0,.39.07,1.84,1.84,0,0,0,.64-.13c.31-.11.37-.12.46-.09h0a.92.92,0,0,1,.19.25c.12.17.18.25.26.29l.11,0a2.42,2.42,0,0,0,.45.06c.27,0,.55-.1.58-.2s-.05-.13-.16-.3c-.23-.33-.23-.33.35-.26a1.65,1.65,0,0,0,.83,0c.19-.07.25-.17.12-.25l0,0a2.67,2.67,0,0,0-.86-.12l-.66-.06-.13,0-.14-.05-.09-.17-.1-.18.49,0,.56,0c.14,0,.16,0,.08-.18s-.07-.15-.06-.16l.2,0,.79.08.11,0a.65.65,0,0,1,.22.27c.11.18.14.22.2.25l.06,0a1.22,1.22,0,0,0,.8,0c.11,0,.18-.09.18-.14s0-.07-.05-.12-.09-.17,0-.18.1,0,.86.06l.74.06c.28,0,.57-.1.6-.2s0-.12-.12-.16A3.13,3.13,0,0,0,325,42l-.7-.07,0,0s.05,0,.32-.12.42-.16.41-.24a.13.13,0,0,0-.07-.08.88.88,0,0,0-.35-.07h-.28a2.46,2.46,0,0,0-.69.19,2,2,0,0,1-1.33.17,1.87,1.87,0,0,1-.42-.06c-.06,0,.05-.07.32-.15s.38-.12.32-.16a3.18,3.18,0,0,0-.49-.07,1.47,1.47,0,0,1-.43-.06h0v0l.33-.11a2.73,2.73,0,0,1,.44-.13,4.19,4.19,0,0,1,.89.05l.69.06c.31,0,.61-.1.61-.21a.12.12,0,0,0-.08-.09,1.52,1.52,0,0,0-.52-.1,2.7,2.7,0,0,1-.47-.06s0,0,0,0v0l.58-.2.58-.19,0-.06a.13.13,0,0,0,0-.17"/><path class="cls-9" d="M292.4,40l-.11,0a1.62,1.62,0,0,0-.56,0h-.15l-.6.19c-.58.2-.58.2-.66.19l-.08,0s-.06,0-.12-.14-.06-.11-.11-.14l-.1,0a1,1,0,0,0-.48-.06c-.26,0-.47.09-.47.18a1.85,1.85,0,0,0,.14.26c.11.17.14.25.12.28l0,0-.34.12c-.37.13-.41.13-.5.11h0s-.08-.07-.12-.14a.34.34,0,0,0-.12-.17c-.06,0-.17,0-.46.1s-.48.15-.57.11a.51.51,0,0,1-.14-.15c-.15-.23-.18-.2.6-.47l.6-.21,0,0s0-.08-.06-.12a.34.34,0,0,0-.1,0,1.1,1.1,0,0,0-.52-.06,1.36,1.36,0,0,0-.44.11c-.34.12-.42.13-.5.1h0a1.53,1.53,0,0,1-.23-.27c-.13-.19-.17-.24-.23-.27l0,0a1.56,1.56,0,0,0-1,.05c-.13.06-.13.11.05.38s.16.27.05.28l-.44,0a1.89,1.89,0,0,0-.74,0c-.16,0-.23.09-.25.14a.1.1,0,0,0,.07.12l.15,0,.78.08a3.25,3.25,0,0,1,.78.1l.06,0a.45.45,0,0,1,.12.17.67.67,0,0,1,.06.17s-.12,0-.56,0-.48,0-.54,0a.27.27,0,0,0,.07.16c.08.15.08.18,0,.19s-.83-.08-.92-.1l-.09,0c-.07,0-.12-.11-.25-.28s-.14-.22-.2-.25l-.05,0a1,1,0,0,0-.36-.05c-.32,0-.62.1-.62.2a1.41,1.41,0,0,0,.07.15c.08.1.07.11,0,.14l-.12,0-.73-.06a2.55,2.55,0,0,0-1,0c-.29.08-.35.19-.17.29l.12,0a3.52,3.52,0,0,0,.78.1l.69.07h0c.05,0,0,.06-.29.15s-.29.1-.33.14-.05.12,0,.17a1.2,1.2,0,0,0,.61.07,3.27,3.27,0,0,0,.7-.19l.57-.18h.12a3.69,3.69,0,0,1,.58,0l.48.06h0s0,.06-.33.16-.32.12-.31.13v0a3,3,0,0,0,.51,0l.41,0h0c.05,0,0,0-.35.16l-.36.11h-.14c-.09,0-.31,0-.76-.06s-.66-.06-.71-.05a1.27,1.27,0,0,0-.44.06c-.21.07-.26.16-.12.23l.1,0a1.71,1.71,0,0,0,.42.06l.48.06,0,0v0l-.58.19-.58.2-.05.05c0,.06,0,.13.07.18l.06,0a1.29,1.29,0,0,0,.58.05h.15l.59-.19.59-.19h.15a.89.89,0,0,1,.13.17.37.37,0,0,0,.14.14l.16,0a1.23,1.23,0,0,0,.81-.12c.07-.06.06-.06-.11-.32s-.14-.23-.08-.29a1.08,1.08,0,0,1,.37-.15c.35-.11.39-.12.46-.09h0a.39.39,0,0,1,.1.16c.05.1.07.15.11.17H286c.05,0,.09,0,.43-.11s.43-.14.5-.1a.38.38,0,0,1,.1.13c.16.24.17.22-.53.46l-.52.17-.06,0c-.07.07,0,.13.05.18a.94.94,0,0,0,.39.07,1.64,1.64,0,0,0,.64-.13c.31-.1.36-.11.45-.08h0a1.2,1.2,0,0,1,.19.25,1,1,0,0,0,.26.3l.1,0a2.53,2.53,0,0,0,.46.06c.27,0,.54-.1.57-.2s0-.13-.15-.3-.23-.32.35-.26a1.66,1.66,0,0,0,.83,0c.19-.07.24-.17.11-.25l0,0a2.67,2.67,0,0,0-.86-.12l-.66-.06-.13,0-.13-.05-.1-.17c-.05-.1-.1-.17-.09-.18l.49,0,.56,0c.14,0,.15,0,.07-.18s-.06-.15-.05-.16l.2,0,.79.08.11,0a.74.74,0,0,1,.22.27c.1.18.13.22.19.25l.06,0a1.25,1.25,0,0,0,.81,0c.11,0,.19-.09.18-.14a.31.31,0,0,0-.06-.12c-.08-.13-.09-.16,0-.18s.1,0,.85.06l.75.06c.27,0,.56-.1.59-.2s0-.12-.11-.16a3.23,3.23,0,0,0-.94-.13l-.7-.07,0,0s0,0,.32-.12.41-.15.41-.24a.13.13,0,0,0-.08-.08.79.79,0,0,0-.34-.07h-.28a2.46,2.46,0,0,0-.69.19,2.06,2.06,0,0,1-1.33.17,1.87,1.87,0,0,1-.42-.06c-.06,0,.05-.07.31-.15s.38-.12.32-.15a1.74,1.74,0,0,0-.48-.08l-.44,0s0,0,0,0l0,0,.33-.11a3,3,0,0,1,.45-.13,5.21,5.21,0,0,1,.89.05l.69.06c.31,0,.61-.1.6-.21a.09.09,0,0,0-.07-.09,1.52,1.52,0,0,0-.52-.1,1.72,1.72,0,0,1-.47-.06s0,0,0,0v0l.58-.2.57-.2.05,0s0-.12,0-.17"/><path class="cls-9" d="M307.53,45.54l-.12,0a1.88,1.88,0,0,0-.56,0l-.15,0-.59.19c-.59.19-.59.19-.67.19l-.08,0a.56.56,0,0,1-.12-.15c0-.08-.06-.11-.11-.13l-.1,0a1.15,1.15,0,0,0-.49,0c-.25,0-.45.09-.46.17a2.41,2.41,0,0,0,.14.27c.11.17.14.24.12.28l0,0-.35.12c-.36.12-.4.13-.49.1a.65.65,0,0,1-.12-.14c0-.09-.07-.15-.11-.17s-.18,0-.47.1-.48.15-.57.1a.45.45,0,0,1-.13-.14c-.16-.23-.2-.21.59-.47l.62-.21v-.05s0-.07-.05-.11l-.1,0a1.13,1.13,0,0,0-.52-.07,1.53,1.53,0,0,0-.45.12c-.33.11-.42.13-.5.09h0a1.61,1.61,0,0,1-.21-.26c-.13-.19-.18-.24-.23-.27l0,0a1.52,1.52,0,0,0-1,0c-.13.07-.12.12.05.38s.16.27,0,.29l-.43,0a1.88,1.88,0,0,0-.74,0c-.16,0-.23.08-.24.13s0,.1.07.13a.38.38,0,0,0,.14,0l.78.08a4.49,4.49,0,0,1,.78.09l.06,0c.05,0,.07.06.12.16a.59.59,0,0,1,.06.18s-.12,0-.55,0-.49,0-.55,0a.35.35,0,0,0,.07.17c.09.14.08.18-.05.18s-.81-.08-.9-.1l-.1,0a.76.76,0,0,1-.24-.29c-.12-.16-.15-.21-.21-.24l-.05,0a1,1,0,0,0-.37-.06c-.31,0-.61.11-.61.21l.08.14c.06.11.07.12,0,.14l-.13,0-.72-.06a2.72,2.72,0,0,0-1.05,0c-.28.07-.34.19-.17.28l.13.05a3.35,3.35,0,0,0,.78.11L297,47h0s0,.06-.3.15a1,1,0,0,0-.32.13c-.08.07-.05.13,0,.18a1.14,1.14,0,0,0,.59.07,3.11,3.11,0,0,0,.71-.19l.57-.19h.13a4.33,4.33,0,0,1,.57,0l.48.05h0c.05,0,0,0-.31.16s-.32.11-.32.13h0a2.33,2.33,0,0,0,.5.06l.4,0s0,0,0,0,0,0-.35.15l-.36.12h-.14a6.43,6.43,0,0,1-.76,0l-.72-.06a1.42,1.42,0,0,0-.42.06c-.22.07-.26.16-.13.23l.1,0a2.13,2.13,0,0,0,.43.07,1.62,1.62,0,0,1,.47.06l0,0v0l-.58.2-.58.2,0,0c-.06.07,0,.14.06.19l.05,0a1.58,1.58,0,0,0,.6.05h.13l.6-.19.6-.2h.14a.69.69,0,0,1,.13.16.38.38,0,0,0,.3.19,1.12,1.12,0,0,0,.81-.12c.06,0,.06-.06-.1-.31s-.15-.24-.09-.3a1.25,1.25,0,0,1,.37-.14c.35-.12.38-.13.46-.1h0a1,1,0,0,1,.11.16c.05.11.07.15.1.17l.08,0a1.63,1.63,0,0,0,.43-.12c.32-.09.43-.13.5-.1s.06.07.1.14c.16.23.17.22-.54.45l-.52.18L301,49c-.07.06,0,.13.05.17a.78.78,0,0,0,.39.08,1.9,1.9,0,0,0,.64-.14c.31-.1.37-.11.45-.08h0a1.48,1.48,0,0,1,.19.25.73.73,0,0,0,.26.3.29.29,0,0,0,.1,0,2.64,2.64,0,0,0,.46.06.76.76,0,0,0,.58-.19.86.86,0,0,0-.17-.3c-.22-.33-.22-.33.35-.26a1.6,1.6,0,0,0,.83,0c.2-.06.25-.16.12-.25h0a2.86,2.86,0,0,0-.87-.12l-.66-.06-.13-.05-.13,0-.1-.17a.93.93,0,0,1-.09-.17l.49,0a4,4,0,0,0,.56,0c.14,0,.16,0,.08-.18s-.07-.14-.06-.16l.21,0c.32,0,.7.06.78.08l.11,0c.07,0,.12.11.22.28s.13.22.2.25l0,0a1.15,1.15,0,0,0,.8,0c.12,0,.19-.09.19-.14a.78.78,0,0,0-.05-.12c-.09-.13-.09-.17,0-.19s.09,0,.86.06l.74.06c.28,0,.56-.09.6-.19s0-.12-.12-.17a3.75,3.75,0,0,0-.94-.13l-.7-.06,0,0s0,0,.31-.13.42-.15.42-.23a.13.13,0,0,0-.08-.08.76.76,0,0,0-.34-.08h-.28a3.45,3.45,0,0,0-.69.2,2.12,2.12,0,0,1-1.33.17,1.87,1.87,0,0,1-.42-.06c-.06,0,0-.08.32-.16s.37-.12.31-.15a2.74,2.74,0,0,0-.48-.07,1.57,1.57,0,0,1-.43-.06h0l0,0,.32-.11a2.08,2.08,0,0,1,.45-.13,3.53,3.53,0,0,1,.89.05c.33,0,.64.06.69,0,.31,0,.61-.1.61-.2a.15.15,0,0,0-.08-.1,1.61,1.61,0,0,0-.52-.09l-.47-.06,0,0v0l.58-.19.57-.2.05,0s0-.12,0-.17"/><path class="cls-9" d="M307.91,39.92l-.1,0a1.74,1.74,0,0,0-.58,0h-.15l-.58.19a2.7,2.7,0,0,1-.67.19l-.08,0s-.06-.05-.12-.15-.07-.11-.12-.13l-.09,0a1.17,1.17,0,0,0-.49,0c-.25,0-.45.09-.46.17a1.35,1.35,0,0,0,.14.27c.11.17.14.25.12.28l0,0-.34.12c-.38.12-.42.13-.5.1h0a.6.6,0,0,1-.12-.14c0-.09-.07-.15-.11-.17s-.18,0-.47.1-.48.15-.57.1-.08-.07-.13-.14c-.16-.23-.2-.2.59-.47l.61-.21,0,0s0-.08-.05-.12l-.11,0a1.12,1.12,0,0,0-.52-.07,1.43,1.43,0,0,0-.44.12c-.34.11-.42.13-.51.1a2.9,2.9,0,0,1-.22-.27c-.13-.18-.17-.24-.22-.27l-.05,0a1.52,1.52,0,0,0-1,.05c-.14.06-.14.11,0,.37s.16.28,0,.29l-.43,0a1.94,1.94,0,0,0-.75,0c-.16.05-.23.08-.24.14s0,.09.08.12a.38.38,0,0,0,.14,0l.77.08a3.51,3.51,0,0,1,.79.09l.06,0s.07.06.12.16a.39.39,0,0,1,.06.18s-.12.05-.55,0-.49,0-.55,0,0,.09.06.17.09.18,0,.18-.83-.08-.92-.1l-.09,0c-.08,0-.13-.11-.25-.28s-.15-.22-.2-.25l-.05,0a.83.83,0,0,0-.37,0c-.31,0-.62.1-.61.2a.56.56,0,0,0,.07.14c.07.11.07.12,0,.14l-.12,0s-.37,0-.73-.06a2.72,2.72,0,0,0-1,0c-.28.07-.34.19-.16.29l.12,0a3.22,3.22,0,0,0,.78.11l.69.07h0c.05,0,0,.06-.3.15a.85.85,0,0,0-.32.13c-.08.07-.05.13,0,.18a1.12,1.12,0,0,0,.59.07,3.12,3.12,0,0,0,.7-.19l.58-.19h.13a2.55,2.55,0,0,1,.56,0l.48,0h0s0,.06-.32.16-.33.11-.32.13h0a2.63,2.63,0,0,0,.5.06l.42,0h0s0,.05-.35.16l-.36.11h-.14a6.11,6.11,0,0,1-.75-.05l-.72-.06a1.51,1.51,0,0,0-.44.06c-.21.07-.26.16-.12.23a.25.25,0,0,0,.09,0,2.29,2.29,0,0,0,.44.07,1.87,1.87,0,0,1,.48.06v0l-.58.2-.58.2,0,0c-.06.06,0,.13.05.18l.06,0a1.51,1.51,0,0,0,.59,0H298l.58-.19.6-.19h.15a.66.66,0,0,1,.13.16.41.41,0,0,0,.14.15l.16,0a1.14,1.14,0,0,0,.8-.11c.07-.06.06-.07-.1-.32s-.15-.24-.08-.29.09-.06.36-.15.39-.12.47-.1h0s.07.08.11.15.07.16.11.18h.07a1.64,1.64,0,0,0,.45-.12c.31-.09.42-.13.49-.09s.06.06.1.13c.15.23.16.22-.53.45l-.53.18-.05,0c-.07.06,0,.13.05.17a.8.8,0,0,0,.4.08,2.18,2.18,0,0,0,.63-.13c.3-.11.37-.12.45-.09h0a1.22,1.22,0,0,1,.2.26c.11.17.17.25.25.29l.11,0a2.58,2.58,0,0,0,.46.05c.28,0,.54-.1.57-.19s0-.14-.16-.3c-.22-.33-.23-.33.36-.26a1.57,1.57,0,0,0,.82,0c.2-.06.25-.16.12-.25h0a2.67,2.67,0,0,0-.86-.12l-.66-.06-.13-.05-.13,0-.1-.18a1.77,1.77,0,0,1-.1-.17l.5,0,.56.05c.14,0,.15,0,.07-.19a.46.46,0,0,1-.06-.16l.21,0c.32,0,.71.07.78.08a.34.34,0,0,1,.12,0c.07,0,.12.11.22.27s.13.22.19.25l.06,0a1.22,1.22,0,0,0,.8,0c.11,0,.19-.09.19-.14a.26.26,0,0,0-.06-.12c-.09-.13-.09-.17,0-.19s.1,0,.85.06a6.79,6.79,0,0,0,.75.06c.28,0,.56-.09.59-.19s0-.12-.11-.17a3.67,3.67,0,0,0-.94-.12l-.71-.07,0,0s0,0,.31-.13.41-.15.4-.23,0-.06-.07-.08a.94.94,0,0,0-.35-.08h-.28a2.45,2.45,0,0,0-.68.19,2.12,2.12,0,0,1-1.33.17,2.15,2.15,0,0,1-.43-.06c-.06,0,.05-.08.32-.16s.38-.12.32-.15a3,3,0,0,0-.48-.07,1.47,1.47,0,0,1-.43-.06h0l0,0,.33-.11a1.94,1.94,0,0,1,.45-.13,4.1,4.1,0,0,1,.88,0l.69.06c.31,0,.63-.11.61-.21a.11.11,0,0,0-.07-.09,1.29,1.29,0,0,0-.51-.1l-.48-.06,0,0v0l.58-.19.59-.2,0,0a.12.12,0,0,0,0-.17"/></g></g><g id="stars"><g class="cls-26"><g class="cls-30"><path class="cls-31" d="M322.61,68.48a.81.81,0,0,0-.49.36L322,69l-.19.87c-.2.88-.2.88-.26.92a.09.09,0,0,1-.06,0s-.12,0-.31-.22-.23-.21-.38-.21-.29.06-.44.27a.75.75,0,0,0-.13.74s.24.25.47.46a2.63,2.63,0,0,1,.47.5l0,.12-.1.53c-.11.56-.13.62-.24.62a1.13,1.13,0,0,1-.28-.23c-.17-.17-.26-.27-.33-.27s-.11.17-.2.58-.15.67-.26.67-.17-.07-.32-.2c-.43-.37-.42-.3-.18-1.48l.18-.93,0-.11c-.06-.17-.14-.21-.33-.21a.54.54,0,0,0-.48.26c-.08.13-.09.16-.18.6s-.15.6-.25.6a3.47,3.47,0,0,1-.53-.4c-.42-.36-.48-.4-.59-.4-.33,0-.66.41-.67.85,0,.25.05.35.53.79s.48.45.41.57a1.85,1.85,0,0,1-.36.27c-.37.24-.47.35-.55.61a.65.65,0,0,0,0,.48.31.31,0,0,0,.28.22l.11,0c.05,0,.36-.22.69-.44.57-.38.59-.39.72-.39s.14,0,.39.25a2.23,2.23,0,0,1,.27.33c0,.13,0,.2-.4.47s-.4.31-.4.42a1.39,1.39,0,0,0,.26.3c.27.25.31.33.22.44a5.66,5.66,0,0,1-.83.49h-.06c-.11,0-.24-.1-.61-.43s-.43-.37-.55-.37a.42.42,0,0,0-.34.18.88.88,0,0,0-.2.91,1.84,1.84,0,0,0,.25.25c.19.17.21.2.2.28l-.07.15-.63.44c-.63.43-.69.49-.79.81s0,.75.37.75h0c.14,0,.17,0,.72-.39a5.55,5.55,0,0,1,.62-.38c.1,0,.1.1,0,.55a1.3,1.3,0,0,0-.07.54c0,.24.17.36.34.36a.6.6,0,0,0,.47-.31c.08-.13.09-.18.27-1l.18-.83.09-.12a1.78,1.78,0,0,1,.48-.38,3.49,3.49,0,0,1,.43-.25c.1,0,.11.07,0,.58s-.09.5-.06.53,0,0,0,0,.17-.07.45-.27a2.06,2.06,0,0,1,.37-.21c.11,0,.1,0,0,.61l-.12.52-.1.12a3,3,0,0,1-.64.48l-.63.43a1.11,1.11,0,0,0-.24.47c-.08.36,0,.6.28.6h.05a.82.82,0,0,0,.42-.19,1.89,1.89,0,0,1,.43-.25s0,0,0,0l.05.05-.18.87-.18.88,0,.13a.39.39,0,0,0,.36.36.69.69,0,0,0,.51-.36l.09-.13.19-.88.2-.87.06-.05.06,0c.05,0,.11.06.33.24a.55.55,0,0,0,.36.21.27.27,0,0,0,.12,0,.84.84,0,0,0,.45-.88c0-.18,0-.18-.5-.6s-.42-.39-.45-.56a1.63,1.63,0,0,1,.08-.62c.11-.51.13-.55.23-.55a1.55,1.55,0,0,1,.3.25c.2.22.27.29.32.29a.09.09,0,0,0,.06,0c.05,0,.06-.1.18-.59s.14-.6.22-.6.14.08.27.2c.43.39.43.35.2,1.4l-.16.78,0,.15c0,.23.18.35.34.35a.45.45,0,0,0,.33-.17c.14-.15.19-.29.3-.77s.13-.53.23-.53a3.84,3.84,0,0,1,.49.38c.38.35.52.45.65.45h.06a1,1,0,0,0,.42-.24.89.89,0,0,0,.18-.87,2.6,2.6,0,0,0-.52-.51c-.61-.53-.61-.52-.08-.83s.52-.36.59-.7a.5.5,0,0,0-.24-.63l-.1,0c-.12,0-.28.1-.75.42l-.58.4h-.32l-.31-.29c-.17-.16-.3-.3-.3-.3s.2-.14.43-.29.46-.31.48-.34.07-.19-.19-.45a1.78,1.78,0,0,1-.24-.3l.1-.24a5.29,5.29,0,0,1,.7-.43l.08,0c.12,0,.25.1.59.42s.41.38.55.4h0c.28,0,.5-.24.58-.62a.7.7,0,0,0-.05-.45,1.26,1.26,0,0,0-.21-.22c-.23-.2-.29-.28-.27-.37s0-.11.72-.53a3.36,3.36,0,0,0,.65-.46.93.93,0,0,0,.2-.87.5.5,0,0,0-.32-.27h-.05c-.11,0-.26.09-.82.47a6.54,6.54,0,0,1-.63.39l-.07,0s0-.1.06-.52.12-.64,0-.81a.27.27,0,0,0-.23-.13.53.53,0,0,0-.3.12l-.21.22c-.09.14-.09.15-.26,1-.23,1.06-.2,1-.78,1.4a1,1,0,0,1-.39.2c-.1,0-.08-.18,0-.58s.13-.58,0-.58a1.37,1.37,0,0,0-.45.23,1.47,1.47,0,0,1-.38.21.05.05,0,0,1,0,0l-.05,0,.1-.5a1.75,1.75,0,0,1,.17-.62c.1-.17.15-.21.72-.59.3-.19.56-.38.6-.41a.84.84,0,0,0,.18-.92.27.27,0,0,0-.23-.15,1,1,0,0,0-.46.2c-.29.19-.38.25-.43.25s0,0,0,0l-.05,0,.18-.88L323,69l0-.14a.65.65,0,0,0-.25-.35h-.14"/></g></g></g></g></g></svg>